<svg viewBox="0 0 630 1356" fill="none" xmlns="http://www.w3.org/2000/svg">
<path opacity="0.02" d="M342.887 222.604L263.29 135.5C262.689 134.844 262.614 133.878 263.11 133.137C279.681 108.231 287.238 78.1128 284.385 48.3254L281.483 18.1325C280.917 12.2701 277.824 6.97846 272.994 3.60922C268.175 0.244998 262.154 -0.831355 256.474 0.650507C242.755 4.23501 229.803 10.8383 218.832 19.8146L216.38 21.8722C207.046 30.0324 200.054 40.3153 195.885 51.8749C188.393 40.841 177.818 32.2652 165.466 27.2339H165.451C151.788 21.6669 137.014 19.349 122.299 20.4704C114.747 21.0411 109.502 28.2552 111.269 35.6345L118.716 66.6584C122.655 83.059 129.757 98.3883 139.486 111.86C134.891 116.236 130.988 122.569 128.04 130.368C122.179 114.869 112.545 105.127 101.219 105.127C82.466 105.127 68.3224 131.82 68.3224 167.22C68.3224 175.846 69.1682 183.951 70.7097 191.28C66.5707 194.139 62.3266 196.827 57.9774 199.325L8.80509 227.606C3.60008 230.604 0.316915 235.971 0.0216306 241.974C-0.273654 247.976 2.46899 253.643 7.34868 257.128L50.4302 287.941C61.5158 295.881 75.7395 297.659 88.4868 292.697C103.571 286.8 119.437 283.811 135.642 283.811C167.328 283.811 197.061 300.758 213.232 328.037L249.352 388.958C252.7 394.605 258.701 398 265.207 398C265.562 398 265.918 397.99 266.273 397.97C273.18 397.574 279.23 393.409 282.058 387.091L346.29 243.756C349.473 236.652 348.137 228.352 342.887 222.609V222.604Z" fill="#FAFAFA" style="mix-blend-mode:color-burn"/>
<path opacity="0.02" transform="translate(315, 678)" d="M342.887 222.604L263.29 135.5C262.689 134.844 262.614 133.878 263.11 133.137C279.681 108.231 287.238 78.1128 284.385 48.3254L281.483 18.1325C280.917 12.2701 277.824 6.97846 272.994 3.60922C268.175 0.244998 262.154 -0.831355 256.474 0.650507C242.755 4.23501 229.803 10.8383 218.832 19.8146L216.38 21.8722C207.046 30.0324 200.054 40.3153 195.885 51.8749C188.393 40.841 177.818 32.2652 165.466 27.2339H165.451C151.788 21.6669 137.014 19.349 122.299 20.4704C114.747 21.0411 109.502 28.2552 111.269 35.6345L118.716 66.6584C122.655 83.059 129.757 98.3883 139.486 111.86C134.891 116.236 130.988 122.569 128.04 130.368C122.179 114.869 112.545 105.127 101.219 105.127C82.466 105.127 68.3224 131.82 68.3224 167.22C68.3224 175.846 69.1682 183.951 70.7097 191.28C66.5707 194.139 62.3266 196.827 57.9774 199.325L8.80509 227.606C3.60008 230.604 0.316915 235.971 0.0216306 241.974C-0.273654 247.976 2.46899 253.643 7.34868 257.128L50.4302 287.941C61.5158 295.881 75.7395 297.659 88.4868 292.697C103.571 286.8 119.437 283.811 135.642 283.811C167.328 283.811 197.061 300.758 213.232 328.037L249.352 388.958C252.7 394.605 258.701 398 265.207 398C265.562 398 265.918 397.99 266.273 397.97C273.18 397.574 279.23 393.409 282.058 387.091L346.29 243.756C349.473 236.652 348.137 228.352 342.887 222.609V222.604Z" fill="#FAFAFA" style="mix-blend-mode:color-burn"/>
<path opacity="0.02" transform="translate(-315, 678)" d="M342.887 222.604L263.29 135.5C262.689 134.844 262.614 133.878 263.11 133.137C279.681 108.231 287.238 78.1128 284.385 48.3254L281.483 18.1325C280.917 12.2701 277.824 6.97846 272.994 3.60922C268.175 0.244998 262.154 -0.831355 256.474 0.650507C242.755 4.23501 229.803 10.8383 218.832 19.8146L216.38 21.8722C207.046 30.0324 200.054 40.3153 195.885 51.8749C188.393 40.841 177.818 32.2652 165.466 27.2339H165.451C151.788 21.6669 137.014 19.349 122.299 20.4704C114.747 21.0411 109.502 28.2552 111.269 35.6345L118.716 66.6584C122.655 83.059 129.757 98.3883 139.486 111.86C134.891 116.236 130.988 122.569 128.04 130.368C122.179 114.869 112.545 105.127 101.219 105.127C82.466 105.127 68.3224 131.82 68.3224 167.22C68.3224 175.846 69.1682 183.951 70.7097 191.28C66.5707 194.139 62.3266 196.827 57.9774 199.325L8.80509 227.606C3.60008 230.604 0.316915 235.971 0.0216306 241.974C-0.273654 247.976 2.46899 253.643 7.34868 257.128L50.4302 287.941C61.5158 295.881 75.7395 297.659 88.4868 292.697C103.571 286.8 119.437 283.811 135.642 283.811C167.328 283.811 197.061 300.758 213.232 328.037L249.352 388.958C252.7 394.605 258.701 398 265.207 398C265.562 398 265.918 397.99 266.273 397.97C273.18 397.574 279.23 393.409 282.058 387.091L346.29 243.756C349.473 236.652 348.137 228.352 342.887 222.609V222.604Z" fill="#FAFAFA" style="mix-blend-mode:color-burn"/>
</svg>
