<svg preserveAspectRatio="none" width="100%" height="100%" overflow="visible" style="display: block;" viewBox="0 0 295 74.6211" fill="none" xmlns="http://www.w3.org/2000/svg">
<g id="Group 15">
<path id="Vector" d="M29.3418 70.6211C15.3623 70.6209 4 59.108 4 45.0889C4.00013 31.0699 15.3624 19.5568 29.3418 19.5566H258.882L276.543 10.0947L282.675 6.81055L282.43 13.7617L282.013 25.6201C287.496 30.3055 291 37.3004 291 45.0889C291 59.108 279.638 70.6209 265.658 70.6211H29.3418Z" fill="var(--fill-0, white)" stroke="var(--stroke-0, #0A0A0A)" stroke-width="8"/>
<path id="Union" d="M268.563 55.8203H262.576V50.749H268.563V55.8203ZM259.623 43.2461H257.794C255.923 43.2461 254.966 43.5528 254.197 43.9209V55.4746H248.127V47.2334L247.378 47.6426C246.297 48.2356 244.426 48.8291 241.308 48.8291H240.185V42.8369H241.557C243.261 42.8369 243.761 42.5509 245.029 41.8965L251.973 38.2979C253.428 37.5413 254.551 37.2549 256.588 37.2549H259.623V43.2461ZM238.771 43.4512C238.77 51.3851 233.032 55.3115 223.157 55.3115V55.3096H220.019V49.5225H223.157C227.752 49.5225 230.933 48.786 232.222 46.3936H226.983L226.879 44.2461C226.837 43.4492 226.526 43.2033 226.048 43.2031H225.964C225.985 43.2645 225.985 43.3469 225.985 43.4287L226.151 46.3936H220.809V44.2461C220.808 43.4898 220.496 43.2031 219.977 43.2031H219.686V37.3359H220.434C223.469 37.3359 225.091 39.0136 225.735 41.7129V37.3359H226.484C230.122 37.3361 231.682 39.8113 232.035 43.4307L232.306 46.252C232.68 45.4955 232.866 44.5755 232.866 43.4512V37.0293H238.771V43.4512ZM168.875 38.4199H180.413V43.1035C180.413 49.8719 178.667 52.3662 172.43 52.3662H170.122V46.498H172.43C174.218 46.498 174.571 46.0478 174.571 44.6777V44.166H169.062L169.436 55.2295H163.677L163.303 44.166H161.349V38.4199H163.095L163.054 37.0908H168.812L168.875 38.4199ZM135.673 39.4219H138.937V45.4346H135.61C135.111 51.5691 132.159 55.168 123.822 55.168H120.184V49.1562H123.885C127.689 49.1562 128.978 48.2767 129.311 45.4346H119.706V39.4219H129.395V37.1934H135.673V39.4219ZM159.852 39.4834H155.964V40.2607H159.852V42.5713H158.791C158.853 43.2052 158.875 43.9006 158.875 44.6572V55.168H141.099V49.2178H152.721V44.6572C152.721 43.9006 152.575 43.6758 151.66 43.6758H141.099V37.7041H151.66C152.908 37.7041 153.948 37.766 154.779 37.8887V37.1523H159.852V39.4834ZM217.731 43.6143C217.731 47.7654 215.403 50.1992 211.349 50.1992H209.145C208.791 53.2254 206.629 55.1679 202.555 55.168H198.896V49.3809H201.619C203.012 49.3808 203.24 49.0123 203.24 47.8877V44.4121H210.808C211.223 44.4121 211.723 44.1047 211.723 43.4912V43.0625H198.896V37.6025H217.731V43.6143ZM107.585 49.9414C107.585 50.3827 107.686 50.5142 108.084 50.5312C108.217 48.2734 109.881 47.0802 111.925 47.0801H111.976V45.4277H108.218V41.1416H111.976V40.5371H116.647V41.1416H118.228V45.4277H116.649V47.0791H118.212V51.7412H116.832C116.782 54.1455 115.569 55.1103 112.974 55.1104H111.643C110.196 55.1103 109.148 54.4557 108.565 53.3105V55.0283H107.086C104.259 55.0283 103.028 53.8013 103.028 51.2334V40.5352H107.585V49.9414ZM187.669 42.333H188.201C191.527 42.3331 192.674 43.4952 192.974 45.8008V42.7588H197.382V44.623H196.716C197.364 45.4904 197.565 46.7331 197.565 48.2549V51.6084H193.739V47.6016C193.739 47.2098 193.556 46.9965 193.074 46.9795V51.3799C193.074 53.556 192.293 54.9941 189.715 54.9941H187.619V50.3984H188.218C188.583 50.3984 188.783 50.267 188.783 49.8086V47.6006C188.783 47.2242 188.567 47.127 188.302 47.127H187.354L186.837 54.9941H182.447L182.979 47.127H181.848V42.333H183.294L183.41 40.5166H187.785L187.669 42.333ZM101.556 42.4688H92.4912C91.6807 42.4689 91.4102 43.0417 91.4102 43.5732V43.6348C91.9507 43.5734 92.4708 43.5527 92.9697 43.5527H96.4004C100.828 43.5528 102.325 45.8021 102.325 48.5625V49.1562C102.325 51.978 100.932 54.452 96.4004 54.4521H91.5771C87.2738 54.4521 85.1945 52.2031 85.1943 48.8701V43.083C85.1943 40.118 86.982 37.4797 90.9941 37.4795H101.556V42.4688ZM57.5244 37.2754C62.8671 37.2754 64.6347 38.7474 64.6348 44.4932V47.2744C64.6348 52.7752 62.9709 54.3496 57.4199 54.3496H55.1953C49.6446 54.3496 48.002 52.7751 48.002 47.2744V44.4932C48.002 38.7475 49.7278 37.2755 55.1328 37.2754H57.5244ZM39.665 37.4795C44.1973 37.4795 46.0068 39.4835 46.0068 42.9189V43.2871C46.0068 45.8023 44.6547 48.0518 39.665 48.0518H35.3828V48.8291H45.5693V54.125H29V43.9004H38.792C39.3532 43.9004 39.5614 43.6757 39.5615 43.3486V43.2666C39.5615 42.919 39.2909 42.7559 38.792 42.7559H29V37.4795H39.665ZM77.2734 37.4795C81.8055 37.4796 83.6142 39.4836 83.6143 42.9189V43.2871C83.6142 45.8023 82.2628 48.0517 77.2734 48.0518H72.9902V48.8291H83.1777V54.125H66.6074V43.9004H76.4004C76.9613 43.9003 77.1689 43.6756 77.1689 43.3486V43.2666C77.1689 42.9191 76.8991 42.756 76.4004 42.7559H66.6074V37.4795H77.2734ZM112.242 50.2666C111.96 50.2666 111.71 50.4477 111.71 50.7578C111.71 51.1498 111.91 51.3477 112.275 51.3477H112.408C112.708 51.3477 112.94 51.1016 112.94 50.7744V50.2666H112.242ZM269 42.5713L267.753 50.4033H263.407L262.181 42.5713V36.6211H269V42.5713ZM92.0547 47.8877C91.5767 47.8878 91.4102 48.2156 91.4102 48.4814V48.665C91.4102 48.9922 91.5767 49.2987 92.0547 49.2988H95.4648C95.9842 49.2987 96.1298 48.9925 96.1299 48.7676V48.502C96.1299 48.0931 95.8181 47.8878 95.4648 47.8877H92.0547ZM55.1328 42.6123C54.0937 42.6124 53.6368 43.0418 53.6367 44.4932V47.2744C53.6367 48.6239 54.0105 48.9921 55.1953 48.9922H57.4199C58.4386 48.9922 58.959 48.3991 58.959 47.2744V44.4932C58.9589 43.0213 58.3974 42.6124 57.5244 42.6123H55.1328ZM197.382 42.2354H192.974V40.3711H197.382V42.2354Z" fill="var(--fill-0, #0A0A0A)"/>
</g>
</svg>
