<svg preserveAspectRatio="none" width="100%" height="100%" overflow="visible" style="display: block;" viewBox="0 0 295 74.6211" fill="none" xmlns="http://www.w3.org/2000/svg">
<g id="Group 14">
<path id="Vector" d="M265.658 4C279.638 4.00019 291 15.5131 291 29.5322C291 43.5512 279.638 55.0643 265.658 55.0645H36.1182L18.457 64.5264L12.3252 67.8105L12.5703 60.8594L12.9873 49.001C7.50395 44.3156 4.00007 37.3207 4 29.5322C4 15.5131 15.3623 4.00019 29.3418 4H265.658Z" fill="var(--fill-0, white)" stroke="var(--stroke-0, #0A0A0A)" stroke-width="8"/>
<path id="Union" d="M146.593 21.5498C147.035 21.5498 147.442 21.5827 147.819 21.6494C148.195 21.7162 148.52 21.837 148.792 22.0156C149.064 22.1943 149.279 22.4433 149.433 22.7627C149.588 23.082 149.665 23.4952 149.665 24.0039C149.665 24.2383 149.651 24.4675 149.624 24.6875C149.595 24.9076 149.544 25.1281 149.469 25.3428C149.366 25.6531 149.22 25.964 149.032 26.2744C149.155 26.5756 149.245 26.9037 149.307 27.2607C149.368 27.618 149.398 28.0608 149.398 28.5859C149.398 29.4412 149.237 30.1955 148.918 30.8486C148.599 31.5018 148.151 32.0482 147.579 32.4902C147.005 32.9323 146.32 33.2666 145.521 33.4922C144.721 33.7178 143.838 33.8311 142.869 33.8311C142.568 33.831 142.272 33.8171 141.981 33.79C141.689 33.7612 141.475 33.7339 141.334 33.7051C141.325 33.7249 141.314 33.7578 141.305 33.8047C141.296 33.8515 141.291 33.8985 141.291 33.9453C141.291 34.1418 141.433 34.2787 141.72 34.3545C142.007 34.4303 142.389 34.4668 142.869 34.4668C143.564 34.4668 144.246 34.4091 144.914 34.29C145.582 34.1728 146.15 34.0158 146.619 33.8174C147.182 33.9671 147.657 34.196 148.043 34.501C148.427 34.8059 148.744 35.1527 148.987 35.5371C149.231 35.9231 149.407 36.3364 149.516 36.7783C149.624 37.2203 149.678 37.6569 149.678 38.0898C149.678 38.9831 149.481 39.7723 149.086 40.458C148.691 41.1435 148.139 41.7191 147.43 42.1846C146.721 42.6501 145.873 43.0022 144.886 43.2422C143.899 43.4822 142.817 43.6006 141.643 43.6006C140.468 43.6006 139.441 43.4905 138.562 43.2686C137.684 43.0484 136.951 42.7479 136.362 42.3672C135.774 41.9864 135.335 41.5436 135.045 41.042C134.753 40.5386 134.608 40.0005 134.608 39.4268C134.608 39.1726 134.639 38.9311 134.7 38.7021C134.762 38.4713 134.841 38.2581 134.94 38.0615C135.04 37.8648 135.152 37.693 135.28 37.5469C135.407 37.4008 135.542 37.2906 135.683 37.2148C136.125 37.5901 136.796 37.9056 137.698 38.1582C138.6 38.4108 139.696 38.5391 140.982 38.5391C141.697 38.5391 142.189 38.503 142.462 38.4326C142.734 38.3622 142.871 38.2287 142.871 38.0303C142.871 37.9655 142.863 37.9114 142.843 37.8682C142.823 37.8267 142.804 37.7851 142.786 37.749C142.561 37.7959 142.279 37.8343 141.94 37.8613C141.601 37.8884 141.296 37.9023 141.023 37.9023C140.224 37.9023 139.454 37.8447 138.712 37.7256C137.968 37.6083 137.314 37.4075 136.745 37.126C136.177 36.8445 135.72 36.4752 135.377 36.0205C135.034 35.564 134.863 34.9989 134.863 34.3223C134.863 33.8621 134.957 33.4179 135.145 32.9902C135.332 32.5628 135.628 32.2419 136.032 32.0254C135.816 31.8937 135.597 31.7162 135.377 31.4961C135.157 31.2761 134.957 31.0056 134.778 30.6865C134.6 30.3671 134.454 30.0001 134.342 29.5869C134.23 29.1737 134.172 28.7046 134.172 28.1777C134.172 27.2575 134.356 26.4345 134.723 25.7109C135.089 24.9875 135.596 24.3777 136.245 23.8779C136.893 23.3799 137.663 22.9988 138.557 22.7354C139.45 22.4719 140.423 22.3399 141.475 22.3398C142.076 22.3398 142.635 22.3947 143.153 22.5029C143.669 22.6112 144.117 22.7296 144.492 22.8613V21.875C144.709 21.7902 145.001 21.7161 145.372 21.6494C145.744 21.5845 146.151 21.5498 146.593 21.5498ZM178.115 22.625C178.736 22.625 179.331 22.6976 179.82 22.8438C180.309 22.9899 180.715 23.1795 181.04 23.4141C181.365 23.6486 181.608 23.9174 181.772 24.2168C181.937 24.5182 182.02 24.829 182.02 25.1484C182.019 25.2047 182 25.3908 181.964 25.7061C181.926 26.0218 181.866 26.4372 181.787 26.9531C181.708 27.4709 181.608 28.0737 181.491 28.7646C181.374 29.4557 181.234 30.1959 181.069 30.9844C180.905 31.7746 180.721 32.603 180.519 33.4727C180.316 34.3423 180.092 35.2193 179.849 36.1016C179.435 37.5866 178.934 38.7959 178.348 39.7324C177.759 40.667 177.117 41.3994 176.417 41.9316C175.717 42.4622 174.98 42.8267 174.21 43.0234C173.439 43.2201 172.663 43.3193 171.884 43.3193C171.104 43.3193 170.393 43.2186 169.812 43.0166C169.23 42.8145 168.748 42.542 168.367 42.1992C167.986 41.8564 167.701 41.4589 167.514 41.0078C167.326 40.5567 167.231 40.082 167.231 39.584C167.231 39.086 167.3 38.6456 167.436 38.209C167.571 37.7723 167.801 37.3196 168.12 36.8486C168.196 36.8306 168.297 36.8156 168.423 36.8066C168.549 36.7976 168.67 36.793 168.782 36.793C169.064 36.793 169.345 36.8093 169.628 36.8418C169.909 36.8743 170.135 36.9047 170.305 36.9336L172.52 37.3428C172.622 37.3626 172.725 37.3814 172.829 37.3994C172.932 37.4193 173.035 37.4277 173.14 37.4277C173.298 37.4277 173.434 37.3949 173.542 37.3281C173.65 37.2632 173.705 37.1085 173.705 36.8633L170.377 36.2275C170.029 36.0868 169.669 35.8471 169.298 35.5098C168.926 35.1705 168.576 34.7047 168.248 34.1074C167.92 33.5102 167.62 32.7671 167.353 31.874C167.085 30.9808 166.88 29.9135 166.739 28.6738C166.485 28.3454 166.266 27.9394 166.084 27.4541C165.9 26.9706 165.81 26.427 165.81 25.8262C165.81 25.3102 165.877 24.7923 166.007 24.2764C166.139 23.7605 166.355 23.2752 166.654 22.8242H170.278L170.276 22.8223C170.944 22.8223 171.496 22.9192 171.933 23.1104C172.369 23.3034 172.723 23.5549 172.99 23.8652C173.257 24.1756 173.456 24.5277 173.582 24.9229C173.708 25.3178 173.795 25.7218 173.844 26.1348C173.815 26.3512 173.782 26.6402 173.744 27.001C173.706 27.3637 173.672 27.7682 173.638 28.2139C173.605 28.6596 173.579 29.1328 173.561 29.6309C173.541 30.1288 173.531 30.6232 173.531 31.1104V31.4424C173.531 31.5596 173.537 31.666 173.546 31.7598C173.602 31.7886 173.656 31.8064 173.708 31.8154C173.76 31.8245 173.81 31.8301 173.856 31.8301C174.006 31.83 174.113 31.7738 174.174 31.6602C174.235 31.5484 174.266 31.3972 174.266 31.21C174.266 30.4196 174.289 29.6373 174.336 28.8613C174.383 28.0856 174.442 27.3545 174.513 26.6689C174.583 25.9834 174.663 25.3625 174.753 24.8086C174.841 24.2547 174.924 23.8033 175 23.4551C175.413 23.1537 175.881 22.9408 176.402 22.8145C176.924 22.6881 177.494 22.625 178.115 22.625ZM266.545 40.2666H260.309V34.8965H266.545V40.2666ZM221.224 21.2539H222.284V21.6875C224.081 21.4277 225.056 20.6911 225.468 19.9766H232.007C232.353 20.7344 233.566 21.4275 235.493 21.709V27.1436C235.017 27.0569 234.583 26.927 234.15 26.7754V27.5771H231.747V27.9453H235.061V34.8965H232.635C233.306 35.1996 234.194 35.3291 235.493 35.3291V40.2451C232.786 40.2451 230.469 39.4868 228.889 37.9277C227.2 39.7033 224.449 40.2451 222.219 40.2451V35.3291C223.539 35.3291 224.558 35.1779 225.294 34.8965H222.587V27.9453H225.836V27.5771H223.41V26.8193C222.999 26.9492 222.608 27.0569 222.219 27.1436V26.6455H221.224V27.209L222.219 28.2266V35.0039L221.224 33.792V40.0713H216.308V35.8486C215.983 36.2384 215.658 36.6068 215.333 36.9316V29.4609C215.874 28.8979 216.048 27.8581 216.199 26.6455H215.333V21.2539H216.308V19.9766H221.224V21.2539ZM243.592 37.083C243.592 37.9057 243.267 39.3779 243.115 40.1143H236.836C236.988 39.3346 237.355 37.884 237.398 37.083H243.592ZM249.828 20.4092H256.476V24.4375H249.828V24.8271H257.039V29.3525H256.281L252.903 31.5176H256.498L257.602 37.083H256.541L257.256 40.1143H251.344L250.499 36.9961H251.929L251.755 36.1738C251.365 36.3037 250.932 36.4115 250.261 36.498V40.1143H244.09V36.7148H237.03V33.1641H240.214L241.015 32.752H237.334V30.3701L239.088 29.3525H237.052V24.8271H244.415V24.4375H237.615V20.4092H244.415V19.9326H249.828V20.4092ZM213.953 26.0342H211.06V26.5879H213.953V28.5283H211.06L211.062 28.5293V29.3096H208.584C205.744 29.3097 204.652 31.0598 204.652 32.7217C204.652 33.8296 205.45 34.3496 206.783 34.3496H212.949V39.4414H206.66C201.637 39.4413 199.558 36.982 199.558 33.0664C199.558 31.6283 200.112 30.3632 200.926 29.3076H198.016V24.3545H209.743V24.0596H213.953V26.0342ZM67.2646 22.4121C68.4011 22.4122 69.4259 22.5802 70.3369 22.9121C71.2482 23.2459 72.0267 23.7043 72.6709 24.2871C73.3151 24.8699 73.809 25.5525 74.1572 26.332C74.5054 27.1115 74.6787 27.9431 74.6787 28.8271C74.6787 29.6644 74.5313 30.3835 74.2354 30.9844C73.9395 31.5851 73.5277 32.081 73.001 32.4707C72.4741 32.8605 71.8495 33.1492 71.126 33.3369C70.4024 33.5246 69.6168 33.6182 68.7705 33.6182C68.1319 33.6181 67.5133 33.5423 66.918 33.3926C66.3208 33.2428 65.8117 33.0414 65.3877 32.7871C65.3409 32.825 65.3103 32.8733 65.2959 32.9346C65.2815 32.9958 65.2735 33.0498 65.2734 33.0967C65.2734 33.2374 65.3767 33.3764 65.584 33.5117C65.7896 33.6488 66.0585 33.7697 66.3867 33.8779C66.7151 33.9862 67.0925 34.0751 67.5146 34.1455C67.9368 34.2159 68.3611 34.2519 68.7832 34.252C69.3661 34.252 69.897 34.2122 70.377 34.1328C70.8569 34.0534 71.2863 33.9542 71.667 33.8369C72.0476 33.7197 72.3797 33.5899 72.6611 33.4492C72.9426 33.3085 73.1777 33.1708 73.3672 33.0391C73.4899 33.1419 73.5943 33.2959 73.6846 33.498C73.7729 33.7 73.8503 33.9236 73.917 34.167C73.9819 34.4123 74.0329 34.663 74.0654 34.9209C74.0979 35.1788 74.1142 35.4173 74.1143 35.6338C74.1143 35.8503 74.1016 36.055 74.0781 36.248C74.0547 36.4407 74.0241 36.6065 73.9863 36.7471C73.685 37.0015 73.3562 37.2435 72.999 37.4727C72.6418 37.7036 72.2194 37.9059 71.7305 38.0791C71.2414 38.2523 70.6746 38.3937 70.0322 38.502C69.388 38.6102 68.63 38.6641 67.7549 38.6641L67.7588 38.668C66.4705 38.668 65.3064 38.482 64.2617 38.1104C63.2169 37.7386 62.3271 37.2021 61.5908 36.502C60.8528 35.8018 60.2845 34.9484 59.8857 33.9434C59.487 32.9384 59.2862 31.8053 59.2861 30.5459C59.2861 29.2216 59.4992 28.0502 59.9268 27.0361C60.3544 26.0221 60.9322 25.1701 61.6611 24.4844C62.3901 23.7987 63.238 23.2801 64.2051 22.9336C65.1723 22.5853 66.1946 22.4121 67.2646 22.4121ZM158.04 38.668H158.036L158.038 38.667L158.04 38.668ZM83.209 22.3418C84.1581 22.3418 85.0458 22.4612 85.874 22.7012C86.7003 22.9411 87.4204 23.291 88.0303 23.751C88.6401 24.211 89.1219 24.7726 89.4756 25.4365C89.8292 26.1005 90.0049 26.8586 90.0049 27.7139C90.0049 28.2877 89.9113 28.8115 89.7236 29.2861C89.536 29.7607 89.2718 30.1699 88.9326 30.5127C88.5934 30.8555 88.1875 31.1209 87.7129 31.3086C87.2384 31.4962 86.7135 31.5898 86.1416 31.5898C85.6617 31.5898 85.223 31.5252 84.8242 31.3936C84.4255 31.2619 84.0772 31.0759 83.7812 30.8359C83.4854 30.596 83.2433 30.3093 83.0557 29.9756C82.868 29.6418 82.7454 29.2733 82.6895 28.8691C82.5108 28.8691 82.3624 28.8996 82.2451 28.9609C82.1279 29.0223 82.0684 29.1418 82.0684 29.3203C82.0684 29.6216 82.1551 29.941 82.3301 30.2783C82.5033 30.6175 82.7557 30.9299 83.084 31.2168C83.4124 31.5037 83.8225 31.7433 84.3115 31.9346C84.8005 32.1276 85.3634 32.2236 86.0039 32.2236C86.6896 32.2236 87.2659 32.1478 87.7314 31.998C88.1969 31.8483 88.5796 31.6732 88.8809 31.4766C89.0775 31.7779 89.2456 32.144 89.3809 32.5752C89.5162 33.0083 89.584 33.5196 89.584 34.1133C89.5839 34.658 89.4542 35.2009 89.1963 35.7402C88.9383 36.2815 88.5487 36.7672 88.0273 37.2002C87.5059 37.6332 86.8507 37.9854 86.0605 38.2578C85.2702 38.5303 84.3404 38.667 83.2686 38.667H83.2666C82.0252 38.667 80.9118 38.4671 79.9248 38.0684C78.9378 37.6696 78.0971 37.1082 77.4023 36.3828C76.7058 35.6592 76.1735 34.7857 75.8018 33.7607C75.4301 32.7358 75.2441 31.5991 75.2441 30.3486C75.2441 29.0043 75.4698 27.8293 75.9209 26.8242C76.372 25.8193 76.9694 24.9835 77.7109 24.3213C78.4525 23.6592 79.3005 23.1633 80.2549 22.835C81.2095 22.5065 82.193 22.3418 83.209 22.3418ZM158.036 22.3584C159.211 22.3584 160.283 22.5606 161.25 22.9648C162.217 23.3691 163.047 23.9359 163.738 24.6631C164.429 25.3921 164.966 26.2618 165.347 27.2705C165.727 28.2809 165.916 29.3874 165.916 30.5908C165.916 31.7943 165.738 32.9493 165.381 33.9453C165.024 34.9414 164.507 35.7891 163.83 36.4893C163.153 37.1893 162.327 37.7274 161.35 38.1045C160.372 38.4796 159.268 38.6668 158.038 38.667C156.94 38.6668 155.908 38.4974 154.945 38.1602C153.982 37.8209 153.146 37.3106 152.435 36.623C151.725 35.9374 151.165 35.0815 150.75 34.0566C150.337 33.0318 150.129 31.834 150.129 30.4629C150.129 29.2214 150.322 28.1003 150.706 27.1006C151.09 26.0991 151.632 25.2476 152.327 24.542C153.022 23.8365 153.853 23.2962 154.822 22.9209C155.789 22.5456 156.861 22.3584 158.036 22.3584ZM125.744 22.4863C126.957 22.4863 128.016 22.6231 128.924 22.8955C129.831 23.1679 130.586 23.5617 131.187 24.0723C131.787 24.5847 132.239 25.2149 132.54 25.9619C132.841 26.709 132.991 27.5538 132.991 28.4922V31.2549L132.988 31.2529C132.988 31.9006 133.058 32.4364 133.199 32.8604C133.34 33.2844 133.609 33.6169 134.002 33.8623C134.011 33.938 134.017 34.0304 134.017 34.1367V34.3838C134.017 35.0983 133.904 35.7135 133.677 36.2295C133.451 36.7471 133.158 37.1711 132.797 37.5049C132.434 37.8387 132.023 38.0863 131.562 38.2451C131.102 38.4039 130.631 38.4853 130.153 38.4854C129.814 38.4854 129.483 38.4456 129.158 38.3662C128.834 38.2868 128.529 38.1655 128.242 38.0068C127.955 37.848 127.697 37.6426 127.466 37.3936C127.235 37.1445 127.055 36.8501 126.923 36.5127C126.762 36.5127 126.643 36.5539 126.563 36.6387C126.484 36.7235 126.444 36.836 126.444 36.9785C126.444 37.1102 126.487 37.2507 126.571 37.4004C126.656 37.5502 126.777 37.7056 126.938 37.8662C126.636 38.0737 126.232 38.2292 125.725 38.332C125.218 38.4349 124.7 38.4873 124.175 38.4873C123.32 38.4873 122.542 38.3693 121.842 38.1348C121.142 37.9002 120.541 37.5519 120.037 37.0918C119.534 36.6316 119.143 36.0703 118.867 35.4062C118.589 34.7442 118.452 33.9811 118.452 33.1152C118.452 32.2491 118.601 31.4491 118.896 30.7959C119.192 30.1428 119.595 29.6034 120.102 29.1758C120.609 28.7481 121.199 28.4303 121.87 28.2246C122.541 28.0189 123.254 27.9141 124.007 27.9141C124.346 27.9141 124.646 27.9267 124.909 27.9502C125.173 27.9737 125.398 27.9995 125.586 28.0283C125.802 28.0662 125.984 28.1036 126.136 28.1396C126.165 28.0459 126.178 27.9662 126.178 27.8994C126.178 27.777 126.114 27.6745 125.988 27.5898C125.862 27.505 125.694 27.4419 125.488 27.4004C125.281 27.3589 125.043 27.3275 124.771 27.3076C124.498 27.2896 124.22 27.2793 123.938 27.2793C123.3 27.2793 122.66 27.3495 122.021 27.4902C121.383 27.631 120.809 27.8472 120.302 28.1377C120.094 27.7895 119.929 27.3474 119.803 26.8135C119.676 26.2793 119.612 25.7327 119.612 25.1787C119.612 24.9153 119.629 24.6499 119.661 24.3828C119.694 24.1158 119.762 23.8774 119.865 23.6699C120.109 23.5581 120.423 23.434 120.804 23.2969C121.184 23.1616 121.626 23.0333 122.128 22.916C122.631 22.7987 123.186 22.6971 123.792 22.6123C124.398 22.5275 125.048 22.4863 125.744 22.4863ZM189.087 22.4863C190.299 22.4863 191.359 22.623 192.267 22.8955C193.174 23.168 193.928 23.5616 194.529 24.0723C195.13 24.5847 195.581 25.2148 195.883 25.9619C196.184 26.7089 196.334 27.5539 196.334 28.4922V31.2549L196.33 31.2529C196.33 31.9005 196.4 32.4364 196.541 32.8604C196.682 33.2844 196.95 33.6169 197.344 33.8623C197.353 33.938 197.358 34.0304 197.358 34.1367V34.3838C197.358 35.0982 197.247 35.7135 197.02 36.2295C196.794 36.7473 196.5 37.1711 196.139 37.5049C195.776 37.8387 195.364 38.0863 194.904 38.2451C194.444 38.4039 193.973 38.4854 193.495 38.4854C193.156 38.4853 192.826 38.4456 192.501 38.3662C192.176 38.2868 191.871 38.1656 191.584 38.0068C191.297 37.8481 191.039 37.6424 190.809 37.3936C190.578 37.1445 190.396 36.8501 190.265 36.5127C190.105 36.5128 189.986 36.5542 189.906 36.6387C189.827 36.7235 189.787 36.836 189.787 36.9785C189.787 37.1101 189.828 37.2508 189.913 37.4004C189.998 37.5501 190.119 37.7056 190.279 37.8662C189.978 38.0737 189.573 38.2292 189.066 38.332C188.56 38.4348 188.042 38.4873 187.517 38.4873C186.661 38.4873 185.884 38.3693 185.184 38.1348C184.483 37.9002 183.882 37.5519 183.379 37.0918C182.876 36.6317 182.486 36.0702 182.21 35.4062C181.932 34.7441 181.795 33.9812 181.795 33.1152C181.795 32.2491 181.942 31.4491 182.238 30.7959C182.534 30.1427 182.937 29.6034 183.444 29.1758C183.951 28.7482 184.542 28.4303 185.213 28.2246C185.884 28.019 186.596 27.9141 187.349 27.9141C187.688 27.9141 187.988 27.9268 188.251 27.9502C188.514 27.9736 188.74 27.9995 188.928 28.0283C189.144 28.0662 189.327 28.1036 189.479 28.1396C189.507 28.0459 189.52 27.9661 189.52 27.8994C189.519 27.7769 189.456 27.6745 189.33 27.5898C189.204 27.505 189.036 27.4419 188.83 27.4004C188.623 27.3589 188.385 27.3275 188.112 27.3076C187.84 27.2896 187.562 27.2793 187.28 27.2793C186.642 27.2793 186.003 27.3495 185.364 27.4902C184.726 27.631 184.152 27.8473 183.645 28.1377C183.437 27.7895 183.271 27.3475 183.145 26.8135C183.018 26.2794 182.955 25.7327 182.955 25.1787C182.955 24.9153 182.971 24.6499 183.004 24.3828C183.036 24.1158 183.105 23.8774 183.208 23.6699C183.451 23.5581 183.765 23.4339 184.146 23.2969C184.526 23.1615 184.969 23.0333 185.471 22.916C185.974 22.7988 186.528 22.6971 187.134 22.6123C187.74 22.5275 188.39 22.4863 189.087 22.4863ZM111.532 22.4824C112.209 22.4824 112.897 22.5732 113.599 22.75C114.299 22.9287 114.93 23.2386 115.495 23.6807C116.058 24.1227 116.52 24.7239 116.877 25.4854C117.234 26.2469 117.413 27.2056 117.413 28.3623C117.413 28.7845 117.406 29.2594 117.392 29.7861C117.377 30.3129 117.37 30.8 117.37 31.251C117.37 31.8987 117.44 32.4344 117.581 32.8584C117.722 33.2825 117.99 33.6149 118.384 33.8604C118.393 33.9361 118.398 34.0283 118.398 34.1348V34.3818C118.398 35.0495 118.295 35.6397 118.088 36.1504C117.88 36.6628 117.598 37.0922 117.241 37.4404C116.884 37.7886 116.467 38.0486 115.994 38.2236C115.52 38.3968 115.014 38.4854 114.479 38.4854C113.916 38.4853 113.376 38.408 112.864 38.2529C112.352 38.0978 111.9 37.8429 111.511 37.4912C111.121 37.1393 110.81 36.6786 110.579 36.1084C110.348 35.5401 110.234 34.8419 110.234 34.0156C110.234 33.5737 110.251 33.155 110.283 32.7617C110.316 32.3666 110.354 31.9981 110.396 31.6553C110.437 31.3124 110.479 30.9946 110.515 30.7041C110.553 30.4137 110.57 30.1449 110.57 29.9014C110.57 29.4503 110.521 29.1418 110.422 28.9775C110.323 28.8133 110.166 28.7305 109.949 28.7305C109.809 28.7305 109.677 28.768 109.555 28.8418L109.738 31.1387C109.691 31.42 109.652 31.7054 109.619 31.9922C109.587 32.2791 109.56 32.5501 109.542 32.8027C109.522 33.0572 109.509 33.2866 109.5 33.4941C109.491 33.7015 109.485 33.8693 109.485 34.001C109.485 34.7336 109.558 35.3403 109.704 35.8203C109.85 36.3002 110.016 36.7133 110.204 37.0615C109.791 37.4946 109.253 37.8396 108.589 38.0977C107.925 38.3556 107.172 38.4853 106.326 38.4854C105.904 38.4854 105.473 38.4235 105.036 38.3008C104.599 38.1781 104.204 37.9921 103.853 37.7432C103.501 37.4942 103.212 37.1841 102.986 36.8125C102.761 36.4408 102.646 36.0022 102.646 35.4951V28.6719C102.365 28.2768 102.156 27.8309 102.019 27.333C101.883 26.8351 101.814 26.3134 101.814 25.7686C101.814 25.3175 101.883 24.8193 102.019 24.2744C102.154 23.7296 102.363 23.2462 102.646 22.8223H105.158C105.553 22.8223 105.884 22.8926 106.152 23.0332C106.421 23.1739 106.658 23.3528 106.865 23.5693C106.452 23.9554 106.245 24.2748 106.245 24.5273C106.245 24.6391 106.283 24.7417 106.356 24.8301C106.432 24.9203 106.559 24.9638 106.737 24.9639C106.925 24.6355 107.173 24.32 107.478 24.0205C107.782 23.7192 108.139 23.4568 108.549 23.2295C108.958 23.0021 109.414 22.8237 109.917 22.6865C110.42 22.5512 110.958 22.4824 111.532 22.4824ZM53.8369 18C54.4846 18 55.0782 18.0525 55.6123 18.1553C56.1482 18.2581 56.6253 18.3902 57.0439 18.5508C57.4624 18.7113 57.8218 18.8903 58.123 19.0869C58.4242 19.2835 58.6623 19.4765 58.8408 19.6641C58.8787 19.7759 58.9059 19.9027 58.9258 20.0381C58.9438 20.1751 58.9578 20.3088 58.9668 20.4404C58.9758 20.5719 58.9814 20.6907 58.9814 20.7988V21.0605C58.9814 21.5875 58.9454 22.0536 58.875 22.4561C58.8046 22.8601 58.6983 23.2461 58.5576 23.6123C58.2654 23.7242 57.8882 23.8164 57.4229 23.8867C56.9573 23.9571 56.4278 23.9932 55.8359 23.9932L55.833 23.9912C55.5696 23.9912 55.2985 23.9827 55.0225 23.9629C54.7446 23.9448 54.4792 23.9215 54.2266 23.8926C53.9741 23.8637 53.7379 23.8341 53.5215 23.7998C53.3051 23.7673 53.1317 23.7312 53 23.6934C52.9712 23.7221 52.9477 23.7567 52.9297 23.7998C52.9099 23.8412 52.9004 23.901 52.9004 23.9766C52.9004 24.1372 53.126 24.2856 53.5771 24.4209C54.0282 24.558 54.7607 24.625 55.7764 24.625C56.3681 24.625 56.8593 24.6086 57.249 24.5762C57.6387 24.5437 57.9745 24.5039 58.2578 24.457C58.2957 24.5328 58.33 24.6499 58.3643 24.8086C58.3967 24.9692 58.4272 25.1481 58.4561 25.3447C58.4849 25.5414 58.5051 25.7493 58.5195 25.9658C58.534 26.1822 58.541 26.3752 58.541 26.543C58.541 27.023 58.4999 27.4345 58.415 27.7773C58.3303 28.12 58.2131 28.4232 58.0635 28.6865H55.4551V37.4424C55.1358 37.6498 54.8107 37.8161 54.4824 37.9424C54.1542 38.0686 53.8314 38.1679 53.5176 38.2383C53.2018 38.3087 52.9022 38.3554 52.6152 38.3789C52.3283 38.4024 52.0629 38.415 51.8193 38.415C51.2925 38.415 50.8 38.3658 50.3398 38.2666C49.8798 38.1674 49.4776 38.0175 49.1348 37.8154C48.7919 37.6133 48.5209 37.3573 48.3242 37.0469C48.1276 36.7365 48.0283 36.3648 48.0283 35.9336V29.3223H48.4648C48.7085 29.3223 48.8873 29.2801 49.001 29.1953C49.1145 29.1105 49.1709 28.9989 49.1709 28.8564C49.1709 28.8005 49.1615 28.7443 49.1416 28.6865H46.8008C46.5284 28.2914 46.3246 27.8526 46.1875 27.3691C46.0504 26.8856 45.9834 26.4037 45.9834 25.9238C45.9834 25.4168 46.0522 24.8787 46.1875 24.3086C46.3228 23.7405 46.5284 23.2444 46.8008 22.8223H48.0283C48.1402 22.0429 48.3528 21.3518 48.6631 20.751C48.9735 20.1501 49.3765 19.644 49.8691 19.2344C50.3617 18.8249 50.9429 18.518 51.6104 18.3105C52.2779 18.1049 53.0196 18 53.8369 18ZM40.9199 20.1113C41.4269 20.1113 41.8674 20.1745 42.2373 20.3008C42.609 20.4271 42.9157 20.606 43.1611 20.8369C43.4047 21.0679 43.5892 21.3427 43.7119 21.6621C43.8345 21.9813 43.8955 22.3329 43.8955 22.7188C43.8955 22.9353 43.8816 23.147 43.8545 23.3545H44.5723C44.8917 23.8255 45.1312 24.2767 45.29 24.708C45.4488 25.1411 45.5303 25.643 45.5303 26.2168C45.5302 26.7904 45.4506 27.2798 45.29 27.7109C45.1294 28.1438 44.8915 28.5805 44.5723 29.0225H43.1338C42.8615 29.0225 42.6848 29.0586 42.6055 29.1289C42.5261 29.1993 42.4863 29.3148 42.4863 29.4736C42.4863 29.5403 42.4958 29.5996 42.5156 29.6572H44.0098C44.2822 30.1282 44.4859 30.5795 44.623 31.0107C44.7584 31.4438 44.8271 31.9457 44.8271 32.5195C44.8271 33.0933 44.7475 33.5824 44.5869 34.0137C44.4263 34.4467 44.1876 34.8831 43.8682 35.3252H42.3311L42.0498 37.3848C41.6169 37.7419 41.1241 37.9957 40.5703 38.1455C40.0163 38.2953 39.4096 38.3711 38.751 38.3711C38.1303 38.3711 37.5854 38.2596 37.1162 38.0322C36.6454 37.8068 36.2792 37.4965 36.0176 37.1016L36.2002 35.96C36.4401 35.9594 36.6056 35.9241 36.6934 35.8545C36.7818 35.7841 36.8271 35.6647 36.8271 35.4951C36.8271 35.4392 36.8187 35.3829 36.7988 35.3252H35.5156L35.2344 37.3848C34.7273 37.7421 34.2142 37.9957 33.6963 38.1455C33.1784 38.2953 32.5922 38.3711 31.9336 38.3711C31.4825 38.3711 31.0616 38.3267 30.6719 38.2383C30.2822 38.1499 29.9463 38.0067 29.6631 37.8154C29.3818 37.6224 29.1597 37.3718 29.001 37.0615C28.8404 36.7512 28.7607 36.3757 28.7607 35.9336H28.8604C29.3295 35.9336 29.5663 35.7875 29.5664 35.4971C29.5664 35.4411 29.557 35.3849 29.5371 35.3271H27.9453C27.626 34.8851 27.3876 34.4486 27.2324 34.0156C27.0772 33.5844 27 33.0844 27 32.5215C27 31.9585 27.0773 31.4458 27.2324 31.0127C27.3876 30.5814 27.6241 30.1302 27.9453 29.6592H29.3135C29.5858 29.6592 29.7624 29.623 29.8418 29.5527C29.9212 29.4824 29.9609 29.3668 29.9609 29.208C29.9609 29.1432 29.9524 29.082 29.9326 29.0244H28.5645C28.292 28.5823 28.0897 28.145 27.958 27.7119C27.8264 27.2807 27.7617 26.7806 27.7617 26.2178C27.7618 25.6551 27.8391 25.1429 27.9941 24.71C28.1493 24.2787 28.3859 23.8274 28.707 23.3564H30.3564C30.8254 23.3564 31.0613 23.2102 31.0615 22.9199C31.0615 22.864 31.053 22.8077 31.0332 22.75H30.4697L30.7246 20.9873C31.026 20.8466 31.3093 20.7216 31.5781 20.6133C31.8452 20.505 32.1124 20.4128 32.374 20.3389C32.6374 20.2631 32.91 20.2068 33.1914 20.1689C33.4729 20.1311 33.7782 20.1133 34.1084 20.1133C34.6151 20.1133 35.0551 20.1766 35.4248 20.3027C35.7965 20.4291 36.1042 20.6079 36.3496 20.8389C36.593 21.0697 36.7767 21.344 36.8994 21.6631C37.0221 21.9824 37.084 22.3347 37.084 22.7207C37.084 22.9372 37.0691 23.1489 37.042 23.3564H37.8594C38.103 23.3564 38.2655 23.3181 38.3467 23.2441C38.426 23.1684 38.4657 23.0604 38.4658 22.9199C38.4658 22.864 38.4564 22.8077 38.4365 22.75H37.8867C37.8957 22.6941 37.9014 22.6345 37.9014 22.5732V22.4102C37.9013 22.1668 37.8559 21.929 37.7676 21.6982C37.6774 21.4673 37.5636 21.2449 37.4229 21.0283C37.9028 20.7558 38.4408 20.5358 39.0381 20.3662C39.6353 20.1966 40.2614 20.1113 40.9199 20.1113ZM100.535 31.2656C100.732 31.5579 100.904 31.8389 101.05 32.1113C101.196 32.3838 101.317 32.6604 101.416 32.9365C101.515 33.2144 101.589 33.5032 101.642 33.8027C101.694 34.104 101.719 34.4328 101.719 34.79C101.719 35.4756 101.62 36.0858 101.423 36.6162C101.226 37.1465 100.93 37.6857 100.535 38.2305H91.5547C91.1596 37.6857 90.8651 37.1484 90.6738 36.6162C90.4808 36.0858 90.3848 35.4774 90.3848 34.79C90.3848 34.4328 90.4082 34.104 90.4551 33.8027C90.502 33.5014 90.5746 33.2126 90.6738 32.9365C90.7731 32.6586 90.8939 32.3838 91.04 32.1113C91.1862 31.8389 91.3581 31.5579 91.5547 31.2656H100.535ZM267 26.2344L265.701 34.5283H261.175L259.897 26.2344V19.9326H267V26.2344ZM249.525 33.0557C250.24 33.0123 250.716 32.9255 251.084 32.8389L250.954 32.2324L249.525 33.0557ZM125.672 31.9434C125.456 31.9434 125.304 31.9982 125.214 32.1064C125.124 32.2146 125.08 32.3389 125.08 32.4795C125.08 32.6671 125.149 32.7992 125.284 32.875C125.419 32.9508 125.582 32.9863 125.771 32.9863C126.073 32.9863 126.302 32.9114 126.463 32.7617C126.622 32.6119 126.703 32.3385 126.703 31.9434H125.672ZM189.013 31.9434C188.796 31.9434 188.645 31.9982 188.555 32.1064C188.465 32.2147 188.421 32.3388 188.421 32.4795C188.421 32.6672 188.49 32.7992 188.625 32.875C188.76 32.9507 188.923 32.9863 189.112 32.9863C189.413 32.9863 189.642 32.9112 189.803 32.7617C189.962 32.6119 190.043 32.3385 190.043 31.9434H189.013ZM157.926 27.9971C157.841 27.9971 157.773 28.0121 157.723 28.0391C157.67 28.0679 157.625 28.1008 157.589 28.1387C157.598 28.2883 157.612 28.4308 157.63 28.5605C157.648 28.6921 157.663 28.8399 157.672 29.0039C157.681 29.1681 157.689 29.3619 157.7 29.582C157.709 29.8021 157.715 30.0695 157.715 30.3779V32.8447L157.717 32.8457C157.782 32.9125 157.881 32.9453 158.013 32.9453C158.191 32.9453 158.311 32.8914 158.372 32.7832C158.433 32.6749 158.464 32.4993 158.464 32.2539V30.2383C158.464 29.8163 158.457 29.4592 158.442 29.167C158.428 28.8765 158.398 28.6359 158.351 28.4482C158.304 28.2607 158.243 28.138 158.173 28.082C158.103 28.0263 158.019 27.9971 157.926 27.9971ZM226.398 31.7559H227.199V30.998H226.398V31.7559ZM230.491 31.7559H231.271V30.998H230.491V31.7559ZM35.8691 29.8994C35.8692 30.0598 35.9105 30.1644 35.9951 30.2168C36.0798 30.2691 36.201 30.2949 36.3613 30.2949H36.5586L36.7842 28.8291C36.7932 28.7822 36.8017 28.7259 36.8125 28.6592C36.8215 28.5944 36.8271 28.5474 36.8271 28.5186C36.8271 28.3493 36.7896 28.2374 36.7158 28.1797C36.64 28.1237 36.508 28.0947 36.3203 28.0947H36.1367L35.8691 29.8994ZM242.379 28.6162H248.269L245.194 30.2188H245.952L248.507 28.8975H251.712V28.248H242.379V28.6162ZM141.969 27.6152C141.875 27.6153 141.792 27.6458 141.722 27.707C141.651 27.7684 141.615 27.8786 141.615 28.0391V29.4912C141.7 29.558 141.795 29.5908 141.897 29.5908C142.103 29.5907 142.23 29.5275 142.277 29.4014C142.324 29.2751 142.348 29.075 142.348 28.8027V28.126L142.35 28.1221C142.35 27.9633 142.319 27.8383 142.258 27.748C142.196 27.6598 142.1 27.6152 141.969 27.6152ZM67.5889 28.0801C67.3255 28.0801 67.1161 28.1527 66.9609 28.2988C66.8058 28.445 66.7098 28.6402 66.6719 28.8838C66.7657 28.9397 66.8893 28.9936 67.0391 29.0459C67.1887 29.0981 67.367 29.123 67.5742 29.123C67.8088 29.123 67.9862 29.0748 68.1035 28.9756C68.2207 28.8764 68.2802 28.7483 68.2803 28.5879C68.2803 28.4002 68.2115 28.2682 68.0762 28.1924C67.939 28.1166 67.7783 28.0801 67.5889 28.0801ZM228.78 23.7012C228.412 24.0476 228.023 24.3727 227.611 24.6758H229.972C229.56 24.3726 229.148 24.0476 228.78 23.7012Z" fill="var(--fill-0, #0A0A0A)"/>
</g>
</svg>
