<svg width="31" height="32" viewBox="0 0 31 32" fill="none" xmlns="http://www.w3.org/2000/svg">
<path d="M21.7823 0C19.3051 0 17.0776 1.52444 15.4415 4.25791C13.7988 1.52444 11.5713 0 9.09405 0C3.82423 0 0 6.72854 0 16C0 25.2715 3.82423 32 9.09405 32C11.5713 32 13.7988 30.4756 15.4349 27.7421C17.071 30.4821 19.2986 32 21.7758 32C27.0456 32 30.8698 25.2715 30.8698 16C30.8698 6.72854 27.0522 0 21.7823 0Z" fill="#FAFAFA"/>
<path d="M9.09404 29.2468C12.5963 29.2468 15.4349 23.3133 15.4349 16C15.4349 8.68663 12.5963 2.75316 9.09404 2.75316C5.59178 2.75316 2.75317 8.68006 2.75317 16C2.75317 23.3199 5.59178 29.2468 9.09404 29.2468Z" fill="#FAFAFA"/>
<path d="M9.09409 30.6793C4.65877 30.6793 1.31421 24.3647 1.31421 15.9934C1.31421 7.62218 4.65877 1.31417 9.09409 1.31417C13.5294 1.31417 16.874 7.62875 16.874 16C16.874 24.3713 13.5294 30.6858 9.09409 30.6858V30.6793ZM9.09409 4.18563C8.01647 4.18563 6.82057 5.32895 5.90723 7.24764C4.79676 9.56058 4.19224 12.6686 4.19224 15.9934C4.19224 19.3183 4.80333 22.4263 5.90723 24.7392C6.82715 26.6579 8.01647 27.8012 9.09409 27.8012C10.1717 27.8012 11.3676 26.6579 12.2809 24.7392C13.3914 22.4263 13.9959 19.3183 13.9959 15.9934C13.9959 12.6686 13.3848 9.56058 12.2809 7.24764C11.361 5.32895 10.1717 4.18563 9.09409 4.18563Z" fill="#0A0A0A"/>
<path d="M5.90068 21.7692C7.66824 21.7692 9.10068 19.1868 9.10068 15.9934C9.10068 12.8 7.66824 10.2176 5.90068 10.2176C4.13313 10.2176 2.70068 12.8 2.70068 15.9934C2.70068 19.1868 4.13313 21.7692 5.90068 21.7692Z" fill="#0A0A0A"/>
<path d="M21.7823 29.2468C25.2845 29.2468 28.1231 23.3133 28.1231 16C28.1231 8.68661 25.2845 2.75314 21.7823 2.75314C18.28 2.75314 15.4414 8.68661 15.4414 16C15.4414 23.3133 18.28 29.2468 21.7823 29.2468Z" fill="#FAFAFA"/>
<path d="M21.7823 30.6792C17.347 30.6792 14.0024 24.3647 14.0024 15.9934C14.0024 7.62215 17.347 1.31415 21.7823 1.31415C26.2176 1.31415 29.5622 7.62873 29.5622 16C29.5622 24.3712 26.2176 30.6858 21.7823 30.6858V30.6792ZM21.7823 4.1856C20.7047 4.1856 19.5088 5.32893 18.5955 7.24762C17.485 9.56055 16.8805 12.6686 16.8805 15.9934C16.8805 19.3183 17.4916 22.4263 18.5955 24.7392C19.5154 26.6579 20.7047 27.8012 21.7823 27.8012C22.8599 27.8012 24.0558 26.6579 24.9692 24.7392C26.0796 22.4263 26.6842 19.3183 26.6842 15.9934C26.6842 12.6686 26.0731 9.56055 24.9692 7.24762C24.0493 5.32893 22.8599 4.1856 21.7823 4.1856Z" fill="#0A0A0A"/>
<path d="M18.6087 21.4144C20.3631 21.4144 21.7824 18.8517 21.7824 15.6846C21.7824 12.5174 20.3631 9.95482 18.6087 9.95482C16.8542 9.95482 15.4349 12.5174 15.4349 15.6846C15.4349 18.8517 16.8542 21.4144 18.6087 21.4144Z" fill="#0A0A0A"/>
</svg>
