<svg preserveAspectRatio="xMidYMid meet" width="215.929" height="35.5863" overflow="visible" style="display: block;" viewBox="0 0 215.929 35.5863" fill="none" xmlns="http://www.w3.org/2000/svg">
<g id="Group 8">
<path id="Vector" d="M0 35.0645L6.09205 0.529236H15.2338L21.0879 11.1664C22.8508 14.3642 24.6137 17.6068 26.2799 20.8046L26.3766 20.7599C26.8526 17.659 27.47 13.8871 28.0874 10.3613L29.7982 0.536686H39.2227L33.1306 35.072H23.9888L18.1348 24.4348C16.3719 21.237 14.609 17.9944 12.9428 14.7966L12.8461 14.8413C12.3701 17.9422 11.7527 21.7066 11.1353 25.2399L9.42446 35.0645H0Z" fill="var(--fill-0, white)"/>
<path id="Vector_2" d="M54.9847 0.521729H64.6472L72.3087 35.057H62.0735L60.7866 27.9979H49.3613L45.6495 35.057H35.3696L54.9847 0.521729ZM53.2218 20.7524H59.4552L59.1204 18.9858C58.7411 16.8837 58.265 14.0213 57.9303 11.6359H57.8336C56.7402 13.9244 55.312 16.7421 54.0698 19.1274L53.2144 20.7524H53.2218Z" fill="var(--fill-0, white)"/>
<path id="Vector_3" d="M96.5877 23.3764H92.2065L93.4934 16.1756H107.247L104.197 33.5364C101.2 34.826 97.2944 35.5863 93.6273 35.5863C83.9201 35.5863 76.3032 30.3833 76.3032 20.3201C76.3032 15.1171 78.3488 9.48919 82.492 5.48629C86.1591 1.953 91.1056 0 96.5803 0C101.058 0 105.008 1.28958 108.05 3.14567L106.481 12.1578C103.104 10.1079 99.578 8.7214 96.2009 8.7214C93.3 8.7214 90.7263 9.72027 88.9634 11.6807C87.1038 13.7306 86.107 16.8316 86.107 19.5971C86.107 24.2708 89.0601 27.2749 94.1554 27.2749C94.8248 27.2749 95.4869 27.178 95.9183 27.0811L96.5877 23.3614V23.3764Z" fill="var(--fill-0, white)"/>
<path id="Vector_4" d="M115.92 6.06026C119.349 2.24372 124.251 0 129.867 0C139.053 0 146.812 5.91118 146.812 15.9818C146.812 20.4618 145.287 25.5679 141.716 29.5261C138.287 33.3426 133.385 35.5863 127.769 35.5863C118.583 35.5863 110.825 29.6677 110.825 19.6045C110.825 15.1171 112.35 10.0184 115.92 6.06026ZM128.104 27.0513C130.722 27.0513 132.82 25.8586 134.196 24.1889C135.721 22.3775 136.859 19.5598 136.859 16.6527C136.859 12.2621 134.241 8.54251 129.525 8.54251C126.907 8.54251 124.816 9.73518 123.433 11.4049C121.908 13.2163 120.77 16.034 120.77 18.9411C120.77 23.3316 123.388 27.0513 128.097 27.0513H128.104Z" fill="var(--fill-0, white)"/>
<path id="Vector_5" d="M174.996 0.521729H186.369L170.086 19.3659L167.327 35.057H157.523L160.238 19.5076L150.479 0.521729H161.525L163.57 5.00916C164.522 7.11124 165.43 9.16114 166.33 11.3079H166.427C167.952 9.35495 169.714 7.11123 171.381 5.06133L174.996 0.52919V0.521729Z" fill="var(--fill-0, white)"/>
<path id="Vector_6" d="M198.605 0.521729H208.268L215.929 35.057H205.694L204.407 27.9979H192.982L189.27 35.057H178.99L198.605 0.521729ZM196.85 20.7524H203.083L202.748 18.9858C202.369 16.8837 201.893 14.0213 201.558 11.6359H201.462C200.368 13.9244 198.94 16.7421 197.698 19.1274L196.842 20.7524H196.85Z" fill="var(--fill-0, white)"/>
</g>
</svg>
