<svg preserveAspectRatio="none" width="100%" height="100%" overflow="visible" style="display: block;" viewBox="0 0 248 44" fill="none" xmlns="http://www.w3.org/2000/svg">
<g id="&#230;&#131;&#133;&#229;&#160;&#177;">
<path id="Union" d="M32.9873 6.80322C32.422 6.95127 31.1832 7.04507 29.8643 7.08545V7.65088H32.9873V11.1772H32.7178V16.2915H29.7031V11.1772H29.501C29.2856 13.721 28.4512 15.579 26.2305 16.3462V13.6538H23.2695C22.812 14.9996 21.8566 15.9287 20.457 16.3325V11.5542C20.6855 11.4195 20.7529 11.0832 20.7529 10.5991V7.26123H26.3789V11.2446C26.6076 11.0023 26.7285 10.5042 26.7285 9.11865V3.94971H27.3877C29.272 3.94971 31.951 3.92299 32.9873 3.65381V6.80322ZM10.8213 5.84717H11.2646V8.6333H19.5293V11.0161H15.249C15.2221 11.1102 15.1949 11.1913 15.168 11.272H19.4756V14.1118C19.4755 15.8208 18.8694 16.2788 17.4697 16.2788H16.4062V14.0171H16.7695C16.8637 14.0171 16.8779 13.9902 16.8779 13.896V13.7612H16.2988C16.245 14.8514 16.1377 15.9421 16.0166 16.2651H13.8623C14.0373 15.7941 14.2126 14.9864 14.3203 14.0981H14.0508C13.9566 14.946 13.7954 15.7672 13.5801 16.2651H11.4268C11.5748 16.0363 11.7365 15.6458 11.8711 15.2017C11.6154 15.3228 11.359 15.4166 11.0898 15.4839V15.0269C9.98628 15.6728 8.76136 16.0088 6.95801 16.103V12.5366C7.11951 12.5366 7.26776 12.523 7.40234 12.5229V9.17236H6.95801V5.84717H7.40234V3.76123H10.8213V5.84717ZM5.27637 6.9917H3.49902V13.0347H5.27637V16.2651H0V3.7749H5.27637V6.9917ZM40 16.2651H34.7246V13.0347H36.501V6.9917H34.7246V3.7749H40V16.2651ZM10.8213 11.5405C10.9961 11.4329 11.1436 11.2981 11.2646 11.1636V11.7827C11.6145 11.6751 11.8975 11.4063 12.0859 11.0161H11.1309V9.17236H10.8213V11.5405ZM23.3916 10.9214H23.8496V10.0063H23.3916V10.9214ZM19.2197 8.40479H11.4941V3.78857H19.2197V8.40479ZM26.4609 7.00537H20.458V3.86963H26.4609V7.00537ZM14.9531 6.93799H15.7607V6.50732H14.9531V6.93799ZM14.9531 5.61865H15.7607V5.18799H14.9531V5.61865Z" fill="var(--fill-0, #0A0A0A)"/>
<g id="Frame 12">
<path id="WINK AICHI" d="M125.45 4C129.242 4.00001 130.818 5.53404 130.818 8.31738V8.88477H126.742V8.72949C126.742 8.13307 126.345 7.83399 125.45 7.83398H124.996C123.874 7.83398 123.533 8.3172 123.533 9.24023V10.8447C123.533 11.8672 124.144 12.1943 125.053 12.1943H125.521C126.501 12.1942 126.813 11.7251 126.813 11.1855V10.873H130.847V11.4697C130.847 14.6364 129.284 15.9999 125.521 16H124.854C120.764 16 119.287 14.7357 119.287 10.8447V9.24023C119.287 5.47707 120.622 4.00001 124.797 4H125.45ZM71.9854 4.14258C74.0301 4.14265 74.8114 5.39177 75.209 6.54199L76.6289 10.6465C76.6572 10.8022 76.6856 10.8446 76.7705 10.8447C76.8273 10.8447 76.8847 10.8024 76.8848 10.6465V4.24121H80.8184V12.3506C80.8182 14.8355 79.5823 15.9287 77.5801 15.9287C75.7483 15.9286 74.7825 14.6789 74.1719 13.0459L72.8086 9.39648C72.7802 9.26879 72.7379 9.22565 72.6953 9.22559C72.6385 9.22559 72.6104 9.28333 72.6104 9.41113V15.8008H68.6904V7.64941C68.6906 5.32072 70.0683 4.14258 71.9854 4.14258ZM66.9863 15.8008H62.6123V4.21289H66.9863V15.8008ZM86.8818 8.43066H87.9756C88.7281 8.43055 89.2529 7.91953 89.2529 6.98242V4.21289H93.4854V7.52246C93.4852 8.48791 93.1159 9.31171 92.5195 9.96484C93.2863 10.6039 93.7549 11.541 93.7549 12.7764V15.8008H89.5088V13.4014C89.5088 12.521 89.0546 12.0518 88.1885 12.0518H86.8818V15.8008H82.6504V4.21289H86.8818V8.43066ZM106.421 4C110.17 4 111.164 5.20771 111.164 8.72949V15.8008H107.146V14.0547H104.334V15.8008H100.286V8.72949C100.286 5.20775 101.096 4.00003 104.845 4H106.421ZM117.597 15.8008H113.224V4.21289H117.597V15.8008ZM136.811 7.74902H139.48V4.21289H143.755V15.8008H139.48V11.5547H136.811V15.8008H132.551V4.21289H136.811V7.74902ZM150.33 15.8008H145.956V4.21289H150.33V15.8008ZM51.9482 10.7734C51.9482 11.6255 52.1611 11.9246 52.8711 11.9814V4.18457H56.0381V11.9814C56.7052 11.9388 56.9463 11.6963 56.9463 10.7734V4.18457H60.8662V10.9297C60.8662 14.2953 59.318 15.7871 55.8672 15.7871H52.8428C49.3778 15.7871 48 14.5083 48 10.9297V4.18457H51.9482V10.7734ZM105.086 7.77734C104.447 7.77742 104.334 7.99118 104.334 8.72949V10.3623H107.146V8.72949C107.146 7.99119 107.032 7.77742 106.379 7.77734H105.086Z" fill="var(--fill-0, #0A0A0A)"/>
<g id="Group 51">
<path id="Vector" d="M157.645 16C156.75 14.4591 156.33 12.6918 156.33 11.0108C156.33 9.32975 156.74 7.58406 157.634 6.04311H160.759C159.735 7.68104 159.283 9.3944 159.283 11.0108C159.283 12.3901 159.584 14.1358 160.759 16H157.645Z" fill="var(--fill-0, black)"/>
<path id="Vector_2" d="M166.61 15.7728H163.916V12.6909H166.653C168.636 12.6909 169.121 12.1737 169.121 10.4495V10.137H165.511V11.6995H162.343V6.95906H165.533V6.21552H169.046V6.95906H172.278V10.6013C172.278 13.7155 171.115 15.7737 166.61 15.7737V15.7728Z" fill="var(--fill-0, black)"/>
<path id="Vector_3" d="M182.161 9.49138C181.191 9.49138 180.695 9.65302 180.296 9.84699V15.9353H177.15V11.5927L176.762 11.8082C176.202 12.1207 175.232 12.4332 173.615 12.4332H173.034V9.27587H173.745C174.628 9.27587 174.887 9.125 175.544 8.78018L179.143 6.88363C179.898 6.48492 180.48 6.33406 181.536 6.33406H183.109V9.49138H182.161Z" fill="var(--fill-0, black)"/>
<path id="Vector_4" d="M193.237 10.6767C192.752 14.2435 190.727 15.7522 186.826 15.7522H183.852V12.7134H186.449C189.272 12.7134 189.811 11.8729 190.091 10.4504C190.608 7.87501 191.233 6.88363 193.712 6.59268V10.0517C193.388 10.1379 193.28 10.3642 193.237 10.6767ZM183.884 9.72846V6.72199H188.345V9.72846H183.884Z" fill="var(--fill-0, black)"/>
<path id="Vector_5" d="M197.789 15.806H194.998V12.7241H197.811C200.58 12.7241 201.119 11.6789 201.119 10.4289V9.54526H198.263C197.692 10.4073 196.539 11.5496 194.578 11.5496V8.34913C195.408 8.34913 196.108 7.5625 196.108 6.75431V6.51724H204.276V10.4289C204.276 13.1875 203.166 15.806 197.789 15.806Z" fill="var(--fill-0, black)"/>
<path id="Vector_6" d="M212.188 15.9452H211.142V14.0056C210.076 15.4819 208.696 15.9452 207.532 15.9452C205.927 15.9452 204.914 14.8569 204.914 12.8526C204.914 11.1176 206.078 10.137 207.382 9.99696V9.27498H205.151V6.56036H207.382V6.19398H210.313V6.56036H214.72V9.21122H210.313V9.97631H210.754L210.981 9.51295H213.427L213.222 10.1056C214.451 10.4073 215.151 11.3017 215.151 12.8535C215.151 14.9871 214.16 15.9461 212.188 15.9461V15.9452ZM208.136 12.347C207.834 12.347 207.673 12.4871 207.673 12.7134C207.673 12.875 207.78 13.0474 208.093 13.0474C208.405 13.0474 208.879 12.8642 209.267 12.347H208.136ZM211.994 12.347C211.843 12.7565 211.67 13.1121 211.487 13.4461H211.789C212.252 13.4461 212.489 13.2091 212.489 12.875C212.489 12.5948 212.317 12.4009 211.994 12.347Z" fill="var(--fill-0, black)"/>
<path id="Vector_7" d="M222.709 15.5366V9.73923C222.709 9.49139 222.634 9.44828 222.537 9.44828C222.451 9.44828 222.397 9.56682 222.375 9.6638L221.61 13.1875C221.222 14.9655 220.565 15.8599 218.798 15.8599C217.03 15.8599 215.877 14.8578 215.877 12.8966V6.70044H218.83V12.4655C218.83 12.7349 218.884 12.778 218.97 12.778C219.067 12.778 219.164 12.7349 219.229 12.4009L219.897 9.15733C220.252 7.45475 221.007 6.47415 222.763 6.47415C224.66 6.47415 225.705 7.7457 225.705 9.44828V15.5366H222.709Z" fill="var(--fill-0, black)"/>
<path id="Vector_8" d="M233.698 15.859H227.265V13.0465H232.664C232.965 13.0465 233.041 12.9172 233.041 12.734C233.041 12.4862 232.911 12.3892 232.664 12.3892H227.771V9.73833H226.532V6.90518H227.771V6.33406H230.972V6.90518H236.36V9.73923H230.972V10.2565H233.698C235.67 10.2565 236.457 11.5711 236.457 13.0474C236.457 14.7177 235.498 15.8599 233.698 15.8599V15.859Z" fill="var(--fill-0, black)"/>
<path id="Vector_9" d="M241.502 15.9677H238.421C239.563 14.0927 239.865 12.347 239.865 10.9784C239.865 9.32974 239.412 7.63793 238.421 6H241.502C242.418 7.55173 242.828 9.30819 242.828 10.9784C242.828 12.6487 242.418 14.4267 241.502 15.9677Z" fill="var(--fill-0, black)"/>
</g>
</g>
<path id="Union_2" d="M5.27637 30.9917H3.49902V37.0347H5.27637V40.2651H0V27.7749H5.27637V30.9917ZM30.9951 27.9907H32.7314V30.3726H30.9951V30.6821H32.9873V33.2935H32.3682V33.603H32.9873V36.604H32.3682V37.937C32.3681 39.6056 31.7352 40.2651 30.5645 40.2651H28.3438V36.9136H29.0303C29.1242 36.9134 29.1514 36.8465 29.1514 36.7524V36.604H25.5977V40.1841H20.5371V27.8159H25.5977V30.6821H27.5625V30.3726H25.8271V27.9907H27.5625V27.7349H30.9951V27.9907ZM40 40.2651H34.7246V37.0337H36.501V30.9917H34.7246V27.7749H40V40.2651ZM28.2236 40.1167H25.9893L25.6533 36.9136H27.874L28.2236 40.1167ZM19.2334 40.0903H7.26758V27.9507H19.2334V40.0903ZM22.8398 36.8062H23.2979V35.4468H22.8398V36.8062ZM11.0898 36.7925H15.4102V35.5542H11.0898V36.7925ZM25.5986 33.603H29.1523V33.2935H25.5986V33.603ZM11.0898 32.5396H15.4102V31.2749H11.0898V32.5396ZM22.8398 32.5132H23.2979V31.2075H22.8398V32.5132Z" fill="var(--fill-0, #0A0A0A)"/>
<path id="Union_3" d="M97.502 31.6875H91.3174C90.7645 31.6877 90.5801 32.0854 90.5801 32.4541V32.4961C90.9487 32.4536 91.3033 32.4395 91.6436 32.4395H93.9844C97.0056 32.4395 98.0273 34.0002 98.0273 35.915V36.3262C98.0273 38.2836 97.0766 40 93.9844 40H90.6934C87.7575 39.9999 86.339 38.4397 86.3389 36.1279V32.1133C86.3389 30.0566 87.5594 28.2266 90.2969 28.2266H97.502V31.6875ZM67.4609 28.085C71.1062 28.085 72.3114 29.1063 72.3115 33.0918V35.0215C72.3115 38.8369 71.1768 39.9287 67.3896 39.9287H65.8721C62.0851 39.9287 60.9649 38.8368 60.9648 35.0215V33.0918C60.9649 29.1063 62.1423 28.085 65.8301 28.085H67.4609ZM110.963 28.085C114.608 28.085 115.814 29.1063 115.814 33.0918V35.0215C115.814 38.8367 114.679 39.9286 110.893 39.9287H109.374C105.587 39.9286 104.467 38.8367 104.467 35.0215V33.0918C104.467 29.1063 105.644 28.085 109.332 28.085H110.963ZM141.474 28.085C145.119 28.085 146.324 29.1063 146.324 33.0918V35.0215C146.324 38.8369 145.189 39.9287 141.402 39.9287H139.885C136.098 39.9287 134.978 38.8368 134.978 35.0215V33.0918C134.978 29.1063 136.155 28.085 139.843 28.085H141.474ZM128.069 31.6875H121.289V32.043C121.289 32.1845 121.389 32.2412 121.545 32.2412H124.665C127.686 32.2412 128.552 33.4895 128.552 35.6172V36.2832C128.552 38.6945 127.502 39.7871 124.665 39.7871H117.119V36.0283H123.828C124.126 36.0283 124.211 35.9149 124.211 35.7021V35.6172C124.211 35.4044 124.098 35.291 123.828 35.291H118.594C117.516 35.2909 117.119 34.7653 117.119 33.7158V28.2266H128.069V31.6875ZM55.2764 28.2266C58.3686 28.2266 59.6025 29.617 59.6025 32V32.2549C59.6025 33.9996 58.6806 35.5605 55.2764 35.5605H52.3545V36.0996H59.3047V39.7734H48V32.6807H54.6807C55.0636 32.6807 55.2061 32.5248 55.2061 32.2979V32.2412C55.2061 32.0001 55.0211 31.8867 54.6807 31.8867H48V28.2266H55.2764ZM80.9346 28.2266C84.0268 28.2266 85.2607 29.617 85.2607 32V32.2549C85.2607 33.9996 84.3388 35.5605 80.9346 35.5605H78.0127V36.0996H84.9629V39.7734H73.6582V32.6807H80.3389C80.7218 32.6807 80.8643 32.5248 80.8643 32.2979V32.2412C80.8643 32.0001 80.6793 31.8867 80.3389 31.8867H73.6582V28.2266H80.9346ZM154.991 28C157.942 28 159.36 29.5747 159.36 31.8867V35.9004C159.36 37.9429 158.126 39.7733 155.389 39.7734H148.296V36.3262H154.381C154.92 36.3262 155.104 35.9289 155.104 35.5459V35.5176C154.75 35.5601 154.396 35.5889 154.041 35.5889H151.7C148.679 35.5888 147.658 34.0001 147.658 32.0996V31.6738C147.658 29.7306 148.608 28.0001 151.7 28H154.991ZM103.19 39.7158H99.0059V35.4756H103.19V39.7158ZM133.7 39.7158H129.517V35.4756H133.7V39.7158ZM91.0195 35.4463C90.6936 35.4464 90.5801 35.6741 90.5801 35.8584V35.9854C90.5801 36.2122 90.6936 36.4256 91.0195 36.4258H93.3457C93.7003 36.4258 93.7998 36.2127 93.7998 36.0566V35.8721C93.7997 35.5885 93.5868 35.4463 93.3457 35.4463H91.0195ZM65.8301 31.7871C65.1209 31.7871 64.8087 32.085 64.8086 33.0918V35.0215C64.8086 35.9574 65.0638 36.2129 65.8721 36.2129H67.3896C68.0846 36.2129 68.4394 35.8015 68.4395 35.0215V33.0918C68.4394 32.0708 68.0566 31.7871 67.4609 31.7871H65.8301ZM109.332 31.7871C108.623 31.7871 108.311 32.085 108.311 33.0918V35.0215C108.311 35.9573 108.566 36.2128 109.374 36.2129H110.893C111.587 36.2127 111.941 35.8013 111.941 35.0215V33.0918C111.941 32.0708 111.559 31.7871 110.963 31.7871H109.332ZM139.843 31.7871C139.134 31.7871 138.821 32.085 138.821 33.0918V35.0215C138.821 35.9574 139.076 36.2129 139.885 36.2129H141.402C142.097 36.2129 142.452 35.8015 142.452 35.0215V33.0918C142.452 32.0709 142.069 31.7871 141.474 31.7871H139.843ZM152.324 31.5889C151.984 31.589 151.885 31.787 151.885 31.957V32.1133C151.885 32.4394 152.097 32.5526 152.324 32.5527H154.665C154.991 32.5527 155.104 32.3402 155.104 32.1416V32.0283C155.104 31.7872 154.991 31.5889 154.665 31.5889H152.324Z" fill="var(--fill-0, #0A0A0A)"/>
</g>
</svg>
