<svg preserveAspectRatio="xMidYMid meet" width="318.192" height="35.5863" overflow="visible" style="display: block;" viewBox="0 0 318.192 35.5863" fill="none" xmlns="http://www.w3.org/2000/svg">
<g id="Group 7">
<path id="Vector" d="M26.0865 34.1104C23.4235 35.2062 20.2325 35.5863 17.6141 35.5863C7.52022 35.5863 0 30.0553 0 20.1785C0 14.886 2.18689 9.30283 6.09205 5.48629C9.66248 2.00518 14.5644 0 20.2771 0C24.2269 0 27.894 0.954138 30.795 2.48225L29.2255 11.5018C26.2278 9.78735 22.8433 8.73631 19.8977 8.73631C16.9521 8.73631 14.5198 9.78735 12.8015 11.5018C10.8006 13.507 9.80381 16.511 9.80381 19.1796C9.80381 24.2336 13.3742 26.8575 18.5142 26.8575C21.3705 26.8575 24.9856 26.0449 27.7527 24.6137L26.0865 34.1029V34.1104Z" fill="var(--fill-0, white)"/>
<path id="Vector_2" d="M37.2291 6.06026C40.6582 2.24371 45.5601 0 51.1761 0C60.3625 0 68.1208 5.91118 68.1208 15.9818C68.1208 20.4618 66.5959 25.5679 63.0255 29.5261C59.5964 33.3426 54.6945 35.5863 49.0785 35.5863C39.892 35.5863 32.1338 29.6677 32.1338 19.6045C32.1338 15.1171 33.6587 10.0184 37.2291 6.06026ZM49.4132 27.0513C52.0315 27.0513 54.1292 25.8586 55.5053 24.1889C57.0301 22.3775 58.1682 19.5598 58.1682 16.6527C58.1682 12.2621 55.5499 8.5425 50.8339 8.5425C48.2156 8.5425 46.1254 9.73518 44.7419 11.4049C43.217 13.2163 42.0789 16.034 42.0789 18.9411C42.0789 23.3316 44.6973 27.0513 49.4058 27.0513H49.4132Z" fill="var(--fill-0, white)"/>
<path id="Vector_3" d="M69.2217 35.0645L75.3137 0.529236H84.4555L90.3095 11.1664C92.0724 14.3642 93.8354 17.6068 95.5016 20.8046L95.5983 20.7599C96.0743 17.659 96.6917 13.8872 97.3091 10.3613L99.0199 0.536692H108.444L102.352 35.072H93.2105L87.3565 24.4348C85.5936 21.237 83.8307 17.9944 82.1645 14.7966L82.0678 14.8413C81.5917 17.9422 80.9744 21.7066 80.357 25.2399L78.6461 35.0645H69.2217Z" fill="var(--fill-0, white)"/>
<path id="Vector_4" d="M113.822 0.52179H136.294L134.821 8.82576H122.161L121.253 13.8797H132.061L130.678 21.7066H119.87L117.534 35.0645H107.73L113.822 0.529245V0.52179Z" fill="var(--fill-0, white)"/>
<path id="Vector_5" d="M140.772 0.52179H162.767L161.294 8.82576H149.11L148.351 13.2163H158.587L157.203 21.0432H146.968L145.971 26.768H158.728L157.255 35.0645H134.695L140.787 0.529245L140.772 0.52179Z" fill="var(--fill-0, white)"/>
<path id="Vector_6" d="M167.431 0.52179H178.239C182.568 0.52179 185.662 1.09576 188.043 2.62387C190.52 4.19671 192.045 6.67895 192.045 9.97371C192.045 11.8373 191.569 14.409 189.806 16.7496C188.474 18.5162 186.57 19.9474 184.286 20.7599L190.996 35.072H180.143L174.81 21.9526H173.426L171.143 35.072H161.339L167.431 0.536701V0.52179ZM177.428 15.214C178.901 15.214 180.143 14.8338 180.999 14.1182C181.616 13.5964 182.233 12.7318 182.233 11.3006C182.233 10.2048 181.854 9.48918 181.14 9.01211C180.381 8.49032 179.332 8.34124 178.001 8.34124H175.859L174.668 15.214H177.428Z" fill="var(--fill-0, white)"/>
<path id="Vector_7" d="M198.895 0.52179H220.891L219.418 8.82576H207.234L206.475 13.2163H216.71L215.327 21.0432H205.091L204.095 26.768H216.852L215.379 35.0645H192.818L198.91 0.529245L198.895 0.52179Z" fill="var(--fill-0, white)"/>
<path id="Vector_8" d="M219.462 35.0645L225.554 0.529236H234.696L240.55 11.1664C242.313 14.3642 244.076 17.6068 245.742 20.8046L245.839 20.7599C246.315 17.659 246.932 13.8872 247.55 10.3613L249.261 0.536692H258.685L252.593 35.072H243.451L237.597 24.4348C235.834 21.237 234.071 17.9944 232.405 14.7966L232.309 14.8413C231.832 17.9422 231.215 21.7066 230.598 25.2399L228.887 35.0645H219.462Z" fill="var(--fill-0, white)"/>
<path id="Vector_9" d="M285.873 34.1104C283.21 35.2062 280.019 35.5863 277.4 35.5863C267.306 35.5863 259.786 30.0553 259.786 20.1785C259.786 14.886 261.973 9.30283 265.878 5.48629C269.449 2.00518 274.351 0 280.063 0C284.013 0 287.68 0.954138 290.581 2.48225L289.012 11.5018C286.014 9.78735 282.629 8.73631 279.684 8.73631C276.738 8.73631 274.306 9.78735 272.588 11.5018C270.587 13.507 269.59 16.511 269.59 19.1796C269.59 24.2336 273.16 26.8575 278.3 26.8575C281.157 26.8575 284.772 26.0449 287.539 24.6137L285.873 34.1029V34.1104Z" fill="var(--fill-0, white)"/>
<path id="Vector_10" d="M296.197 0.52179H318.192L316.719 8.82576H304.535L303.777 13.2163H314.012L312.628 21.0432H302.393L301.396 26.768H314.153L312.68 35.0645H290.12L296.212 0.529245L296.197 0.52179Z" fill="var(--fill-0, white)"/>
</g>
</svg>
