<svg overflow="visible" style="display: block;" viewBox="0 0 336.592 48" fill="none" xmlns="http://www.w3.org/2000/svg">
<g id="Info">
<path id="Union" d="M39.584 6.16406C38.9055 6.34163 37.4201 6.45448 35.8379 6.50293V7.18164H39.584V11.4131H39.2617V17.5508H35.6436V11.4131H35.4014C35.1429 14.4655 34.1414 16.6946 31.4766 17.6152V14.3848H27.9238C27.3747 15.9999 26.2275 17.1141 24.5479 17.5986V11.8652C24.8224 11.7038 24.9033 11.3 24.9033 10.7188V6.71289H31.6543V11.4941C31.9289 11.2034 32.0742 10.605 32.0742 8.94141V2.74023H32.8652C35.1261 2.74023 38.34 2.70767 39.584 2.38477V6.16406ZM12.9854 5.0166H13.5186V8.36035H23.4346V11.2188H18.2988C18.2666 11.3316 18.2344 11.4287 18.2021 11.5254H23.3701V14.9336C23.3701 16.9847 22.6434 17.5341 20.9639 17.5342H19.6875V14.8203H20.124C20.2368 14.8203 20.2529 14.7884 20.2529 14.6758V14.5137H19.5586C19.494 15.8214 19.365 17.1294 19.2197 17.5176H16.6357C16.8456 16.9523 17.0554 15.9835 17.1846 14.918H16.8613C16.7483 15.9352 16.5542 16.92 16.2959 17.5176H13.7119C13.8895 17.243 14.0837 16.775 14.2451 16.2422C13.9384 16.3875 13.6315 16.5003 13.3086 16.5811V16.0322C11.9842 16.8075 10.5138 17.2112 8.34961 17.3242V13.0439C8.54341 13.0439 8.72131 13.0283 8.88281 13.0283V9.00586H8.34961V5.0166H8.88281V2.51367H12.9854V5.0166ZM6.33105 6.38965H4.19922V13.6416H6.33105V17.5176H0V2.5293H6.33105V6.38965ZM48 17.5176H41.6689V13.6416H43.8008V6.38965H41.6689V2.5293H48V17.5176ZM12.9854 11.8486C13.1952 11.7195 13.3733 11.5579 13.5186 11.3965V12.1396C13.9383 12.0104 14.2769 11.687 14.5029 11.2188H13.3564V9.00586H12.9854V11.8486ZM28.0703 11.1064H28.6191V10.0078H28.0703V11.1064ZM23.0635 8.08594H13.793V2.5459H23.0635V8.08594ZM31.7529 6.40625H24.5488V2.64258H31.7529V6.40625ZM17.9434 6.3252H18.9121V5.80859H17.9434V6.3252ZM17.9434 4.74219H18.9121V4.22559H17.9434V4.74219Z" fill="var(--fill-0, #0A0A0A)"/>
<g id="Location Info">
<path id="WINK AICHI" d="M172.175 2C177.862 2 180.226 4.30071 180.227 8.47559V9.32812H174.113V9.09375C174.113 8.1991 173.517 7.75195 172.175 7.75195H171.493C169.81 7.75199 169.299 8.47584 169.299 9.86035V12.2676C169.299 13.801 170.215 14.2909 171.578 14.291H172.281C173.751 14.291 174.22 13.5878 174.22 12.7783V12.3096H180.27V13.2051C180.269 17.9549 177.926 20 172.281 20H171.28C165.146 20 162.931 18.104 162.931 12.2676V9.86035C162.931 4.21558 164.933 2 171.195 2H172.175ZM91.9775 2.21289C95.0449 2.21289 96.217 4.08809 96.8135 5.81348L98.9434 11.9688C98.986 12.2031 99.0284 12.2676 99.1562 12.2676C99.2414 12.2676 99.3262 12.203 99.3262 11.9688V2.3623H105.228V14.5254C105.228 18.2531 103.374 19.8936 100.37 19.8936C97.6225 19.8934 96.1737 18.0188 95.2578 15.5693L93.2129 10.0947C93.1703 9.90327 93.1068 9.839 93.043 9.83887C92.9578 9.83887 92.915 9.9245 92.915 10.1162V19.7012H87.0361V7.47461C87.0362 3.98135 89.102 2.21296 91.9775 2.21289ZM84.4795 19.7012H77.9189V2.32031H84.4795V19.7012ZM114.322 8.64648H115.963C117.092 8.64648 117.88 7.87949 117.88 6.47363V2.32031H124.228V7.2832C124.227 8.73161 123.674 9.96745 122.779 10.9473C123.929 11.9057 124.633 13.3112 124.633 15.1641V19.7012H118.264V16.1016C118.264 14.781 117.582 14.0781 116.282 14.0781H114.322V19.7012H107.975V2.32031H114.322V8.64648ZM143.632 2C149.255 2.00006 150.746 3.81116 150.746 9.09375V19.7012H144.718V17.0811H140.5V19.7012H134.43V9.09375C134.43 3.81107 135.644 2 141.268 2H143.632ZM160.396 19.7012H153.835V2.32031H160.396V19.7012ZM189.216 7.62402H193.221V2.32031H199.632V19.7012H193.221V13.333H189.216V19.7012H182.825V2.32031H189.216V7.62402ZM209.495 19.7012H202.934V2.32031H209.495V19.7012ZM61.9219 12.1611C61.9219 13.439 62.2417 13.8865 63.3066 13.9717V2.27734H68.0566V13.9717C69.0576 13.9078 69.4199 13.5454 69.4199 12.1611V2.27734H75.2988V12.3955C75.2987 17.4436 72.9769 19.6797 67.8008 19.6797H63.2637C58.0663 19.6797 56.0001 17.7631 56 12.3955V2.27734H61.9219V12.1611ZM141.629 7.66602C140.671 7.66609 140.5 7.98622 140.5 9.09375V11.543H144.718V9.09375C144.718 7.98609 144.547 7.66602 143.567 7.66602H141.629Z" fill="var(--fill-0, #0A0A0A)"/>
<g id="Date Info">
<path id="Vector" d="M217.336 20C216.083 17.8427 215.495 15.3686 215.495 13.0151C215.495 10.6617 216.068 8.21769 217.321 6.06037H221.696C220.262 8.35347 219.629 10.7522 219.629 13.0151C219.629 14.9461 220.051 17.3901 221.696 20H217.336Z" fill="var(--fill-0, black)"/>
<path id="Vector_2" d="M229.887 19.6819H226.116V15.3672H229.948C232.724 15.3672 233.402 14.6431 233.402 12.2293V11.7918H228.349V13.9793H223.913V7.34264H228.379V6.30169H233.297V7.34264H237.823V12.4418C237.823 16.8017 236.193 19.6832 229.887 19.6832V19.6819Z" fill="var(--fill-0, black)"/>
<path id="Vector_3" d="M251.658 10.8879C250.3 10.8879 249.606 11.1142 249.048 11.3858V19.9095H244.643V13.8297L244.1 14.1315C243.315 14.569 241.958 15.0065 239.695 15.0065H238.88V10.5862H239.876C241.113 10.5862 241.475 10.375 242.395 9.89223L247.434 7.23706C248.49 6.67887 249.305 6.46766 250.783 6.46766H252.986V10.8879H251.658Z" fill="var(--fill-0, black)"/>
<path id="Vector_4" d="M267.165 12.5474C266.487 17.5409 263.65 19.653 258.189 19.653H254.025V15.3987H257.661C261.614 15.3987 262.368 14.222 262.76 12.2306C263.484 8.625 264.359 7.23707 267.829 6.82974V11.6724C267.377 11.7931 267.226 12.1099 267.165 12.5474ZM254.071 11.2198V7.01077H260.316V11.2198H254.071Z" fill="var(--fill-0, black)"/>
<path id="Vector_5" d="M273.538 19.7284H269.631V15.4138H273.568C277.445 15.4138 278.2 13.9504 278.2 12.2004V10.9634H274.202C273.402 12.1703 271.788 13.7694 269.042 13.7694V9.2888C270.204 9.2888 271.185 8.1875 271.185 7.05604V6.72414H282.62V12.2004C282.62 16.0625 281.066 19.7284 273.538 19.7284Z" fill="var(--fill-0, black)"/>
<path id="Vector_6" d="M293.696 19.9233H292.232V17.2078C290.739 19.2746 288.808 19.9233 287.179 19.9233C284.931 19.9233 283.513 18.3996 283.513 15.5936C283.513 13.1647 285.142 11.7918 286.967 11.5957V10.585H283.844V6.78449H286.967V6.27156H291.071V6.78449H297.241V10.4957H291.071V11.5668H291.689L292.006 10.9181H295.431L295.144 11.7478C296.864 12.1703 297.844 13.4224 297.844 15.5948C297.844 18.5819 296.457 19.9246 293.696 19.9246V19.9233ZM288.023 14.8858C287.601 14.8858 287.375 15.0819 287.375 15.3987C287.375 15.625 287.526 15.8664 287.963 15.8664C288.401 15.8664 289.064 15.6099 289.607 14.8858H288.023ZM293.424 14.8858C293.213 15.4591 292.972 15.9569 292.715 16.4246H293.138C293.786 16.4246 294.118 16.0927 294.118 15.625C294.118 15.2328 293.877 14.9612 293.424 14.8858Z" fill="var(--fill-0, black)"/>
<path id="Vector_7" d="M308.426 19.3513V11.2349C308.426 10.8879 308.321 10.8276 308.185 10.8276C308.064 10.8276 307.989 10.9935 307.958 11.1293L306.887 16.0625C306.344 18.5517 305.424 19.8039 302.95 19.8039C300.476 19.8039 298.862 18.4008 298.862 15.6552V6.9806H302.995V15.0517C302.995 15.4289 303.071 15.4892 303.191 15.4892C303.327 15.4892 303.463 15.4289 303.553 14.9612L304.489 10.4202C304.987 8.03663 306.043 6.66379 308.502 6.66379C311.157 6.66379 312.62 8.44396 312.62 10.8276V19.3513H308.426Z" fill="var(--fill-0, black)"/>
<path id="Vector_8" d="M323.81 19.8026H314.804V15.8651H322.362C322.784 15.8651 322.89 15.6841 322.89 15.4276C322.89 15.0806 322.709 14.9449 322.362 14.9449H315.513V11.2336H313.778V7.26723H315.513V6.46766H319.994V7.26723H327.537V11.2349H319.994V11.959H323.81C326.571 11.959 327.672 13.7996 327.672 15.8664C327.672 18.2047 326.33 19.8039 323.81 19.8039V19.8026Z" fill="var(--fill-0, black)"/>
<path id="Vector_9" d="M334.737 19.9547H330.422C332.021 17.3297 332.443 14.8858 332.443 12.9698C332.443 10.6616 331.81 8.2931 330.422 5.99999H334.737C336.019 8.17241 336.592 10.6315 336.592 12.9698C336.592 15.3082 336.019 17.7974 334.737 19.9547Z" fill="var(--fill-0, black)"/>
</g>
</g>
<path id="Union_2" d="M6.33105 34.3906H4.19922V41.6416H6.33105V45.5176H0V30.5303H6.33105V34.3906ZM37.1943 30.7891H39.2773V33.6475H37.1943V34.0186H39.584V37.1523H38.8418V37.5234H39.584V41.125H38.8418V42.7236C38.8418 44.7262 38.0819 45.5176 36.6768 45.5176H34.0127V41.4961H34.8359C34.949 41.4961 34.9814 41.4157 34.9814 41.3027V41.125H30.7178V45.4209H24.6445V30.5791H30.7178V34.0186H33.0752V33.6475H30.9922V30.7891H33.0752V30.4824H37.1943V30.7891ZM48 45.5176H41.6689V41.6406H43.8008V34.3906H41.6689V30.5303H48V45.5176ZM33.8682 45.3398H31.1875L30.7832 41.4961H33.4482L33.8682 45.3398ZM23.0791 45.3076H8.72168V30.7402H23.0791V45.3076ZM27.4082 41.3672H27.957V39.7363H27.4082V41.3672ZM13.3086 41.3516H18.4932V39.8652H13.3086V41.3516ZM30.7188 37.5234H34.9824V37.1523H30.7188V37.5234ZM13.3086 36.248H18.4932V34.7295H13.3086V36.248ZM27.4082 36.2158H27.957V34.6484H27.4082V36.2158Z" fill="var(--fill-0, #0A0A0A)"/>
<path id="Union_3" d="M130.253 34.5322H120.977C120.147 34.5323 119.87 35.1276 119.87 35.6807V35.7451C120.423 35.6813 120.955 35.6592 121.466 35.6592H124.977C129.508 35.6592 131.04 37.9999 131.04 40.8721V41.4893C131.04 44.4254 129.615 47 124.977 47H120.041C115.637 47 113.509 44.6595 113.509 41.1914V35.1699C113.509 32.0851 115.338 29.341 119.444 29.3408H130.253V34.5322ZM85.1914 29.1279C90.6595 29.1279 92.4678 30.66 92.4678 36.6387V39.5322C92.4677 45.2553 90.7657 46.8936 85.085 46.8936H82.8086C77.1279 46.8936 75.4464 45.2553 75.4463 39.5322V36.6387C75.4463 30.6601 77.2126 29.128 82.7441 29.1279H85.1914ZM150.444 29.1279C155.912 29.1279 157.722 30.66 157.722 36.6387V39.5322C157.722 45.2553 156.019 46.8936 150.338 46.8936H148.062C142.381 46.8935 140.7 45.2553 140.7 39.5322V36.6387C140.7 30.66 142.466 29.1279 147.998 29.1279H150.444ZM196.211 29.1279C201.679 29.128 203.487 30.6601 203.487 36.6387V39.5322C203.487 45.2552 201.785 46.8935 196.104 46.8936H193.827C188.147 46.8935 186.466 45.2552 186.466 39.5322V36.6387C186.466 30.66 188.232 29.1279 193.764 29.1279H196.211ZM176.104 34.5322H165.934V35.0635C165.934 35.2762 166.083 35.3613 166.317 35.3613H170.998C175.53 35.3614 176.827 37.2344 176.827 40.4258V41.4258C176.827 45.0425 175.253 46.6806 170.998 46.6807H159.679V41.043H169.742C170.189 41.043 170.317 40.8719 170.317 40.5527V40.4258C170.317 40.1066 170.146 39.9365 169.742 39.9365H161.892C160.275 39.9365 159.679 39.1487 159.679 37.5742V29.3408H176.104V34.5322ZM66.915 29.3408C71.5532 29.3409 73.4043 31.4256 73.4043 35V35.3828C73.4043 37.9998 72.0213 40.3408 66.915 40.3408H62.5322V41.1494H72.957V46.6592H56V36.0215H66.0215C66.5955 36.0214 66.8084 35.7874 66.8086 35.4473V35.3613C66.8084 35 66.5318 34.8301 66.0215 34.8301H56V29.3408H66.915ZM105.402 29.3408C110.041 29.3408 111.892 31.4256 111.892 35V35.3828C111.892 37.9998 110.509 40.3408 105.402 40.3408H101.02V41.1494H111.445V46.6592H94.4873V36.0215H104.509C105.083 36.0215 105.296 35.7874 105.296 35.4473V35.3613C105.296 34.9999 105.019 34.8301 104.509 34.8301H94.4873V29.3408H105.402ZM216.487 29C220.913 29.0001 223.04 31.3621 223.04 34.8301V40.8506C223.04 43.9143 221.189 46.6591 217.083 46.6592H206.444V41.4893H215.572C216.381 41.4892 216.657 40.8937 216.657 40.3193V40.2764C216.125 40.3402 215.593 40.3828 215.062 40.3828H211.551C207.019 40.3828 205.487 37.9995 205.487 35.1484V34.5107C205.487 31.5959 206.913 29 211.551 29H216.487ZM138.785 46.5742H132.509V40.2129H138.785V46.5742ZM184.551 46.5742H178.274V40.2129H184.551V46.5742ZM120.53 40.1699C120.041 40.1699 119.87 40.5105 119.87 40.7871V40.9785C119.87 41.3189 120.041 41.6387 120.53 41.6387H124.02C124.551 41.6386 124.7 41.319 124.7 41.085V40.8086C124.7 40.3832 124.381 40.17 124.02 40.1699H120.53ZM82.7441 34.6807C81.6806 34.6808 81.2129 35.1282 81.2129 36.6387V39.5322C81.213 40.9362 81.5959 41.3193 82.8086 41.3193H85.085C86.1274 41.3193 86.6591 40.7022 86.6592 39.5322V36.6387C86.6592 35.1068 86.085 34.6807 85.1914 34.6807H82.7441ZM147.998 34.6807C146.934 34.6807 146.466 35.128 146.466 36.6387V39.5322C146.466 40.9361 146.849 41.3193 148.062 41.3193H150.338C151.38 41.3193 151.913 40.7022 151.913 39.5322V36.6387C151.913 35.1068 151.338 34.6807 150.444 34.6807H147.998ZM193.764 34.6807C192.7 34.6807 192.231 35.1281 192.231 36.6387V39.5322C192.232 40.9361 192.615 41.3193 193.827 41.3193H196.104C197.147 41.3192 197.679 40.7021 197.679 39.5322V36.6387C197.679 35.107 197.104 34.6808 196.211 34.6807H193.764ZM212.487 34.3828C211.977 34.3828 211.827 34.6812 211.827 34.9365V35.1699C211.827 35.6593 212.147 35.8301 212.487 35.8301H215.998C216.487 35.8299 216.657 35.5106 216.657 35.2129V35.043C216.657 34.6814 216.487 34.383 215.998 34.3828H212.487Z" fill="var(--fill-0, #0A0A0A)"/>
</g>
</svg>
