<svg preserveAspectRatio="xMidYMid meet" width="268.593" height="35.5863" overflow="visible" style="display: block;" viewBox="0 0 268.593 35.5863" fill="none" xmlns="http://www.w3.org/2000/svg">
<g id="Group 6">
<path id="Vector" d="M6.09205 0.52179H28.5635L27.0906 8.82576H14.4305L13.523 13.8797H24.331L22.9475 21.7066H12.1395L9.80381 35.0645H0L6.09205 0.52179Z" fill="var(--fill-0, white)"/>
<path id="Vector_2" d="M33.0413 0.52179H43.8493C48.1784 0.52179 51.2728 1.09576 53.6531 2.62387C56.1301 4.19671 57.6549 6.67895 57.6549 9.97371C57.6549 11.8373 57.1789 14.4089 55.416 16.7496C54.0845 18.5162 52.1803 19.9474 49.8967 20.7599L56.6061 35.072H45.7535L40.4202 21.9526H39.0366L36.753 35.072H26.9492L33.0413 0.52179ZM43.031 15.214C44.5038 15.214 45.7461 14.8338 46.6015 14.1182C47.2189 13.5964 47.8363 12.7318 47.8363 11.3006C47.8363 10.2048 47.4569 9.48918 46.7428 9.01211C45.9841 8.49032 44.9353 8.34124 43.6038 8.34124H41.4615L40.2714 15.214H43.031Z" fill="var(--fill-0, white)"/>
<path id="Vector_3" d="M65.3167 6.06026C68.7458 2.24371 73.6478 0 79.2637 0C88.4502 0 96.2084 5.91117 96.2084 15.9818C96.2084 20.4618 94.6836 25.5679 91.1131 29.5261C87.684 33.3426 82.7821 35.5863 77.1661 35.5863C67.9797 35.5863 60.2214 29.6677 60.2214 19.6045C60.2214 15.1171 61.7463 10.0184 65.3167 6.06026ZM77.5009 27.0513C80.1192 27.0513 82.2168 25.8586 83.5929 24.1889C85.1178 22.3775 86.2558 19.5598 86.2558 16.6527C86.2558 12.2621 83.6375 8.5425 78.9216 8.5425C76.3033 8.5425 74.2131 9.73517 72.8295 11.4049C71.3047 13.2163 70.1666 16.034 70.1666 18.9411C70.1666 23.3316 72.7849 27.0513 77.4934 27.0513H77.5009Z" fill="var(--fill-0, white)"/>
<path id="Vector_4" d="M97.3018 35.0645L103.401 0.52179H112.543L118.397 11.1589C120.16 14.3568 121.923 17.5993 123.589 20.7972L123.686 20.7525C124.162 17.6515 124.779 13.8797 125.397 10.3539L127.107 0.529244H136.532L130.44 35.0645H121.298L115.444 24.4274C113.681 21.2295 111.918 17.987 110.252 14.7891L110.155 14.8338C109.679 17.9348 109.062 21.6992 108.444 25.2324L106.734 35.0571H97.3092L97.3018 35.0645Z" fill="var(--fill-0, white)"/>
<path id="Vector_5" d="M149.289 8.82576H138.481L139.954 0.52179H171.373L169.901 8.82576H159.093L154.473 35.0645H144.669L149.289 8.82576Z" fill="var(--fill-0, white)"/>
<path id="Vector_6" d="M174.803 0.52179H196.798L195.325 8.82576H183.141L182.382 13.2163H192.617L191.234 21.0432H180.999L180.002 26.768H192.759L191.286 35.0645H168.725L174.803 0.52179Z" fill="var(--fill-0, white)"/>
<path id="Vector_7" d="M195.37 35.0645L201.462 0.52179H210.603L216.458 11.1589C218.22 14.3568 219.983 17.5993 221.65 20.7972L221.746 20.7525C222.222 17.6515 222.84 13.8797 223.457 10.3539L225.168 0.529244H234.592L228.5 35.0645H219.358L213.504 24.4274C211.742 21.2295 209.979 17.987 208.312 14.7891L208.216 14.8338C207.74 17.9348 207.122 21.6992 206.505 25.2324L204.794 35.0571H195.37V35.0645Z" fill="var(--fill-0, white)"/>
<path id="Vector_8" d="M239.978 0.52179H248.978C255.025 0.52179 259.31 1.61756 262.308 3.57801C266.064 6.00808 268.593 10.3017 268.593 15.9818C268.593 21.3264 266.354 26.9991 261.497 30.7187C257.926 33.4842 253.069 35.0571 246.88 35.0571H233.885L239.978 0.52179ZM247.736 26.7606C251.448 26.7606 254.066 25.7617 255.873 23.9429C257.874 21.9899 258.774 19.2244 258.774 16.5483C258.774 14.0661 257.964 11.7329 255.68 10.3017C254.111 9.34756 252.013 8.87049 249.209 8.87049H248.301L245.162 26.7606H247.736Z" fill="var(--fill-0, white)"/>
</g>
</svg>
