<svg preserveAspectRatio="none" width="100%" height="100%" overflow="visible" style="display: block;" viewBox="0 0 151.377 38.6852" fill="none" xmlns="http://www.w3.org/2000/svg">
<g id="Title Container">
<path id="Vector" d="M16.7996 30.6935C16.6006 31.2004 16.3279 31.6378 15.9862 31.9779C15.6283 32.3294 15.2797 32.6256 14.8851 32.857C14.5343 33.0816 14.1766 33.2623 13.8329 33.36C13.4892 33.4577 13.1664 33.5163 12.8528 33.5195C12.5553 33.5112 12.2557 33.4314 12.0092 33.2895C11.7626 33.1476 11.5301 32.9226 11.3391 32.6194L10.3038 30.9897L10.8923 30.6207C11.0054 30.5404 11.1023 30.4716 11.1669 30.4257C11.2316 30.3798 11.257 30.313 11.2663 30.2577C11.2756 30.2023 11.2688 30.1584 11.2504 30.0983C11.2159 30.0497 11.1814 30.0011 11.1583 29.9686L8.59433 31.5936C8.59433 31.5936 8.66337 31.6909 8.69789 31.7395C8.73241 31.7882 8.77158 31.8091 8.82691 31.8186C8.88223 31.8281 8.93756 31.8376 8.99754 31.8194C9.05751 31.8012 9.1498 31.76 9.24674 31.6912L9.86754 31.2993L11.5908 34.0009C11.4567 34.2911 11.311 34.5651 11.1632 34.7676C11.0107 34.9977 10.8513 35.184 10.692 35.3702C10.5211 35.5403 10.3664 35.6988 10.1887 35.825C10.0109 35.9511 9.84937 36.0658 9.6878 36.1805C9.33701 36.4051 8.97936 36.5859 8.63566 36.6836C8.29196 36.7813 7.96906 36.8399 7.65547 36.8431C7.35804 36.8348 7.05839 36.755 6.81187 36.613C6.55384 36.4549 6.33278 36.2462 6.14182 35.9429L0.965146 27.7944C1.06036 27.3124 1.26622 26.8493 1.59424 26.4215C1.9061 26.0051 2.28014 25.6421 2.73938 25.3648C3.0302 25.1584 3.36705 25.0168 3.71075 24.9191C4.05445 24.8214 4.38884 24.7791 4.72545 24.8083C5.06206 24.8375 5.37321 24.9335 5.67505 25.0849C5.97225 25.264 6.22784 25.5214 6.44181 25.8571L7.37823 27.3132L8.41446 26.6508C8.31091 26.5049 8.24187 26.4076 8.14272 26.4049C8.05973 26.3907 7.95594 26.4156 7.859 26.4844L7.58433 26.6794L6.1901 24.4756C6.28531 23.9936 6.49117 23.5305 6.80303 23.1141C7.13105 22.6863 7.48894 22.3347 7.94818 22.0575C8.239 21.8511 8.57584 21.7095 8.91954 21.6118C9.26324 21.5141 9.59764 21.4717 9.93425 21.5009C10.2709 21.5302 10.582 21.6262 10.8839 21.7776C11.181 21.9567 11.4366 22.2141 11.6506 22.5497L16.8273 30.6983L16.7996 30.6935Z" fill="var(--fill-0, #FAFAFA)"/>
<path id="Vector_2" d="M22.3589 28.9412C21.6759 29.2797 21 29.4913 20.3151 29.5875C19.6301 29.6836 18.9569 29.6252 18.307 29.4284C17.657 29.2315 17.0464 28.8849 16.4753 28.3883C15.9042 27.8917 15.4047 27.2224 14.977 26.3802C14.5907 25.6306 14.3635 24.8656 14.2861 24.1404C14.2087 23.4153 14.2697 22.7138 14.4919 22.0685C14.6865 21.4184 15.0424 20.8245 15.5159 20.2934C15.9893 19.7624 16.5917 19.3103 17.307 18.9489C18.0223 18.5874 18.742 18.369 19.4615 18.3215C20.181 18.274 20.8657 18.3486 21.5225 18.5893C22.1793 18.8301 22.7737 19.1882 23.3287 19.6962C23.8837 20.2043 24.3371 20.8088 24.7234 21.5584C25.1213 22.3242 25.3531 23.0616 25.4467 23.7753C25.5402 24.489 25.4954 25.179 25.2893 25.8128C25.0947 26.4629 24.755 27.0453 24.2816 27.5764C23.8081 28.1075 23.1895 28.571 22.4304 28.9392L22.3589 28.9412ZM20.3531 25.4651C20.3531 25.4651 20.4799 25.4726 20.5722 25.4314C20.6692 25.3626 20.7338 25.3167 20.7362 25.2175C20.7502 25.1345 20.7135 25.0143 20.6261 24.8569L19.9937 23.6237C19.8649 23.3739 19.7476 23.1402 19.6487 22.9666C19.5337 22.8045 19.4578 22.6634 19.3611 22.5614C19.2805 22.4479 19.2022 22.406 19.1469 22.3965C19.0915 22.387 19.02 22.389 18.9716 22.4234C18.9231 22.4578 18.8908 22.4808 18.8585 22.5037C18.8262 22.5266 18.8169 22.582 18.8122 22.6097C18.8698 22.6907 18.9273 22.7718 18.9848 22.8528C19.0423 22.9339 19.0999 23.0149 19.1574 23.096C19.2264 23.1932 19.2793 23.302 19.3552 23.4431C19.4473 23.5728 19.5185 23.7416 19.6013 23.9266L20.3578 25.4374L20.3531 25.4651Z" fill="var(--fill-0, #FAFAFA)"/>
<path id="Vector_3" d="M33.6753 22.7369C33.6753 22.7369 33.6611 22.9908 33.6378 23.1292C33.6307 23.2561 33.6028 23.4222 33.5634 23.572C33.3857 23.6982 33.1595 23.8587 32.8457 24.0328C32.5318 24.2068 32.1627 24.3713 31.7382 24.5263C31.3137 24.6814 30.8777 24.8202 30.4625 24.9199C30.0474 25.0196 29.6415 25.0639 29.2449 25.0529C28.9247 24.8414 28.5976 24.586 28.2475 24.2982C27.8975 24.0104 27.5567 23.6672 27.1975 23.264C26.8384 22.8607 26.4609 22.3974 26.0697 21.8462C25.6785 21.2951 25.2735 20.6562 24.8434 19.9133C24.5969 19.7713 24.3643 19.5464 24.1249 19.2775C23.8854 19.0087 23.6991 18.6778 23.5498 18.2962C23.435 17.9633 23.3363 17.6189 23.2976 17.2564C23.2589 16.8938 23.264 16.5245 23.3683 16.158L25.5553 15.3368C26.0283 15.1474 26.4273 15.0592 26.7524 15.0722C27.0775 15.0852 27.3542 15.1326 27.573 15.2698C27.808 15.3955 27.9899 15.5833 28.1349 15.8217C28.2959 16.0486 28.4201 16.3262 28.5396 16.6314C28.6177 16.8441 28.6842 17.0406 28.7508 17.2371C28.8174 17.4336 28.884 17.6301 28.9621 17.8429C29.0402 18.0556 29.1137 18.296 29.1986 18.5526C29.2836 18.8092 29.3916 19.0982 29.511 19.4034C29.5593 19.5398 29.6075 19.6762 29.6604 19.785C29.7133 19.8937 29.7661 20.0024 29.8237 20.0835C29.8812 20.1645 29.9272 20.2294 29.9941 20.2551C30.0609 20.2808 30.1439 20.295 30.22 20.2653C30.2362 20.2539 30.2685 20.2309 30.2961 20.2357C30.3238 20.2404 30.3446 20.2012 30.3769 20.1783C30.3125 20.0534 30.2643 19.917 30.2046 19.7643C30.1448 19.6117 30.0736 19.4429 30.007 19.2464C29.9174 19.0175 29.8324 18.7609 29.7475 18.5043C29.6625 18.2477 29.5546 17.9586 29.4282 17.6095C29.3134 17.2766 29.1802 16.8836 29.0125 16.442C28.8448 16.0003 28.6634 15.4709 28.4244 14.8604C28.667 14.5176 28.928 14.2349 29.2349 14.017C29.5419 13.7991 29.8719 13.6136 30.2364 13.4767C30.8455 13.2394 31.3828 13.1749 31.8807 13.2602C32.3625 13.3571 32.7657 13.5828 33.0742 13.9489C33.1224 14.0853 33.1937 14.2541 33.2556 14.4783C33.3175 14.7025 33.4025 14.9591 33.4828 15.2434C33.5631 15.5277 33.6549 15.8281 33.7306 16.1401C33.8062 16.4521 33.8934 16.7802 33.9529 17.1037C34.0124 17.4271 34.0881 17.7391 34.136 18.0463C34.184 18.3535 34.209 18.6283 34.2387 18.8754C34.294 18.8849 34.3378 18.8782 34.3816 18.8714C34.4139 18.8485 34.4693 18.858 34.5016 18.835C34.5939 18.7939 34.647 18.7318 34.6494 18.6326C34.668 18.5219 34.6636 18.3787 34.6362 18.2032C34.6181 17.9723 34.5654 17.6927 34.5059 17.3693C34.4464 17.0459 34.3593 16.7177 34.2883 16.3781C34.2057 16.0222 34.1071 15.6778 33.9969 15.3173C33.8982 14.9729 33.7996 14.6285 33.7077 14.328C33.6159 14.0275 33.5356 13.7432 33.4622 13.5028C33.3887 13.2624 33.3336 13.0821 33.2808 12.9734C33.4379 12.7156 33.6942 12.4605 34.0335 12.2197C34.3728 11.9789 34.7512 11.759 35.1757 11.6039C35.5402 11.4671 35.8793 11.397 36.209 11.3824C36.5388 11.3677 36.8431 11.4199 37.1219 11.5388C37.4007 11.6578 37.6588 11.816 37.8637 12.0362C38.0686 12.2564 38.2365 12.5272 38.3675 12.8487C38.464 13.1215 38.5673 13.4382 38.6405 13.8494C38.7299 14.2491 38.7869 14.6718 38.8555 15.1107C38.9241 15.5496 38.9603 16.0114 38.9966 16.4732C39.0328 16.935 39.0507 17.3367 39.0732 17.7108C39.084 18.2394 39.088 18.7242 39.0897 19.1374C39.0914 19.5506 39.0586 19.9151 39.019 20.2358C38.9793 20.5565 38.9052 20.8285 38.808 21.0681C38.7108 21.3078 38.563 21.5102 38.3874 21.7079C38.2004 21.8895 37.9581 22.0615 37.6765 22.2126C37.395 22.3636 37.042 22.5167 36.6291 22.6879C36.4929 22.7358 36.3407 22.7951 36.1331 22.845C35.9255 22.8948 35.7617 22.9379 35.5818 22.9925C35.4019 23.0471 35.2266 23.074 35.0675 23.0895C34.9083 23.1049 34.7769 23.1251 34.7054 23.1271C34.5926 23.0365 34.4682 22.9298 34.3323 22.8068C34.1964 22.6839 34.0491 22.5447 33.9178 22.3941C33.7705 22.2549 33.6392 22.1043 33.5195 21.9699C33.3883 21.8193 33.2801 21.701 33.2111 21.6038C33.1141 21.6726 33.0333 21.7299 32.9802 21.792C32.9271 21.8541 32.9408 21.9419 32.9822 22.0344C33.0052 22.0668 33.0282 22.0992 33.0742 22.1641C33.1203 22.2289 33.1663 22.2938 33.2123 22.3586C33.2584 22.4234 33.3159 22.5045 33.3896 22.5741C33.4471 22.6551 33.5208 22.7247 33.583 22.7781L33.6753 22.7369Z" fill="var(--fill-0, #FAFAFA)"/>
<path id="Vector_4" d="M53.379 17.2582C53.1619 17.5342 52.8571 17.8237 52.4094 18.1171C51.9893 18.4153 51.4287 18.6182 50.7506 18.7582C50.3954 18.8397 50.0495 18.8659 49.7082 18.8643C49.367 18.8628 49.0512 18.7944 48.7677 18.7031C48.4842 18.6118 48.2423 18.4422 48.0489 18.2382C47.8555 18.0342 47.7152 17.7681 47.6396 17.4562L46.3177 11.3494L44.1034 11.8242C43.7972 11.5296 43.5347 11.2284 43.3484 10.8974C43.1736 10.5827 43.0358 10.2174 42.9579 9.83386C42.8938 9.53811 42.8526 9.27478 42.8668 9.02093C42.8649 8.77855 42.8906 8.54092 42.9231 8.34717C42.9718 8.14195 43.0159 7.96441 43.0876 7.79161C43.1593 7.61882 43.2379 7.4899 43.328 7.3772L53.1144 5.28161C53.347 5.50657 53.5656 5.81456 53.7702 6.20558C53.9911 6.58514 54.1243 6.97815 54.2251 7.39409C54.303 7.77762 54.3302 8.12399 54.2952 8.41698C54.2602 8.70997 54.1907 8.95434 54.0543 9.17301C53.9341 9.38021 53.7633 9.55026 53.5694 9.68788C53.3755 9.8255 53.1356 9.89828 52.868 9.96632L50.1072 10.5609C50.1072 10.5609 50.1047 10.6602 50.1116 10.7041C50.13 10.7642 50.153 10.7966 50.1921 10.8175C50.2151 10.85 50.282 10.8757 50.3696 10.8622C50.4526 10.8764 50.5679 10.8677 50.7155 10.8361C50.8631 10.8044 51.0384 10.7775 51.2737 10.7324L51.9241 10.5876L53.379 17.2582Z" fill="var(--fill-0, #FAFAFA)"/>
<path id="Vector_5" d="M60.7784 17.1739C60.022 17.272 59.3165 17.2365 58.6295 17.0903C57.9426 16.9441 57.3343 16.669 56.7768 16.2602C56.2194 15.8514 55.7682 15.3185 55.3956 14.6566C55.023 13.9948 54.7728 13.1973 54.6611 12.2527C54.547 11.4074 54.5781 10.6296 54.7543 9.91946C54.9305 9.2093 55.2081 8.57347 55.6262 8.03291C56.0443 7.49235 56.5591 7.05379 57.1868 6.70577C57.8144 6.35774 58.5341 6.1394 59.3182 6.04599C60.1023 5.95258 60.8632 5.99756 61.557 6.18767C62.2508 6.37777 62.866 6.69678 63.3911 7.1285C63.9162 7.56021 64.3627 8.12083 64.7238 8.76647C65.0688 9.42358 65.3007 10.161 65.4033 10.9901C65.5174 11.8355 65.4863 12.6132 65.3377 13.3281C65.1892 14.043 64.9001 14.6626 64.5096 15.2079C64.1077 15.737 63.5929 16.1756 62.9652 16.5236C62.3376 16.8716 61.5902 17.0852 60.7623 17.1854L60.7784 17.1739ZM60.0346 13.2164C60.0346 13.2164 60.1521 13.2793 60.2397 13.2658C60.355 13.2571 60.4358 13.1998 60.4659 13.1053C60.5075 13.027 60.4985 12.9115 60.471 12.736L60.2908 11.3525C60.2543 11.0615 60.2085 10.8258 60.1858 10.6226C60.1468 10.4309 60.1032 10.2668 60.0665 10.1466C60.0183 10.0102 59.9723 9.94532 59.9054 9.91963C59.8548 9.88247 59.7994 9.87299 59.7279 9.87498C59.668 9.89317 59.6241 9.8999 59.5918 9.92283C59.5595 9.94577 59.5272 9.9687 59.4949 9.99164C59.5201 10.0956 59.5338 10.1834 59.559 10.2874C59.5728 10.3752 59.598 10.4792 59.6232 10.5831C59.6484 10.6871 59.669 10.8188 59.6849 10.9781C59.717 11.126 59.7444 11.3016 59.7625 11.5325L59.9792 13.207L60.0346 13.2164Z" fill="var(--fill-0, #FAFAFA)"/>
<path id="Vector_6" d="M78.0658 11.6799C77.8675 11.6744 77.6738 11.6412 77.4895 11.5526C77.3167 11.4803 77.1531 11.3526 77.0265 11.1743C76.9 10.996 76.7734 10.8177 76.7161 10.5658C76.6427 10.3254 76.6062 10.0344 76.602 9.72047C76.6 9.4781 76.6257 9.24046 76.6859 9.05145C76.7462 8.86244 76.7787 8.6687 76.8619 8.51211C76.929 8.36699 76.9961 8.22187 77.0862 8.10917C77.1601 8.00794 77.234 7.90671 77.2871 7.84462L83.0239 7.91669C83.231 8.20847 83.362 8.52991 83.4445 8.88576C83.527 9.24161 83.5703 9.57651 83.5583 9.90192C83.5647 10.2874 83.5043 10.6473 83.4093 10.9584C83.3143 11.2696 83.2125 11.5369 83.0646 11.7394L82.6681 11.7284L82.6478 14.6436C82.3847 14.8548 82.1054 15.0775 81.7754 15.2629C81.4454 15.4484 81.0878 15.6292 80.6794 15.7727C80.2711 15.9163 79.7959 16.0342 79.2978 16.1197C78.7996 16.2051 78.2231 16.2487 77.6006 16.2274C76.9895 16.2224 76.4155 16.1667 75.8392 16.0394C75.2629 15.9122 74.7236 15.7343 74.2213 15.5058C73.7189 15.2773 73.242 14.982 72.8183 14.6247C72.3945 14.2673 72.0239 13.8478 71.7225 13.3548C71.4211 12.8617 71.1729 12.3066 71.0215 11.6827C70.8426 11.054 70.7767 10.3451 70.7916 9.57883C70.8023 8.4986 70.9766 7.54606 71.3144 6.72122C71.6522 5.89638 72.1212 5.22217 72.7376 4.68712C73.3425 4.13587 74.0624 3.74671 74.8906 3.47576C75.7187 3.20481 76.6505 3.07976 77.6304 3.09111C78.1538 3.10963 78.661 3.13962 79.1705 3.24117C79.6799 3.34273 80.1294 3.46248 80.5627 3.5937C80.996 3.72492 81.3762 3.91823 81.7402 4.123C82.0927 4.31156 82.3853 4.51832 82.634 4.73181C82.6406 4.94651 82.6149 5.18414 82.5892 5.42178C82.575 5.67563 82.5332 5.92474 82.4913 6.17384C82.4495 6.42295 82.3961 6.65584 82.3313 6.87253C82.2664 7.08921 82.2062 7.27822 82.123 7.43481L77.0249 7.37255C76.9395 7.45757 76.8494 7.57027 76.7547 7.71065C76.66 7.85102 76.5606 8.01908 76.4565 8.21482C76.3687 8.39908 76.2876 8.62724 76.2296 8.88781C76.1716 9.14838 76.1251 9.42517 76.1293 9.73912C76.1195 10.1361 76.1629 10.471 76.2708 10.76C76.3788 11.049 76.4961 11.2827 76.6618 11.482C76.8275 11.6812 77.0187 11.8137 77.2307 11.907C77.4427 12.0002 77.6756 12.0544 77.9015 12.0646C78.0168 12.0559 78.1044 12.0425 78.1529 12.0081C78.2014 11.9737 78.2107 11.9183 78.22 11.8629L78.2295 11.6368L78.1304 11.634L78.0658 11.6799Z" fill="var(--fill-0, #FAFAFA)"/>
<path id="Vector_7" d="M89.2644 17.0163C88.3861 16.9085 87.6093 16.7041 86.9111 16.3709C86.2291 16.0262 85.6601 15.6012 85.2089 15.0683C84.7577 14.5353 84.4358 13.9106 84.2431 13.1942C84.0504 12.4778 83.9985 11.6858 84.0873 10.8183C84.1808 9.92308 84.4148 9.12317 84.78 8.47388C85.1338 7.80838 85.6072 7.2773 86.1612 6.8597C86.7266 6.4583 87.3335 6.14942 88.0162 5.98169C88.699 5.81396 89.4023 5.7779 90.1424 5.86203C90.9101 5.9509 91.6038 6.141 92.2075 6.44381C92.8112 6.74661 93.3065 7.10202 93.7001 7.55391C94.0938 8.0058 94.379 8.51029 94.5719 9.05592C94.7487 9.61301 94.8055 10.2065 94.747 10.8087C94.6932 11.3832 94.5265 11.8672 94.2908 12.2539C94.0551 12.6407 93.718 12.9531 93.3395 13.173C92.9449 13.4043 92.5089 13.5431 91.9831 13.6239C91.4734 13.6931 90.9292 13.7137 90.3598 13.6304C89.9125 13.5822 89.5022 13.4834 89.1128 13.3455C88.7118 13.1913 88.3707 13.0189 88.1059 12.8169C88.0735 12.8399 88.0412 12.8628 88.0319 12.9182C88.0111 12.9573 88.018 13.0012 88.0133 13.0289C88.0109 13.1281 88.0638 13.2368 88.1881 13.3436C88.3125 13.4503 88.4922 13.5666 88.7042 13.6598C88.9162 13.7531 89.172 13.8397 89.4555 13.931C89.739 14.0223 90.0156 14.0697 90.3084 14.1057C90.7003 14.1444 91.0808 14.1669 91.399 14.136C91.7287 14.1213 92.0355 14.0742 92.2984 14.0339C92.5775 13.982 92.8012 13.9207 93.0135 13.8432C93.2257 13.7657 93.3941 13.6949 93.5349 13.6193C93.6039 13.7166 93.673 13.8139 93.7212 13.9503C93.7694 14.0867 93.813 14.2508 93.8404 14.4263C93.8679 14.6019 93.8953 14.7774 93.895 14.9482C93.8948 15.119 93.8946 15.2898 93.8828 15.4444C93.8711 15.5991 93.8478 15.7374 93.8131 15.8596C93.7783 15.9818 93.7436 16.104 93.7134 16.1985C93.4873 16.3591 93.238 16.4872 92.9888 16.6153C92.7396 16.7435 92.4236 16.8459 92.0799 16.9436C91.7247 17.0251 91.3303 17.0857 90.8853 17.109C90.4402 17.1324 89.9168 17.1139 89.3151 17.0535L89.2644 17.0163ZM89.85 10.4819C90.0045 10.4941 90.1359 10.474 90.2167 10.4166C90.2975 10.3593 90.3553 10.2695 90.3577 10.1703C90.3648 10.0433 90.3396 9.93935 90.2497 9.88124C90.1599 9.82312 90.0539 9.77648 89.9271 9.76898C89.7449 9.752 89.5973 9.78365 89.4842 9.86393C89.3711 9.94421 89.2926 10.0731 89.237 10.2344C89.2992 10.2878 89.3775 10.3297 89.4835 10.3764C89.5895 10.423 89.7117 10.4582 89.8385 10.4657L89.85 10.4819Z" fill="var(--fill-0, #FAFAFA)"/>
<path id="Vector_8" d="M96.3532 11.4968L96.9456 11.6126C97.1116 11.641 97.2269 11.6323 97.3192 11.5912C97.4115 11.5501 97.4646 11.488 97.4671 11.3887C97.4717 11.3611 97.481 11.3057 97.4741 11.2618L95.3372 10.8528C95.3076 10.6057 95.2941 10.3471 95.313 10.0656C95.3318 9.78406 95.3668 9.49107 95.4133 9.21429C95.4459 9.02054 95.4946 8.81532 95.5756 8.58716C95.6451 8.3428 95.7053 8.15379 95.7724 8.00867C96.0769 7.89002 96.37 7.75515 96.663 7.62029C96.956 7.48542 97.2214 7.34581 97.4659 7.24535C97.5445 7.11644 97.6554 6.9646 97.7594 6.76886C97.8635 6.57313 97.9998 6.35446 98.1085 6.13104C98.2172 5.90763 98.3374 5.70043 98.4575 5.49322C98.5777 5.28602 98.661 5.12943 98.7442 4.97285C98.9586 4.96689 99.2284 4.97042 99.5812 4.98817C99.9339 5.00592 100.266 5.06281 100.626 5.12445C100.902 5.17187 101.174 5.24696 101.446 5.32206C101.718 5.39715 102.013 5.50466 102.331 5.6446L101.897 7.97631L103.552 8.28848C103.683 8.60992 103.77 8.93809 103.792 9.31213C103.815 9.68618 103.798 10.0393 103.743 10.3714C103.687 10.7036 103.576 11.0262 103.416 11.3833C103.256 11.7403 103.067 12.0211 102.815 12.2485L101.464 11.9885L101.195 13.423C101.121 13.8659 101.136 14.196 101.286 14.4067C101.435 14.6175 101.666 14.7709 101.982 14.8392L102.397 14.9103C102.419 15.1136 102.426 15.3283 102.416 15.5544C102.407 15.7806 102.397 16.0068 102.349 16.212C102.172 17.093 101.784 17.7098 101.14 18.0693C100.496 18.4288 99.673 18.5013 98.6495 18.3258C98.14 18.2243 97.6837 18.0607 97.292 17.8511C96.8888 17.6254 96.5664 17.3423 96.3248 17.0019C96.0831 16.6615 95.9108 16.2476 95.8307 15.7925C95.7506 15.3374 95.7675 14.8135 95.8652 14.2322L96.3855 11.4739L96.3532 11.4968Z" fill="var(--fill-0, #FAFAFA)"/>
<path id="Vector_9" d="M118.157 22.9083C117.629 23.0883 117.135 23.1461 116.644 23.1046C116.153 23.0632 115.699 22.9711 115.266 22.8399C114.832 22.7087 114.503 22.5525 114.194 22.3572C113.885 22.1619 113.637 21.9485 113.436 21.7006C113.252 21.4412 113.124 21.1913 113.059 20.8956C113.007 20.616 113.046 20.2954 113.146 19.9565L113.723 18.1332L114.384 18.3463C114.518 18.3977 114.629 18.4166 114.728 18.4194C114.811 18.4336 114.871 18.4154 114.919 18.381C114.968 18.3466 115 18.3237 115.025 18.2569C115.046 18.2177 115.072 18.1509 115.081 18.0955L112.179 17.1568C112.179 17.1568 112.144 17.279 112.124 17.3181C112.103 17.3573 112.121 17.4174 112.14 17.4775C112.163 17.5099 112.197 17.5585 112.243 17.6234C112.289 17.6882 112.4 17.7072 112.506 17.7538L113.206 17.9878L112.238 21.0396C111.927 21.1144 111.632 21.1777 111.357 21.2018C111.083 21.226 110.841 21.2272 110.587 21.2122C110.334 21.1972 110.124 21.1755 109.919 21.1261C109.713 21.0767 109.508 21.0273 109.319 20.9664C108.914 20.8399 108.556 20.679 108.248 20.4838C107.939 20.2885 107.69 20.075 107.49 19.8271C107.29 19.5792 107.177 19.3178 107.113 19.0221C107.06 18.7426 107.1 18.4219 107.2 18.083L110.125 8.88848C110.563 8.6504 111.054 8.52104 111.571 8.49568C112.104 8.45884 112.618 8.53272 113.118 8.68963C113.468 8.80663 113.786 8.94656 114.079 9.15332C114.388 9.34861 114.632 9.58977 114.816 9.84913C115.011 10.1247 115.147 10.4185 115.202 10.7696C115.273 11.1092 115.24 11.4738 115.103 11.8633L114.571 13.509L115.744 13.8951C115.799 13.7338 115.807 13.6069 115.749 13.5258C115.703 13.461 115.613 13.4029 115.507 13.3562L115.196 13.2602L115.979 10.8031C116.417 10.565 116.909 10.4357 117.425 10.4103C117.958 10.3734 118.472 10.4473 118.972 10.6042C119.322 10.7212 119.64 10.8612 119.933 11.0679C120.225 11.2747 120.486 11.5044 120.67 11.7637C120.865 12.0393 121.001 12.3331 121.056 12.6842C121.127 13.0238 121.094 13.3884 120.957 13.7779L118.037 22.9447L118.157 22.9083Z" fill="var(--fill-0, #FAFAFA)"/>
<path id="Vector_10" d="M123.421 26.2166C122.612 25.8644 121.917 25.4319 121.362 24.9239C120.795 24.3997 120.381 23.8161 120.119 23.1732C119.841 22.5418 119.704 21.8349 119.73 21.0848C119.756 20.3347 119.926 19.5807 120.275 18.772C120.629 17.9357 121.086 17.2453 121.627 16.7399C122.172 16.2069 122.76 15.8379 123.413 15.5938C124.066 15.3498 124.735 15.2651 125.44 15.3006C126.146 15.3361 126.828 15.51 127.519 15.7994C128.25 16.1097 128.84 16.4955 129.332 16.9501C129.825 17.4048 130.182 17.9073 130.43 18.4624C130.667 19.0013 130.8 19.5651 130.813 20.1653C130.814 20.7493 130.705 21.3144 130.469 21.8719C130.238 22.4018 129.954 22.8229 129.605 23.1191C129.257 23.4153 128.867 23.619 128.424 23.7139C127.992 23.8251 127.508 23.8275 127.01 23.7422C126.496 23.6683 125.996 23.5114 125.438 23.2734C125.026 23.1031 124.678 22.8868 124.323 22.6267C123.996 22.3713 123.713 22.1092 123.517 21.8336C123.485 21.8565 123.453 21.8795 123.42 21.9024C123.388 21.9254 123.367 21.9645 123.363 21.9922C123.332 22.0867 123.358 22.1907 123.445 22.348C123.532 22.5054 123.664 22.656 123.855 22.7885C124.041 22.9486 124.244 23.0972 124.486 23.2668C124.744 23.4249 124.991 23.5669 125.258 23.6696C125.631 23.8191 125.965 23.9475 126.293 24.0321C126.62 24.1167 126.924 24.1688 127.189 24.2C127.455 24.2312 127.708 24.2462 127.911 24.2241C128.126 24.2181 128.301 24.1912 128.465 24.1481C128.534 24.2453 128.543 24.3608 128.542 24.5316C128.542 24.7024 128.53 24.857 128.503 25.0231C128.475 25.1892 128.431 25.3667 128.387 25.5442C128.343 25.7218 128.275 25.8669 128.225 26.0005C128.174 26.1342 128.095 26.2631 128.033 26.3805C127.97 26.498 127.896 26.5992 127.843 26.6613C127.587 26.7456 127.308 26.7974 127.029 26.8492C126.75 26.901 126.42 26.9157 126.056 26.8818C125.692 26.8478 125.304 26.7814 124.866 26.6779C124.428 26.5743 123.944 26.4059 123.387 26.168L123.421 26.2166ZM125.892 20.1477C126.037 20.2153 126.164 20.2228 126.268 20.1979C126.372 20.173 126.441 20.0994 126.487 19.9935C126.55 19.876 126.525 19.772 126.467 19.691C126.41 19.6099 126.308 19.5356 126.202 19.489C126.029 19.4166 125.875 19.4044 125.739 19.4523C125.603 19.5001 125.485 19.6081 125.39 19.7485C125.436 19.8133 125.482 19.8781 125.584 19.9525C125.685 20.0268 125.775 20.0849 125.892 20.1477Z" fill="var(--fill-0, #FAFAFA)"/>
<path id="Vector_11" d="M134.581 19.4162C134.934 19.6048 135.21 19.823 135.383 20.0662C135.556 20.3093 135.668 20.5707 135.693 20.8455C135.573 20.8819 135.449 20.9459 135.336 21.0262C135.206 21.118 135.093 21.1982 134.98 21.2785C134.867 21.3588 134.782 21.4438 134.696 21.5288C134.611 21.6139 134.558 21.6759 134.532 21.7428C134.507 21.8096 134.493 21.8926 134.523 21.9689C134.552 22.0452 134.626 22.1148 134.716 22.1729C135.046 21.8166 135.379 21.5319 135.736 21.3512C136.094 21.1704 136.426 21.0565 136.772 21.0304C137.118 21.0042 137.443 21.0173 137.798 21.1066C138.153 21.1959 138.448 21.3034 138.745 21.4825C138.992 21.6244 139.199 21.7454 139.402 21.894C139.593 22.0265 139.752 22.1818 139.899 22.321C140.047 22.4602 140.15 22.606 140.242 22.7357C140.334 22.8654 140.415 22.9789 140.452 23.0991C140.417 23.3921 140.354 23.6803 140.236 23.9591C140.129 24.2541 140.011 24.5328 139.87 24.7792C139.621 25.2489 139.39 25.608 139.133 25.8631C138.889 26.1343 138.669 26.3388 138.459 26.4879C138.332 26.4804 138.206 26.4729 138.04 26.4444C137.874 26.416 137.708 26.3875 137.519 26.3267C137.341 26.282 137.141 26.2049 136.968 26.1326C136.767 26.0555 136.583 25.967 136.415 25.8669C136.219 25.7622 136.062 25.6784 135.922 25.5831C135.781 25.4878 135.652 25.4088 135.551 25.3344C135.438 25.2439 135.337 25.1696 135.251 25.0838C135.166 24.998 135.065 24.9237 134.991 24.8541C134.915 24.8838 134.878 24.9344 134.82 25.0241C134.779 25.1024 134.792 25.1902 134.873 25.3037C134.954 25.4171 135.117 25.5448 135.366 25.7583L133.093 30.053C132.835 30.0657 132.577 30.0784 132.339 30.0519C132.102 30.0255 131.869 29.9713 131.664 29.9219C131.447 29.8563 131.258 29.7954 131.074 29.7069C130.901 29.6346 130.717 29.546 130.588 29.4669C130.274 29.2993 129.993 29.1088 129.745 28.8953C129.496 28.6818 129.291 28.4616 129.157 28.2394C128.996 28.0125 128.939 27.7606 128.909 27.5135C128.896 27.2549 128.954 26.9943 129.095 26.748L131.43 22.3358C131.387 22.0009 131.399 21.6755 131.487 21.3205C131.559 20.9768 131.686 20.6427 131.857 20.3019C132.003 20.0278 132.192 19.7471 132.453 19.4643C132.714 19.1816 132.993 18.959 133.307 18.7849L134.611 19.4925L134.581 19.4162Z" fill="var(--fill-0, #FAFAFA)"/>
<path id="Vector_12" d="M140.619 35.4858C139.872 35.0162 139.267 34.471 138.802 33.8503C138.332 33.2572 138.015 32.6049 137.845 31.9209C137.676 31.2368 137.665 30.5374 137.802 29.8063C137.939 29.0752 138.247 28.3448 138.709 27.6267C139.208 26.858 139.762 26.2696 140.376 25.8338C140.99 25.398 141.648 25.1263 142.321 25.0139C142.995 24.9015 143.677 24.9046 144.376 25.067C145.074 25.2295 145.71 25.5093 146.339 25.9161C147.007 26.3438 147.539 26.8194 147.935 27.3429C148.342 27.8826 148.607 28.4262 148.779 29.011C148.951 29.5958 148.969 30.1683 148.887 30.7381C148.789 31.3193 148.597 31.8701 148.272 32.3696C147.962 32.8575 147.604 33.2091 147.221 33.4566C146.826 33.688 146.406 33.8154 145.957 33.8664C145.512 33.8898 145.037 33.8369 144.553 33.6685C144.069 33.5001 143.566 33.2716 143.078 32.9601C142.707 32.7115 142.38 32.4561 142.09 32.1501C141.8 31.8441 141.581 31.5361 141.434 31.2261C141.39 31.2328 141.358 31.2558 141.326 31.2787C141.293 31.3016 141.261 31.3246 141.256 31.3523C141.199 31.442 141.208 31.5575 141.284 31.6986C141.359 31.8398 141.47 32.0295 141.624 32.2126C141.762 32.4071 141.96 32.5834 142.181 32.7922C142.402 33.0009 142.644 33.1705 142.875 33.3239C143.223 33.5402 143.536 33.7078 143.838 33.8592C144.144 33.9829 144.423 34.1019 144.695 34.177C144.967 34.2521 145.2 34.3062 145.41 34.3279C145.619 34.3496 145.818 34.3552 145.961 34.3512C145.986 34.4552 146.006 34.5868 145.967 34.7367C145.928 34.8866 145.9 35.0526 145.844 35.214C145.789 35.3753 145.733 35.5366 145.661 35.7094C145.578 35.866 145.511 36.0111 145.432 36.14C145.354 36.2689 145.264 36.3816 145.19 36.4829C145.116 36.5841 145.03 36.6691 144.961 36.7427C144.698 36.783 144.412 36.791 144.126 36.7989C143.841 36.8069 143.52 36.7662 143.165 36.6769C142.81 36.5875 142.432 36.4658 142.02 36.2954C141.607 36.1251 141.153 35.8622 140.637 35.5459L140.619 35.4858ZM144.035 29.8921C144.175 29.9874 144.286 30.0064 144.401 29.9976C144.516 29.9889 144.597 29.9316 144.643 29.8256C144.717 29.7244 144.72 29.6251 144.667 29.5164C144.609 29.4354 144.54 29.3381 144.423 29.2752C144.282 29.18 144.133 29.1401 143.985 29.1717C143.837 29.2034 143.713 29.2674 143.59 29.4031C143.636 29.4679 143.682 29.5327 143.751 29.63C143.809 29.711 143.922 29.8016 144.023 29.8759L144.035 29.8921Z" fill="var(--fill-0, #FAFAFA)"/>
</g>
</svg>
