<svg width="263" height="56" viewBox="0 0 263 56" fill="none" xmlns="http://www.w3.org/2000/svg">
<mask id="mask0_580_3500" style="mask-type:alpha" maskUnits="userSpaceOnUse" x="114" y="6" width="32" height="32">
<rect x="114" y="6" width="32" height="32" fill="#D9D9D9"/>
</mask>
<g mask="url(#mask0_580_3500)">
<path d="M123.333 36.6667L127.067 17.8667L124.667 18.8V23.3333H122V17.0667L128.733 14.2C129.044 14.0667 129.372 13.9889 129.717 13.9667C130.061 13.9444 130.389 13.9889 130.7 14.1C131.011 14.2111 131.306 14.3667 131.583 14.5667C131.861 14.7667 132.089 15.0222 132.267 15.3333L133.6 17.4667C134.178 18.4 134.961 19.1667 135.95 19.7667C136.939 20.3667 138.067 20.6667 139.333 20.6667V23.3333C137.778 23.3333 136.389 23.0111 135.167 22.3667C133.944 21.7222 132.9 20.9 132.033 19.9L131.2 24L134 26.6667V36.6667H131.333V28L128.533 25.8667L126.133 36.6667H123.333ZM130.117 12.55C129.594 12.0278 129.333 11.4 129.333 10.6667C129.333 9.93333 129.594 9.30556 130.117 8.78333C130.639 8.26111 131.267 8 132 8C132.733 8 133.361 8.26111 133.883 8.78333C134.406 9.30556 134.667 9.93333 134.667 10.6667C134.667 11.4 134.406 12.0278 133.883 12.55C133.361 13.0722 132.733 13.3333 132 13.3333C131.267 13.3333 130.639 13.0722 130.117 12.55Z" fill="#FAFAFA"/>
</g>
<mask id="mask1_580_3500" style="mask-type:alpha" maskUnits="userSpaceOnUse" x="210" y="14" width="32" height="32">
<rect x="210" y="14" width="32" height="32" fill="#D9D9D9"/>
</mask>
<g mask="url(#mask1_580_3500)">
<path d="M212.667 42V18H226V23.3333H239.333V42H212.667ZM215.333 39.3333H218V36.6667H215.333V39.3333ZM215.333 34H218V31.3333H215.333V34ZM215.333 28.6667H218V26H215.333V28.6667ZM215.333 23.3333H218V20.6667H215.333V23.3333ZM220.667 39.3333H223.333V36.6667H220.667V39.3333ZM220.667 34H223.333V31.3333H220.667V34ZM220.667 28.6667H223.333V26H220.667V28.6667ZM220.667 23.3333H223.333V20.6667H220.667V23.3333ZM226 39.3333H236.667V26H226V28.6667H228.667V31.3333H226V34H228.667V36.6667H226V39.3333ZM231.333 31.3333V28.6667H234V31.3333H231.333ZM231.333 36.6667V34H234V36.6667H231.333Z" fill="#FAFAFA"/>
</g>
<path d="M246 34.0352C247.088 34.242 248.125 34.463 249.103 34.7021C252.08 35.4303 254.632 36.3291 256.486 37.4014C258.194 38.3888 260 39.9331 260 42.1787C260 44.4242 258.194 45.9677 256.486 46.9551C254.632 48.0274 252.081 48.9261 249.103 49.6543C243.115 51.1183 234.948 52.0029 226 52.0029C217.052 52.0029 208.885 51.1183 202.897 49.6543C199.919 48.9261 197.368 48.0274 195.514 46.9551C193.859 45.9985 192.112 44.5199 192.005 42.3867L192 42.1787L192.005 41.9697C192.113 39.8367 193.859 38.3579 195.514 37.4014C197.368 36.3291 199.92 35.4303 202.897 34.7021C203.875 34.463 204.912 34.242 206 34.0352V36.0723C198.685 37.5063 194 39.7078 194 42.1787C194.001 46.5 208.327 50.0029 226 50.0029C243.397 50.0029 257.552 46.6082 257.989 42.3799L258 42.1787C258 39.7078 253.315 37.5063 246 36.0723V34.0352Z" fill="#FAFAFA"/>
<mask id="mask2_580_3500" style="mask-type:alpha" maskUnits="userSpaceOnUse" x="18" y="14" width="32" height="32">
<rect x="18" y="14" width="32" height="32" fill="#D9D9D9"/>
</mask>
<g mask="url(#mask2_580_3500)">
<path d="M23.3334 34.6672V22.0006C23.3334 20.8228 23.6389 19.8839 24.25 19.1839C24.8612 18.4839 25.6667 17.9506 26.6667 17.5839C27.6667 17.2172 28.8056 16.9728 30.0834 16.8506C31.3612 16.7283 32.6667 16.6672 34 16.6672C35.4667 16.6672 36.85 16.7283 38.15 16.8506C39.45 16.9728 40.5834 17.2172 41.55 17.5839C42.5167 17.9506 43.2778 18.4839 43.8334 19.1839C44.3889 19.8839 44.6667 20.8228 44.6667 22.0006V34.6672C44.6667 35.9784 44.2167 37.0839 43.3167 37.9839C42.4167 38.8839 41.3112 39.3339 40 39.3339L42 41.3339V42.0006H39.3334L36.6667 39.3339H31.3334L28.6667 42.0006H26V41.3339L28 39.3339C26.6889 39.3339 25.5834 38.8839 24.6834 37.9839C23.7834 37.0839 23.3334 35.9784 23.3334 34.6672ZM34 19.3339C31.6445 19.3339 29.9223 19.4728 28.8334 19.7506C27.7445 20.0283 27 20.3339 26.6 20.6672H41.5334C41.2 20.2895 40.4834 19.9728 39.3834 19.7172C38.2834 19.4617 36.4889 19.3339 34 19.3339ZM26 27.3339H32.6667V23.3339H26V27.3339ZM35.3334 27.3339H42V23.3339H35.3334V27.3339ZM30.7667 34.7672C31.1445 34.3895 31.3334 33.9117 31.3334 33.3339C31.3334 32.7561 31.1445 32.2784 30.7667 31.9006C30.3889 31.5228 29.9112 31.3339 29.3334 31.3339C28.7556 31.3339 28.2778 31.5228 27.9 31.9006C27.5223 32.2784 27.3334 32.7561 27.3334 33.3339C27.3334 33.9117 27.5223 34.3895 27.9 34.7672C28.2778 35.145 28.7556 35.3339 29.3334 35.3339C29.9112 35.3339 30.3889 35.145 30.7667 34.7672ZM40.1 34.7672C40.4778 34.3895 40.6667 33.9117 40.6667 33.3339C40.6667 32.7561 40.4778 32.2784 40.1 31.9006C39.7223 31.5228 39.2445 31.3339 38.6667 31.3339C38.0889 31.3339 37.6112 31.5228 37.2334 31.9006C36.8556 32.2784 36.6667 32.7561 36.6667 33.3339C36.6667 33.9117 36.8556 34.3895 37.2334 34.7672C37.6112 35.145 38.0889 35.3339 38.6667 35.3339C39.2445 35.3339 39.7223 35.145 40.1 34.7672ZM28 36.6672H40C40.5778 36.6672 41.0556 36.4784 41.4334 36.1006C41.8112 35.7228 42 35.245 42 34.6672V30.0006H26V34.6672C26 35.245 26.1889 35.7228 26.5667 36.1006C26.9445 36.4784 27.4223 36.6672 28 36.6672Z" fill="#FAFAFA"/>
</g>
<path d="M54 34.0352C55.0881 34.242 56.1247 34.463 57.1025 34.7021C60.0805 35.4303 62.6315 36.3291 64.4863 37.4014C66.1943 38.3888 67.9998 39.9331 68 42.1787C67.9998 44.4242 66.1942 45.9677 64.4863 46.9551C62.6315 48.0274 60.0805 48.9261 57.1025 49.6543C51.1153 51.1183 42.9482 52.0029 34 52.0029C25.0518 52.0029 16.8847 51.1183 10.8975 49.6543C7.91947 48.9261 5.36848 48.0274 3.51367 46.9551C1.85908 45.9985 0.112371 44.5199 0.00488281 42.3867L0 42.1787L0.00488281 41.9697C0.112575 39.8367 1.85913 38.3579 3.51367 37.4014C5.36849 36.3291 7.91951 35.4303 10.8975 34.7021C11.8753 34.463 12.9119 34.242 14 34.0352V36.0723C6.68484 37.5063 2.0004 39.7078 2 42.1787C2.00098 46.5 16.3275 50.0029 34 50.0029C51.3974 50.0029 65.5518 46.6082 65.9893 42.3799L66 42.1787C65.9996 39.7078 61.3152 37.5063 54 36.0723V34.0352Z" fill="#FAFAFA"/>
<path d="M67 42H193" stroke="#FAFAFA" stroke-width="2" stroke-dasharray="8 4"/>
<path d="M111.133 50.44C111.566 50.44 111.953 50.5233 112.293 50.69C112.633 50.8567 112.9 51.1 113.093 51.42C113.293 51.74 113.393 52.1367 113.393 52.61C113.393 53.1233 113.286 53.5667 113.073 53.94C112.86 54.3133 112.54 54.6 112.113 54.8C111.693 55 111.17 55.1 110.543 55.1C110.17 55.1 109.816 55.0667 109.483 55C109.156 54.9333 108.87 54.8367 108.623 54.71V53.41C108.87 53.5367 109.166 53.6467 109.513 53.74C109.86 53.8267 110.186 53.87 110.493 53.87C110.793 53.87 111.043 53.83 111.243 53.75C111.45 53.67 111.606 53.5467 111.713 53.38C111.82 53.2133 111.873 53 111.873 52.74C111.873 52.3867 111.756 52.12 111.523 51.94C111.29 51.7533 110.93 51.66 110.443 51.66C110.256 51.66 110.063 51.68 109.863 51.72C109.663 51.7533 109.496 51.7867 109.363 51.82L108.763 51.5L109.033 47.86H112.903V49.14H110.353L110.223 50.54C110.336 50.52 110.456 50.5 110.583 50.48C110.716 50.4533 110.9 50.44 111.133 50.44ZM116.936 51.99C116.689 51.8833 116.479 51.8133 116.306 51.78C116.139 51.74 115.979 51.72 115.826 51.72C115.639 51.72 115.442 51.7767 115.236 51.89C115.036 52.0033 114.852 52.1433 114.686 52.31V51.18C114.852 51.0067 115.039 50.8767 115.246 50.79C115.452 50.6967 115.682 50.65 115.936 50.65C116.129 50.65 116.322 50.67 116.516 50.71C116.716 50.7433 116.972 50.8267 117.286 50.96C117.532 51.0667 117.742 51.14 117.916 51.18C118.089 51.2133 118.249 51.23 118.396 51.23C118.589 51.23 118.786 51.1733 118.986 51.06C119.186 50.9467 119.369 50.8067 119.536 50.64V51.77C119.369 51.9433 119.182 52.0767 118.976 52.17C118.769 52.2567 118.539 52.3 118.286 52.3C118.092 52.3 117.896 52.28 117.696 52.24C117.502 52.2 117.249 52.1167 116.936 51.99ZM124.508 55H122.998V50.87C122.998 50.7567 122.998 50.6167 122.998 50.45C123.005 50.2833 123.012 50.11 123.018 49.93C123.025 49.75 123.032 49.59 123.038 49.45C123.005 49.49 122.932 49.5633 122.818 49.67C122.712 49.77 122.612 49.86 122.518 49.94L121.698 50.6L120.968 49.69L123.268 47.86H124.508V55ZM131.851 51.43C131.851 52.0033 131.804 52.5167 131.711 52.97C131.624 53.4233 131.481 53.81 131.281 54.13C131.088 54.4433 130.831 54.6833 130.511 54.85C130.198 55.0167 129.811 55.1 129.351 55.1C128.778 55.1 128.308 54.9533 127.941 54.66C127.574 54.3667 127.301 53.9467 127.121 53.4C126.948 52.8533 126.861 52.1967 126.861 51.43C126.861 50.6567 126.941 49.9967 127.101 49.45C127.261 48.9033 127.524 48.4833 127.891 48.19C128.258 47.8967 128.744 47.75 129.351 47.75C129.924 47.75 130.394 47.8967 130.761 48.19C131.128 48.4767 131.401 48.8967 131.581 49.45C131.761 49.9967 131.851 50.6567 131.851 51.43ZM128.361 51.43C128.361 51.97 128.391 52.4233 128.451 52.79C128.511 53.15 128.611 53.4233 128.751 53.61C128.898 53.79 129.098 53.88 129.351 53.88C129.604 53.88 129.801 53.79 129.941 53.61C130.088 53.43 130.191 53.16 130.251 52.8C130.318 52.4333 130.351 51.9767 130.351 51.43C130.351 50.8833 130.318 50.43 130.251 50.07C130.191 49.7033 130.088 49.43 129.941 49.25C129.801 49.0633 129.604 48.97 129.351 48.97C129.098 48.97 128.898 49.0633 128.751 49.25C128.611 49.43 128.511 49.7033 128.451 50.07C128.391 50.43 128.361 50.8833 128.361 51.43ZM139.814 49.44C140.434 49.44 140.9 49.6 141.214 49.92C141.534 50.2333 141.694 50.74 141.694 51.44V55H140.204V51.81C140.204 51.4167 140.137 51.1233 140.004 50.93C139.87 50.73 139.664 50.63 139.384 50.63C138.99 50.63 138.71 50.77 138.544 51.05C138.377 51.33 138.294 51.7333 138.294 52.26V55H136.804V51.81C136.804 51.55 136.774 51.3333 136.714 51.16C136.654 50.9867 136.564 50.8567 136.444 50.77C136.324 50.6767 136.17 50.63 135.984 50.63C135.71 50.63 135.494 50.7 135.334 50.84C135.174 50.98 135.06 51.1833 134.994 51.45C134.927 51.7167 134.894 52.0433 134.894 52.43V55H133.404V49.54H134.544L134.744 50.24H134.824C134.937 50.0533 135.077 49.9033 135.244 49.79C135.41 49.67 135.594 49.5833 135.794 49.53C136 49.47 136.207 49.44 136.414 49.44C136.814 49.44 137.154 49.5067 137.434 49.64C137.714 49.7667 137.927 49.9667 138.074 50.24H138.204C138.37 49.96 138.6 49.7567 138.894 49.63C139.194 49.5033 139.5 49.44 139.814 49.44ZM145.118 49.54V55H143.628V49.54H145.118ZM144.378 47.4C144.598 47.4 144.788 47.4533 144.948 47.56C145.108 47.66 145.188 47.85 145.188 48.13C145.188 48.4033 145.108 48.5933 144.948 48.7C144.788 48.8067 144.598 48.86 144.378 48.86C144.151 48.86 143.958 48.8067 143.798 48.7C143.645 48.5933 143.568 48.4033 143.568 48.13C143.568 47.85 143.645 47.66 143.798 47.56C143.958 47.4533 144.151 47.4 144.378 47.4ZM150.175 49.44C150.761 49.44 151.231 49.6 151.585 49.92C151.938 50.2333 152.115 50.74 152.115 51.44V55H150.625V51.81C150.625 51.4167 150.555 51.1233 150.415 50.93C150.275 50.73 150.051 50.63 149.745 50.63C149.291 50.63 148.981 50.7867 148.815 51.1C148.648 51.4067 148.565 51.85 148.565 52.43V55H147.075V49.54H148.215L148.415 50.24H148.495C148.615 50.0533 148.761 49.9033 148.935 49.79C149.108 49.67 149.301 49.5833 149.515 49.53C149.728 49.47 149.948 49.44 150.175 49.44Z" fill="#FAFAFA"/>
<path d="M17.22 8.41H21.69V9.5H17.22V8.41ZM16.71 1.49H20.26V2.55H16.71V1.49ZM16.98 0.45L18.33 0.709999C18.0433 1.19667 17.7133 1.67 17.34 2.13C16.9733 2.58333 16.5533 3.02 16.08 3.44C15.6133 3.85333 15.08 4.23667 14.48 4.59C14.42 4.49 14.34 4.38333 14.24 4.27C14.14 4.15 14.0367 4.03333 13.93 3.92C13.8233 3.80667 13.7233 3.71667 13.63 3.65C14.1833 3.35667 14.6733 3.03333 15.1 2.68C15.5333 2.32667 15.9067 1.96 16.22 1.58C16.5333 1.19333 16.7867 0.816667 16.98 0.45ZM19.88 1.49H20.1L20.3 1.43L21.13 1.86C20.8367 2.64 20.4567 3.35333 19.99 4C19.53 4.64 19 5.21667 18.4 5.73C17.8067 6.24333 17.1633 6.69 16.47 7.07C15.7767 7.45 15.0567 7.76667 14.31 8.02C14.2633 7.90667 14.2 7.78333 14.12 7.65C14.04 7.51667 13.9567 7.38667 13.87 7.26C13.7833 7.13333 13.6967 7.02667 13.61 6.94C14.3033 6.74667 14.9733 6.48333 15.62 6.15C16.2733 5.81 16.8767 5.41333 17.43 4.96C17.99 4.50667 18.48 4.00667 18.9 3.46C19.32 2.90667 19.6467 2.31667 19.88 1.69V1.49ZM15.4 3.68L16.3 2.91C16.5333 3.07 16.7767 3.25 17.03 3.45C17.29 3.65 17.5333 3.85333 17.76 4.06C17.9933 4.26 18.1833 4.45 18.33 4.63L17.36 5.49C17.2333 5.31667 17.06 5.12333 16.84 4.91C16.62 4.69 16.3833 4.47333 16.13 4.26C15.8767 4.04667 15.6333 3.85333 15.4 3.68ZM21.14 5.37H22.38V9.9H21.14V5.37ZM17.73 5.37H21.74V6.45H17.73V9.89H16.52V6.25L17.44 5.37H17.73ZM24.24 2.21H33.37V3.38H24.24V2.21ZM25.97 8.28H31.59V9.43H25.97V8.28ZM28.15 0.5H29.46V5.83H28.15V0.5ZM25.26 5.18H32.36V9.85H31.05V6.32H26.51V9.89H25.26V5.18ZM35.57 0.97H36.78V3.87C36.78 4.30333 36.7667 4.78333 36.74 5.31C36.7133 5.83667 36.6567 6.37333 36.57 6.92C36.49 7.46667 36.3667 7.99667 36.2 8.51C36.04 9.01667 35.83 9.48 35.57 9.9C35.4967 9.83333 35.3933 9.75667 35.26 9.67C35.1333 9.59 35 9.51333 34.86 9.44C34.7267 9.37333 34.6067 9.32 34.5 9.28C34.7533 8.89333 34.95 8.47 35.09 8.01C35.2367 7.55 35.3433 7.08 35.41 6.6C35.4767 6.11333 35.52 5.63667 35.54 5.17C35.56 4.70333 35.57 4.27 35.57 3.87V0.97ZM36.24 0.97H43.21V3.53H36.24V2.56H42V1.94H36.24V0.97ZM36.57 3.96H43.48V4.91H36.57V3.96ZM37.05 7.07H42.99V8.02H37.05V7.07ZM36.37 8.71H43.7V9.66H36.37V8.71ZM39.41 6.32H40.57V9.36H39.41V6.32ZM36.84 5.67C37.3133 5.65667 37.8533 5.64333 38.46 5.63C39.0733 5.61 39.72 5.59 40.4 5.57C41.0867 5.54333 41.7667 5.52 42.44 5.5L42.41 6.37C41.7567 6.39667 41.0967 6.42667 40.43 6.46C39.7633 6.48667 39.1267 6.51333 38.52 6.54C37.9133 6.56 37.37 6.58 36.89 6.6L36.84 5.67ZM38.67 4.17L39.88 4.57C39.6667 4.89 39.4467 5.20667 39.22 5.52C39 5.83333 38.7933 6.1 38.6 6.32L37.68 5.95C37.7933 5.79 37.91 5.60667 38.03 5.4C38.1567 5.19333 38.2767 4.98333 38.39 4.77C38.5033 4.55 38.5967 4.35 38.67 4.17ZM40.64 5.16L41.57 4.61C41.7967 4.76333 42.0367 4.93667 42.29 5.13C42.5433 5.32333 42.78 5.52 43 5.72C43.2267 5.91333 43.4133 6.09333 43.56 6.26L42.56 6.89C42.4333 6.72333 42.2633 6.54 42.05 6.34C41.8367 6.13333 41.6067 5.92667 41.36 5.72C41.1133 5.51333 40.8733 5.32667 40.64 5.16ZM49.9 0.86H51V4.72C51 5.12 50.9867 5.55 50.96 6.01C50.94 6.47 50.8933 6.93667 50.82 7.41C50.7467 7.87667 50.64 8.32667 50.5 8.76C50.36 9.18667 50.1733 9.57333 49.94 9.92C49.8733 9.86 49.78 9.79 49.66 9.71C49.54 9.63 49.4167 9.55333 49.29 9.48C49.17 9.40667 49.0667 9.35333 48.98 9.32C49.26 8.89333 49.4633 8.41667 49.59 7.89C49.7233 7.35667 49.8067 6.81667 49.84 6.27C49.88 5.71667 49.9 5.2 49.9 4.72V0.86ZM52.43 4.79C52.5233 5.39 52.65 5.96 52.81 6.5C52.97 7.04 53.18 7.52 53.44 7.94C53.7067 8.36 54.0333 8.69667 54.42 8.95C54.34 9.02333 54.2467 9.11667 54.14 9.23C54.04 9.34333 53.9433 9.46 53.85 9.58C53.7633 9.7 53.6933 9.81333 53.64 9.92C53.1933 9.59333 52.8233 9.18333 52.53 8.69C52.2367 8.19667 52 7.63667 51.82 7.01C51.6467 6.37667 51.5067 5.69 51.4 4.95L52.43 4.79ZM50.47 0.86H53.97V5.33H50.47V4.24H52.88V1.96H50.47V0.86ZM45.94 2.41H49.03V3.31H45.94V2.41ZM45.94 3.91H49.03V4.82H45.94V3.91ZM45.36 5.42H48.78V6.35H45.36V5.42ZM47 1.44H47.97V5.95H47V1.44ZM47.45 6.78L47.92 6.62C48.0267 6.82 48.1233 7.03667 48.21 7.27C48.3033 7.50333 48.37 7.70667 48.41 7.88L47.91 8.08C47.8767 7.9 47.8167 7.69 47.73 7.45C47.6433 7.20333 47.55 6.98 47.45 6.78ZM46.76 6.92L47.27 6.83C47.3567 7.08333 47.43 7.36333 47.49 7.67C47.55 7.97 47.59 8.22667 47.61 8.44L47.07 8.56C47.0567 8.34 47.02 8.07667 46.96 7.77C46.9067 7.46333 46.84 7.18 46.76 6.92ZM46.06 6.99L46.59 6.94C46.63 7.22667 46.66 7.54333 46.68 7.89C46.7 8.23 46.7067 8.52667 46.7 8.78L46.14 8.85C46.16 8.59667 46.16 8.3 46.14 7.96C46.1267 7.61333 46.1 7.29 46.06 6.99ZM45.31 6.76L45.97 6.88C45.95 7.19333 45.92 7.50667 45.88 7.82C45.8467 8.12667 45.79 8.41333 45.71 8.68C45.6367 8.94667 45.53 9.17667 45.39 9.37L44.77 9.04C44.9567 8.77333 45.0867 8.43667 45.16 8.03C45.24 7.62333 45.29 7.2 45.31 6.76ZM45.36 0.87H49.2V1.84H46.36V5.83H45.36V0.87ZM48.36 5.42H49.37C49.37 5.42 49.3667 5.47333 49.36 5.58C49.36 5.68667 49.3567 5.77 49.35 5.83C49.31 6.63667 49.27 7.29333 49.23 7.8C49.19 8.3 49.1433 8.68333 49.09 8.95C49.0367 9.21667 48.9667 9.40333 48.88 9.51C48.7933 9.62333 48.7 9.70333 48.6 9.75C48.5067 9.80333 48.3967 9.84 48.27 9.86C48.17 9.88 48.04 9.89 47.88 9.89C47.72 9.89667 47.55 9.89667 47.37 9.89C47.3633 9.74333 47.3367 9.58 47.29 9.4C47.25 9.22 47.1967 9.07 47.13 8.95C47.2633 8.96333 47.3833 8.97333 47.49 8.98C47.5967 8.98 47.6833 8.98 47.75 8.98C47.81 8.98 47.86 8.97333 47.9 8.96C47.94 8.94 47.98 8.90667 48.02 8.86C48.0733 8.79333 48.12 8.64667 48.16 8.42C48.2 8.19333 48.2367 7.85333 48.27 7.4C48.31 6.94667 48.34 6.34333 48.36 5.59V5.42Z" fill="#FAFAFA"/>
<path d="M196.02 0.83C196 1.04333 195.983 1.21667 195.97 1.35C195.957 1.47667 195.95 1.61 195.95 1.75C195.95 1.83667 195.95 1.97 195.95 2.15C195.95 2.33 195.95 2.51667 195.95 2.71C195.95 2.90333 195.95 3.06333 195.95 3.19H194.56C194.56 3.05 194.56 2.88333 194.56 2.69C194.56 2.49667 194.56 2.31333 194.56 2.14C194.56 1.96667 194.56 1.83667 194.56 1.75C194.56 1.61 194.553 1.47667 194.54 1.35C194.533 1.21667 194.513 1.04333 194.48 0.83H196.02ZM199.39 2.94C199.35 3.04667 199.31 3.18333 199.27 3.35C199.237 3.51 199.21 3.64 199.19 3.74C199.15 3.97333 199.1 4.21 199.04 4.45C198.987 4.69 198.92 4.93 198.84 5.17C198.767 5.41 198.68 5.64667 198.58 5.88C198.487 6.11333 198.38 6.34333 198.26 6.57C197.993 7.05667 197.653 7.5 197.24 7.9C196.833 8.3 196.37 8.64 195.85 8.92C195.33 9.19333 194.773 9.41 194.18 9.57L193.14 8.37C193.367 8.33 193.607 8.27667 193.86 8.21C194.113 8.13667 194.343 8.06 194.55 7.98C194.83 7.87333 195.107 7.74 195.38 7.58C195.66 7.41333 195.923 7.22 196.17 7C196.417 6.78 196.633 6.53667 196.82 6.27C196.987 6.02333 197.13 5.76 197.25 5.48C197.37 5.19333 197.467 4.9 197.54 4.6C197.613 4.29333 197.67 3.99333 197.71 3.7H192.75C192.75 3.78667 192.75 3.89667 192.75 4.03C192.75 4.15667 192.75 4.29667 192.75 4.45C192.75 4.59667 192.75 4.73333 192.75 4.86C192.75 4.98 192.75 5.08 192.75 5.16C192.75 5.27333 192.753 5.4 192.76 5.54C192.767 5.68 192.773 5.8 192.78 5.9H191.4C191.413 5.77333 191.423 5.63667 191.43 5.49C191.443 5.33667 191.45 5.19333 191.45 5.06C191.45 4.98 191.45 4.86333 191.45 4.71C191.45 4.55667 191.45 4.39333 191.45 4.22C191.45 4.04 191.45 3.87 191.45 3.71C191.45 3.55 191.45 3.42333 191.45 3.33C191.45 3.21667 191.447 3.07667 191.44 2.91C191.433 2.73667 191.42 2.59 191.4 2.47C191.573 2.49 191.74 2.50333 191.9 2.51C192.06 2.51667 192.233 2.52 192.42 2.52H197.69C197.897 2.52 198.063 2.51 198.19 2.49C198.323 2.46333 198.433 2.43667 198.52 2.41L199.39 2.94ZM201.32 5.11C202.22 4.87667 203.033 4.60667 203.76 4.3C204.493 3.98667 205.137 3.66 205.69 3.32C206.037 3.10667 206.383 2.86333 206.73 2.59C207.083 2.31 207.413 2.02333 207.72 1.73C208.033 1.43667 208.297 1.15667 208.51 0.89L209.59 1.92C209.283 2.22 208.947 2.52333 208.58 2.83C208.22 3.13667 207.843 3.43 207.45 3.71C207.057 3.99 206.667 4.24667 206.28 4.48C205.9 4.7 205.473 4.92667 205 5.16C204.533 5.39333 204.04 5.61333 203.52 5.82C203 6.02667 202.477 6.21 201.95 6.37L201.32 5.11ZM205.48 3.96L206.9 3.63V8.13C206.9 8.27667 206.903 8.43667 206.91 8.61C206.917 8.78333 206.927 8.94333 206.94 9.09C206.953 9.24333 206.97 9.36 206.99 9.44H205.41C205.423 9.36 205.433 9.24333 205.44 9.09C205.453 8.94333 205.463 8.78333 205.47 8.61C205.477 8.43667 205.48 8.27667 205.48 8.13V3.96ZM213.51 1.4C213.683 1.52 213.887 1.66667 214.12 1.84C214.353 2.01333 214.593 2.20333 214.84 2.41C215.093 2.61 215.33 2.80667 215.55 3C215.77 3.19333 215.95 3.36667 216.09 3.52L215.07 4.56C214.943 4.42 214.777 4.25333 214.57 4.06C214.363 3.86667 214.14 3.66667 213.9 3.46C213.66 3.25333 213.423 3.05667 213.19 2.87C212.957 2.68333 212.75 2.52667 212.57 2.4L213.51 1.4ZM212.26 8.06C212.78 7.98667 213.27 7.88333 213.73 7.75C214.19 7.61667 214.617 7.46333 215.01 7.29C215.403 7.11667 215.763 6.93667 216.09 6.75C216.657 6.41 217.177 6.02333 217.65 5.59C218.123 5.15667 218.537 4.70667 218.89 4.24C219.243 3.76667 219.523 3.30667 219.73 2.86L220.51 4.27C220.257 4.71667 219.943 5.16333 219.57 5.61C219.203 6.05667 218.787 6.48333 218.32 6.89C217.853 7.29 217.35 7.65 216.81 7.97C216.47 8.17667 216.103 8.37333 215.71 8.56C215.317 8.74 214.9 8.9 214.46 9.04C214.027 9.18667 213.573 9.3 213.1 9.38L212.26 8.06ZM230.49 2.78C230.437 2.87333 230.38 2.98667 230.32 3.12C230.26 3.24667 230.207 3.37333 230.16 3.5C230.073 3.79333 229.95 4.13 229.79 4.51C229.637 4.88333 229.443 5.27333 229.21 5.68C228.983 6.08 228.72 6.46667 228.42 6.84C227.94 7.41333 227.38 7.93333 226.74 8.4C226.107 8.86667 225.32 9.28667 224.38 9.66L223.2 8.6C223.88 8.4 224.467 8.17 224.96 7.91C225.453 7.65 225.883 7.37333 226.25 7.08C226.617 6.78 226.943 6.46333 227.23 6.13C227.463 5.87 227.677 5.57667 227.87 5.25C228.063 4.91667 228.23 4.58667 228.37 4.26C228.51 3.93333 228.603 3.64667 228.65 3.4H225.28L225.74 2.27C225.833 2.27 225.977 2.27 226.17 2.27C226.37 2.27 226.593 2.27 226.84 2.27C227.093 2.27 227.34 2.27 227.58 2.27C227.827 2.27 228.04 2.27 228.22 2.27C228.407 2.27 228.533 2.27 228.6 2.27C228.753 2.27 228.907 2.26 229.06 2.24C229.22 2.22 229.357 2.19 229.47 2.15L230.49 2.78ZM227.23 1.2C227.11 1.37333 226.993 1.56 226.88 1.76C226.767 1.96 226.68 2.11333 226.62 2.22C226.393 2.62 226.113 3.03667 225.78 3.47C225.453 3.89667 225.08 4.31333 224.66 4.72C224.24 5.12 223.793 5.48667 223.32 5.82L222.19 4.99C222.63 4.71667 223.017 4.43667 223.35 4.15C223.69 3.86333 223.983 3.58 224.23 3.3C224.477 3.01333 224.687 2.74 224.86 2.48C225.04 2.21333 225.193 1.97667 225.32 1.77C225.4 1.64333 225.483 1.48 225.57 1.28C225.657 1.07333 225.723 0.886666 225.77 0.719999L227.23 1.2ZM236.86 0.949999C236.833 1.04333 236.807 1.13667 236.78 1.23C236.76 1.31667 236.74 1.4 236.72 1.48C236.66 1.79333 236.603 2.15333 236.55 2.56C236.497 2.96 236.453 3.38 236.42 3.82C236.387 4.25333 236.37 4.68 236.37 5.1C236.37 5.62 236.397 6.1 236.45 6.54C236.503 6.97333 236.577 7.37667 236.67 7.75C236.77 8.11667 236.877 8.46667 236.99 8.8L235.84 9.15C235.74 8.85 235.643 8.49333 235.55 8.08C235.463 7.66667 235.39 7.22333 235.33 6.75C235.27 6.27 235.24 5.78667 235.24 5.3C235.24 4.96667 235.25 4.63333 235.27 4.3C235.297 3.96 235.323 3.62667 235.35 3.3C235.377 2.96667 235.407 2.65 235.44 2.35C235.48 2.04333 235.513 1.76667 235.54 1.52C235.547 1.42667 235.553 1.32667 235.56 1.22C235.567 1.10667 235.567 1.00667 235.56 0.92L236.86 0.949999ZM235.08 2.06C235.713 2.06 236.307 2.04667 236.86 2.02C237.42 1.99333 237.957 1.94667 238.47 1.88C238.99 1.81333 239.507 1.71667 240.02 1.59L240.03 2.75C239.683 2.81 239.3 2.86667 238.88 2.92C238.467 2.96667 238.033 3.00667 237.58 3.04C237.133 3.07333 236.693 3.1 236.26 3.12C235.827 3.13333 235.42 3.14 235.04 3.14C234.867 3.14 234.67 3.13667 234.45 3.13C234.237 3.12333 234.023 3.11667 233.81 3.11C233.603 3.09667 233.423 3.08667 233.27 3.08L233.24 1.92C233.353 1.93333 233.517 1.95333 233.73 1.98C233.943 2 234.17 2.02 234.41 2.04C234.657 2.05333 234.88 2.06 235.08 2.06ZM239.39 3.52C239.37 3.58 239.34 3.66333 239.3 3.77C239.26 3.87667 239.22 3.98667 239.18 4.1C239.147 4.21333 239.12 4.30333 239.1 4.37C238.907 4.97 238.67 5.52 238.39 6.02C238.117 6.51333 237.82 6.94667 237.5 7.32C237.18 7.68667 236.863 7.98667 236.55 8.22C236.223 8.46667 235.85 8.68333 235.43 8.87C235.01 9.05 234.587 9.14 234.16 9.14C233.92 9.14 233.697 9.09 233.49 8.99C233.283 8.89 233.117 8.73333 232.99 8.52C232.87 8.3 232.81 8.02333 232.81 7.69C232.81 7.33 232.883 6.97667 233.03 6.63C233.177 6.28333 233.38 5.95333 233.64 5.64C233.9 5.32667 234.203 5.05 234.55 4.81C234.897 4.56333 235.27 4.37 235.67 4.23C235.997 4.11 236.353 4.01333 236.74 3.94C237.133 3.86667 237.52 3.83 237.9 3.83C238.52 3.83 239.073 3.94333 239.56 4.17C240.053 4.39667 240.44 4.70667 240.72 5.1C241 5.49333 241.14 5.95333 241.14 6.48C241.14 6.83333 241.083 7.18 240.97 7.52C240.857 7.85333 240.67 8.16333 240.41 8.45C240.157 8.73667 239.82 8.98333 239.4 9.19C238.98 9.39667 238.463 9.54667 237.85 9.64L237.19 8.59C237.83 8.51667 238.35 8.37333 238.75 8.16C239.15 7.94 239.44 7.67667 239.62 7.37C239.807 7.06333 239.9 6.74667 239.9 6.42C239.9 6.12667 239.82 5.86333 239.66 5.63C239.507 5.39667 239.273 5.21 238.96 5.07C238.653 4.92333 238.273 4.85 237.82 4.85C237.367 4.85 236.96 4.9 236.6 5C236.247 5.1 235.95 5.20667 235.71 5.32C235.377 5.48 235.08 5.68333 234.82 5.93C234.56 6.17 234.357 6.42333 234.21 6.69C234.063 6.95667 233.99 7.20333 233.99 7.43C233.99 7.59 234.027 7.71333 234.1 7.8C234.173 7.88 234.29 7.92 234.45 7.92C234.69 7.92 234.967 7.84333 235.28 7.69C235.593 7.53 235.903 7.30667 236.21 7.02C236.57 6.68667 236.91 6.28667 237.23 5.82C237.55 5.35333 237.813 4.77333 238.02 4.08C238.04 4.01333 238.06 3.92667 238.08 3.82C238.1 3.71333 238.117 3.60667 238.13 3.5C238.15 3.38667 238.163 3.29667 238.17 3.23L239.39 3.52ZM244.9 1.85C244.873 1.97 244.85 2.10667 244.83 2.26C244.817 2.41333 244.803 2.56333 244.79 2.71C244.783 2.85667 244.78 2.97667 244.78 3.07C244.773 3.29 244.77 3.51667 244.77 3.75C244.777 3.98333 244.783 4.22333 244.79 4.47C244.803 4.71 244.82 4.95 244.84 5.19C244.887 5.67 244.953 6.09333 245.04 6.46C245.127 6.82667 245.24 7.11333 245.38 7.32C245.52 7.52 245.697 7.62 245.91 7.62C246.023 7.62 246.133 7.55667 246.24 7.43C246.353 7.30333 246.453 7.14 246.54 6.94C246.633 6.73333 246.713 6.51667 246.78 6.29C246.853 6.06333 246.917 5.85 246.97 5.65L247.97 6.87C247.75 7.45 247.53 7.91333 247.31 8.26C247.097 8.6 246.873 8.84667 246.64 9C246.407 9.14667 246.153 9.22 245.88 9.22C245.52 9.22 245.177 9.1 244.85 8.86C244.53 8.62 244.257 8.23333 244.03 7.7C243.803 7.16 243.643 6.44333 243.55 5.55C243.517 5.24333 243.49 4.92 243.47 4.58C243.457 4.24 243.447 3.91667 243.44 3.61C243.44 3.30333 243.44 3.05 243.44 2.85C243.44 2.71 243.433 2.54333 243.42 2.35C243.407 2.15667 243.387 1.98333 243.36 1.83L244.9 1.85ZM249.9 2.08C250.087 2.30667 250.267 2.58333 250.44 2.91C250.613 3.23667 250.773 3.58667 250.92 3.96C251.067 4.33333 251.197 4.71667 251.31 5.11C251.423 5.49667 251.513 5.87667 251.58 6.25C251.653 6.61667 251.7 6.95333 251.72 7.26L250.4 7.77C250.367 7.36333 250.307 6.92 250.22 6.44C250.133 5.96 250.017 5.47667 249.87 4.99C249.723 4.50333 249.547 4.04333 249.34 3.61C249.14 3.17667 248.903 2.80333 248.63 2.49L249.9 2.08ZM257.23 1.03C257.177 1.20333 257.13 1.37667 257.09 1.55C257.057 1.71667 257.023 1.88333 256.99 2.05C256.957 2.21 256.917 2.39333 256.87 2.6C256.83 2.80667 256.783 3.02667 256.73 3.26C256.683 3.48667 256.63 3.71667 256.57 3.95C256.517 4.18333 256.46 4.41333 256.4 4.64C256.34 4.86 256.283 5.06333 256.23 5.25C256.637 5.02333 257.04 4.86333 257.44 4.77C257.84 4.67 258.263 4.62 258.71 4.62C259.25 4.62 259.72 4.71 260.12 4.89C260.527 5.07 260.84 5.32 261.06 5.64C261.287 5.96 261.4 6.33333 261.4 6.76C261.4 7.32 261.27 7.79333 261.01 8.18C260.757 8.56667 260.39 8.87 259.91 9.09C259.437 9.31 258.867 9.45 258.2 9.51C257.54 9.57 256.807 9.55667 256 9.47L255.65 8.18C256.197 8.27333 256.73 8.32 257.25 8.32C257.777 8.32 258.25 8.27 258.67 8.17C259.09 8.07 259.423 7.91 259.67 7.69C259.923 7.46333 260.05 7.16667 260.05 6.8C260.05 6.5 259.923 6.24333 259.67 6.03C259.417 5.81 259.047 5.7 258.56 5.7C257.98 5.7 257.447 5.8 256.96 6C256.48 6.2 256.09 6.49 255.79 6.87C255.743 6.94333 255.697 7.01333 255.65 7.08C255.61 7.14667 255.563 7.22333 255.51 7.31L254.33 6.89C254.517 6.53 254.69 6.12 254.85 5.66C255.01 5.2 255.153 4.73667 255.28 4.27C255.407 3.80333 255.51 3.37 255.59 2.97C255.67 2.56333 255.727 2.23333 255.76 1.98C255.793 1.76667 255.813 1.58667 255.82 1.44C255.827 1.28667 255.823 1.13 255.81 0.97L257.23 1.03ZM253.74 2.2C254.06 2.25333 254.407 2.3 254.78 2.34C255.153 2.37333 255.497 2.39 255.81 2.39C256.13 2.39 256.48 2.38 256.86 2.36C257.247 2.34 257.653 2.31 258.08 2.27C258.507 2.23 258.933 2.18 259.36 2.12C259.793 2.05333 260.217 1.97667 260.63 1.89L260.65 3.08C260.33 3.13333 259.967 3.18667 259.56 3.24C259.16 3.29333 258.74 3.34333 258.3 3.39C257.86 3.43 257.427 3.46333 257 3.49C256.573 3.51667 256.18 3.53 255.82 3.53C255.433 3.53 255.063 3.52333 254.71 3.51C254.363 3.49 254.04 3.46667 253.74 3.44V2.2Z" fill="#FAFAFA"/>
</svg>
