<svg preserveAspectRatio="none" width="100%" height="100%" overflow="visible" style="display: block;" viewBox="0 0 259.86 36" fill="none" xmlns="http://www.w3.org/2000/svg">
<g id="Icon Row">
<path id="Vector" d="M6.17694 0.53111H16.118L11.437 27.0727H25.5282L24.0322 35.4694H0L6.17694 0.53111Z" fill="var(--fill-0, #FAFAFA)"/>
<path id="Vector_2" d="M34.2627 6.12869C37.7373 2.2681 42.7078 0 48.4022 0C57.7158 0 65.5818 5.98391 65.5818 16.1662C65.5818 20.7024 64.0375 25.866 60.4182 29.8713C56.9437 33.7319 51.9732 36 46.2788 36C36.9652 36 29.0992 30.0161 29.0992 19.8338C29.0992 15.2976 30.6434 10.134 34.2627 6.12869ZM46.6166 27.3619C49.2708 27.3619 51.3941 26.1555 52.7936 24.4665C54.3378 22.6327 55.496 19.7855 55.496 16.8418C55.496 12.4021 52.8418 8.63807 48.0644 8.63807C45.4102 8.63807 43.2869 9.8445 41.8874 11.5335C40.3432 13.3673 39.185 16.2145 39.185 19.1582C39.185 23.5979 41.8392 27.3619 46.6166 27.3619Z" fill="var(--fill-0, #FAFAFA)"/>
<path id="Vector_3" d="M94.9705 34.504C92.2681 35.6139 89.0348 36 86.3807 36C76.1501 36 68.5254 30.4021 68.5254 20.4129C68.5254 15.0563 70.7453 9.41019 74.7024 5.5496C78.3217 2.02681 83.2922 0 89.0831 0C93.0884 0 96.8042 0.965147 99.7479 2.50938L98.1555 11.63C95.1152 9.89276 91.689 8.8311 88.697 8.8311C85.705 8.8311 83.2439 9.89276 81.5067 11.63C79.4798 13.6568 78.4664 16.6971 78.4664 19.3995C78.4664 24.5147 82.0858 27.1689 87.2975 27.1689C90.193 27.1689 93.8606 26.3485 96.6595 24.9008L94.9705 34.504Z" fill="var(--fill-0, #FAFAFA)"/>
<path id="Vector_4" d="M115.963 0.53111H125.759L133.528 35.4694H123.153L121.85 28.3274H110.268L106.504 35.4694H96.0805L115.963 0.53111ZM114.177 20.9922H120.499L120.161 19.2067C119.775 17.0834 119.292 14.1879 118.954 11.7751H118.858C117.748 14.0914 116.3 16.9386 115.046 19.3515L114.177 20.9922Z" fill="var(--fill-0, #FAFAFA)"/>
<path id="Vector_5" d="M145.593 8.92789H134.638L136.134 0.53111H167.984L166.488 8.92789H155.534L150.853 35.4694H140.912L145.593 8.92789Z" fill="var(--fill-0, #FAFAFA)"/>
<path id="Vector_6" d="M171.458 0.53111H181.399L175.222 35.4694H165.281L171.458 0.53111Z" fill="var(--fill-0, #FAFAFA)"/>
<path id="Vector_7" d="M187.673 6.12869C191.147 2.2681 196.118 0 201.812 0C211.126 0 218.992 5.98391 218.992 16.1662C218.992 20.7024 217.448 25.866 213.828 29.8713C210.354 33.7319 205.383 36 199.689 36C190.375 36 182.509 30.0161 182.509 19.8338C182.509 15.2976 184.054 10.134 187.673 6.12869ZM200.027 27.3619C202.681 27.3619 204.804 26.1555 206.204 24.4665C207.748 22.6327 208.906 19.7855 208.906 16.8418C208.906 12.4021 206.252 8.63807 201.474 8.63807C198.82 8.63807 196.697 9.8445 195.298 11.5335C193.753 13.3673 192.595 16.2145 192.595 19.1582C192.595 23.5979 195.249 27.3619 200.027 27.3619Z" fill="var(--fill-0, #FAFAFA)"/>
<path id="Vector_8" d="M220.096 35.4694L226.273 0.53111H235.538L241.474 11.2925C243.259 14.5257 245.045 17.8073 246.734 21.0405L246.83 20.9922C247.313 17.8555 247.94 14.0432 248.568 10.4721L250.305 0.53111H259.86L253.683 35.4694H244.418L238.482 24.7081C236.696 21.4748 234.911 18.1933 233.222 14.9601L233.125 15.0083C232.643 18.1451 232.015 21.9574 231.388 25.5284L229.651 35.4694H220.096Z" fill="var(--fill-0, #FAFAFA)"/>
</g>
</svg>
