<svg width="327" height="56" viewBox="0 0 327 56" fill="none" xmlns="http://www.w3.org/2000/svg">
<mask id="mask0_580_3528" style="mask-type:alpha" maskUnits="userSpaceOnUse" x="210" y="6" width="32" height="32">
<rect x="210" y="6" width="32" height="32" fill="#D9D9D9"/>
</mask>
<g mask="url(#mask0_580_3528)">
<path d="M219.333 36.6667L223.067 17.8667L220.667 18.8V23.3333H218V17.0667L224.733 14.2C225.044 14.0667 225.372 13.9889 225.717 13.9667C226.061 13.9444 226.389 13.9889 226.7 14.1C227.011 14.2111 227.306 14.3667 227.583 14.5667C227.861 14.7667 228.089 15.0222 228.267 15.3333L229.6 17.4667C230.178 18.4 230.961 19.1667 231.95 19.7667C232.939 20.3667 234.067 20.6667 235.333 20.6667V23.3333C233.778 23.3333 232.389 23.0111 231.167 22.3667C229.944 21.7222 228.9 20.9 228.033 19.9L227.2 24L230 26.6667V36.6667H227.333V28L224.533 25.8667L222.133 36.6667H219.333ZM226.117 12.55C225.594 12.0278 225.333 11.4 225.333 10.6667C225.333 9.93333 225.594 9.30556 226.117 8.78333C226.639 8.26111 227.267 8 228 8C228.733 8 229.361 8.26111 229.883 8.78333C230.406 9.30556 230.667 9.93333 230.667 10.6667C230.667 11.4 230.406 12.0278 229.883 12.55C229.361 13.0722 228.733 13.3333 228 13.3333C227.267 13.3333 226.639 13.0722 226.117 12.55Z" fill="#FAFAFA"/>
</g>
<mask id="mask1_580_3528" style="mask-type:alpha" maskUnits="userSpaceOnUse" x="146" y="14" width="32" height="32">
<rect x="146" y="14" width="32" height="32" fill="#D9D9D9"/>
</mask>
<g mask="url(#mask1_580_3528)">
<path d="M151.333 34.6672V22.0006C151.333 20.8228 151.639 19.8839 152.25 19.1839C152.861 18.4839 153.667 17.9506 154.667 17.5839C155.667 17.2172 156.806 16.9728 158.083 16.8506C159.361 16.7283 160.667 16.6672 162 16.6672C163.467 16.6672 164.85 16.7283 166.15 16.8506C167.45 16.9728 168.583 17.2172 169.55 17.5839C170.517 17.9506 171.278 18.4839 171.833 19.1839C172.389 19.8839 172.667 20.8228 172.667 22.0006V34.6672C172.667 35.9784 172.217 37.0839 171.317 37.9839C170.417 38.8839 169.311 39.3339 168 39.3339L170 41.3339V42.0006H167.333L164.667 39.3339H159.333L156.667 42.0006H154V41.3339L156 39.3339C154.689 39.3339 153.583 38.8839 152.683 37.9839C151.783 37.0839 151.333 35.9784 151.333 34.6672ZM162 19.3339C159.644 19.3339 157.922 19.4728 156.833 19.7506C155.744 20.0283 155 20.3339 154.6 20.6672H169.533C169.2 20.2895 168.483 19.9728 167.383 19.7172C166.283 19.4617 164.489 19.3339 162 19.3339ZM154 27.3339H160.667V23.3339H154V27.3339ZM163.333 27.3339H170V23.3339H163.333V27.3339ZM158.767 34.7672C159.144 34.3895 159.333 33.9117 159.333 33.3339C159.333 32.7561 159.144 32.2784 158.767 31.9006C158.389 31.5228 157.911 31.3339 157.333 31.3339C156.756 31.3339 156.278 31.5228 155.9 31.9006C155.522 32.2784 155.333 32.7561 155.333 33.3339C155.333 33.9117 155.522 34.3895 155.9 34.7672C156.278 35.145 156.756 35.3339 157.333 35.3339C157.911 35.3339 158.389 35.145 158.767 34.7672ZM168.1 34.7672C168.478 34.3895 168.667 33.9117 168.667 33.3339C168.667 32.7561 168.478 32.2784 168.1 31.9006C167.722 31.5228 167.244 31.3339 166.667 31.3339C166.089 31.3339 165.611 31.5228 165.233 31.9006C164.856 32.2784 164.667 32.7561 164.667 33.3339C164.667 33.9117 164.856 34.3895 165.233 34.7672C165.611 35.145 166.089 35.3339 166.667 35.3339C167.244 35.3339 167.722 35.145 168.1 34.7672ZM156 36.6672H168C168.578 36.6672 169.056 36.4784 169.433 36.1006C169.811 35.7228 170 35.245 170 34.6672V30.0006H154V34.6672C154 35.245 154.189 35.7228 154.567 36.1006C154.944 36.4784 155.422 36.6672 156 36.6672Z" fill="#FAFAFA"/>
</g>
<path d="M182 34.0352C183.088 34.242 184.125 34.463 185.103 34.7021C188.08 35.4303 190.632 36.3291 192.486 37.4014C194.194 38.3888 196 39.9331 196 42.1787C196 44.4242 194.194 45.9677 192.486 46.9551C190.632 48.0274 188.081 48.9261 185.103 49.6543C179.115 51.1183 170.948 52.0029 162 52.0029C153.052 52.0029 144.885 51.1183 138.897 49.6543C135.919 48.9261 133.368 48.0274 131.514 46.9551C129.859 45.9985 128.112 44.5199 128.005 42.3867L128 42.1787L128.005 41.9697C128.113 39.8367 129.859 38.3579 131.514 37.4014C133.368 36.3291 135.92 35.4303 138.897 34.7021C139.875 34.463 140.912 34.242 142 34.0352V36.0723C134.685 37.5063 130 39.7078 130 42.1787C130.001 46.5 144.327 50.0029 162 50.0029C179.397 50.0029 193.552 46.6082 193.989 42.3799L194 42.1787C194 39.7078 189.315 37.5063 182 36.0723V34.0352Z" fill="#FAFAFA"/>
<mask id="mask2_580_3528" style="mask-type:alpha" maskUnits="userSpaceOnUse" x="18" y="14" width="32" height="32">
<rect x="18" y="14" width="32" height="32" fill="#D9D9D9"/>
</mask>
<g mask="url(#mask2_580_3528)">
<path d="M27.3334 43.3332V39.9998L31.3334 37.1998V32.3998L20.6667 36.6665V32.6665L31.3334 25.1998V19.3332C31.3334 18.5998 31.5945 17.9721 32.1167 17.4498C32.6389 16.9276 33.2667 16.6665 34 16.6665C34.7334 16.6665 35.3611 16.9276 35.8834 17.4498C36.4056 17.9721 36.6667 18.5998 36.6667 19.3332V25.1998L47.3334 32.6665V36.6665L36.6667 32.3998V37.1998L40.6667 39.9998V43.3332L34 41.3332L27.3334 43.3332Z" fill="#FAFAFA"/>
</g>
<path d="M54 34.0352C55.0881 34.242 56.1247 34.463 57.1025 34.7021C60.0805 35.4303 62.6315 36.3291 64.4863 37.4014C66.1943 38.3888 67.9998 39.9331 68 42.1787C67.9998 44.4242 66.1942 45.9677 64.4863 46.9551C62.6315 48.0274 60.0805 48.9261 57.1025 49.6543C51.1153 51.1183 42.9482 52.0029 34 52.0029C25.0518 52.0029 16.8847 51.1183 10.8975 49.6543C7.91947 48.9261 5.36848 48.0274 3.51367 46.9551C1.85908 45.9985 0.112371 44.5199 0.00488281 42.3867L0 42.1787L0.00488281 41.9697C0.112575 39.8367 1.85913 38.3579 3.51367 37.4014C5.36849 36.3291 7.91951 35.4303 10.8975 34.7021C11.8753 34.463 12.9119 34.242 14 34.0352V36.0723C6.68484 37.5063 2.0004 39.7078 2 42.1787C2.00098 46.5 16.3275 50.0029 34 50.0029C51.3974 50.0029 65.5518 46.6082 65.9893 42.3799L66 42.1787C65.9996 39.7078 61.3152 37.5063 54 36.0723V34.0352Z" fill="#FAFAFA"/>
<mask id="mask3_580_3528" style="mask-type:alpha" maskUnits="userSpaceOnUse" x="274" y="14" width="32" height="32">
<rect x="274" y="14" width="32" height="32" fill="#D9D9D9"/>
</mask>
<g mask="url(#mask3_580_3528)">
<path d="M276.667 42V18H290V23.3333H303.333V42H276.667ZM279.333 39.3333H282V36.6667H279.333V39.3333ZM279.333 34H282V31.3333H279.333V34ZM279.333 28.6667H282V26H279.333V28.6667ZM279.333 23.3333H282V20.6667H279.333V23.3333ZM284.667 39.3333H287.333V36.6667H284.667V39.3333ZM284.667 34H287.333V31.3333H284.667V34ZM284.667 28.6667H287.333V26H284.667V28.6667ZM284.667 23.3333H287.333V20.6667H284.667V23.3333ZM290 39.3333H300.667V26H290V28.6667H292.667V31.3333H290V34H292.667V36.6667H290V39.3333ZM295.333 31.3333V28.6667H298V31.3333H295.333ZM295.333 36.6667V34H298V36.6667H295.333Z" fill="#FAFAFA"/>
</g>
<path d="M310 34.0352C311.088 34.242 312.125 34.463 313.103 34.7021C316.08 35.4303 318.632 36.3291 320.486 37.4014C322.194 38.3888 324 39.9331 324 42.1787C324 44.4242 322.194 45.9677 320.486 46.9551C318.632 48.0274 316.081 48.9261 313.103 49.6543C307.115 51.1183 298.948 52.0029 290 52.0029C281.052 52.0029 272.885 51.1183 266.897 49.6543C263.919 48.9261 261.368 48.0274 259.514 46.9551C257.859 45.9985 256.112 44.5199 256.005 42.3867L256 42.1787L256.005 41.9697C256.113 39.8367 257.859 38.3579 259.514 37.4014C261.368 36.3291 263.92 35.4303 266.897 34.7021C267.875 34.463 268.912 34.242 270 34.0352V36.0723C262.685 37.5063 258 39.7078 258 42.1787C258.001 46.5 272.327 50.0029 290 50.0029C307.397 50.0029 321.552 46.6082 321.989 42.3799L322 42.1787C322 39.7078 317.315 37.5063 310 36.0723V34.0352Z" fill="#FAFAFA"/>
<path d="M195 42L257 42" stroke="#FAFAFA" stroke-width="2" stroke-dasharray="8 4"/>
<path d="M67 42L129 42" stroke="#FAFAFA" stroke-width="2" stroke-dasharray="8 4"/>
<path d="M207 50.44C207.433 50.44 207.82 50.5233 208.16 50.69C208.5 50.8567 208.767 51.1 208.96 51.42C209.16 51.74 209.26 52.1367 209.26 52.61C209.26 53.1233 209.153 53.5667 208.94 53.94C208.727 54.3133 208.407 54.6 207.98 54.8C207.56 55 207.037 55.1 206.41 55.1C206.037 55.1 205.683 55.0667 205.35 55C205.023 54.9333 204.737 54.8367 204.49 54.71V53.41C204.737 53.5367 205.033 53.6467 205.38 53.74C205.727 53.8267 206.053 53.87 206.36 53.87C206.66 53.87 206.91 53.83 207.11 53.75C207.317 53.67 207.473 53.5467 207.58 53.38C207.687 53.2133 207.74 53 207.74 52.74C207.74 52.3867 207.623 52.12 207.39 51.94C207.157 51.7533 206.797 51.66 206.31 51.66C206.123 51.66 205.93 51.68 205.73 51.72C205.53 51.7533 205.363 51.7867 205.23 51.82L204.63 51.5L204.9 47.86H208.77V49.14H206.22L206.09 50.54C206.203 50.52 206.323 50.5 206.45 50.48C206.583 50.4533 206.767 50.44 207 50.44ZM212.803 51.99C212.556 51.8833 212.346 51.8133 212.173 51.78C212.006 51.74 211.846 51.72 211.693 51.72C211.506 51.72 211.309 51.7767 211.103 51.89C210.903 52.0033 210.719 52.1433 210.553 52.31V51.18C210.719 51.0067 210.906 50.8767 211.113 50.79C211.319 50.6967 211.549 50.65 211.803 50.65C211.996 50.65 212.189 50.67 212.383 50.71C212.583 50.7433 212.839 50.8267 213.153 50.96C213.399 51.0667 213.609 51.14 213.783 51.18C213.956 51.2133 214.116 51.23 214.263 51.23C214.456 51.23 214.653 51.1733 214.853 51.06C215.053 50.9467 215.236 50.8067 215.403 50.64V51.77C215.236 51.9433 215.049 52.0767 214.843 52.17C214.636 52.2567 214.406 52.3 214.153 52.3C213.959 52.3 213.763 52.28 213.563 52.24C213.369 52.2 213.116 52.1167 212.803 51.99ZM220.375 55H218.865V50.87C218.865 50.7567 218.865 50.6167 218.865 50.45C218.872 50.2833 218.879 50.11 218.885 49.93C218.892 49.75 218.899 49.59 218.905 49.45C218.872 49.49 218.799 49.5633 218.685 49.67C218.579 49.77 218.479 49.86 218.385 49.94L217.565 50.6L216.835 49.69L219.135 47.86H220.375V55ZM227.718 51.43C227.718 52.0033 227.671 52.5167 227.578 52.97C227.491 53.4233 227.348 53.81 227.148 54.13C226.955 54.4433 226.698 54.6833 226.378 54.85C226.065 55.0167 225.678 55.1 225.218 55.1C224.645 55.1 224.175 54.9533 223.808 54.66C223.441 54.3667 223.168 53.9467 222.988 53.4C222.815 52.8533 222.728 52.1967 222.728 51.43C222.728 50.6567 222.808 49.9967 222.968 49.45C223.128 48.9033 223.391 48.4833 223.758 48.19C224.125 47.8967 224.611 47.75 225.218 47.75C225.791 47.75 226.261 47.8967 226.628 48.19C226.995 48.4767 227.268 48.8967 227.448 49.45C227.628 49.9967 227.718 50.6567 227.718 51.43ZM224.228 51.43C224.228 51.97 224.258 52.4233 224.318 52.79C224.378 53.15 224.478 53.4233 224.618 53.61C224.765 53.79 224.965 53.88 225.218 53.88C225.471 53.88 225.668 53.79 225.808 53.61C225.955 53.43 226.058 53.16 226.118 52.8C226.185 52.4333 226.218 51.9767 226.218 51.43C226.218 50.8833 226.185 50.43 226.118 50.07C226.058 49.7033 225.955 49.43 225.808 49.25C225.668 49.0633 225.471 48.97 225.218 48.97C224.965 48.97 224.765 49.0633 224.618 49.25C224.478 49.43 224.378 49.7033 224.318 50.07C224.258 50.43 224.228 50.8833 224.228 51.43ZM235.681 49.44C236.301 49.44 236.767 49.6 237.081 49.92C237.401 50.2333 237.561 50.74 237.561 51.44V55H236.071V51.81C236.071 51.4167 236.004 51.1233 235.871 50.93C235.737 50.73 235.531 50.63 235.251 50.63C234.857 50.63 234.577 50.77 234.411 51.05C234.244 51.33 234.161 51.7333 234.161 52.26V55H232.671V51.81C232.671 51.55 232.641 51.3333 232.581 51.16C232.521 50.9867 232.431 50.8567 232.311 50.77C232.191 50.6767 232.037 50.63 231.851 50.63C231.577 50.63 231.361 50.7 231.201 50.84C231.041 50.98 230.927 51.1833 230.861 51.45C230.794 51.7167 230.761 52.0433 230.761 52.43V55H229.271V49.54H230.411L230.611 50.24H230.691C230.804 50.0533 230.944 49.9033 231.111 49.79C231.277 49.67 231.461 49.5833 231.661 49.53C231.867 49.47 232.074 49.44 232.281 49.44C232.681 49.44 233.021 49.5067 233.301 49.64C233.581 49.7667 233.794 49.9667 233.941 50.24H234.071C234.237 49.96 234.467 49.7567 234.761 49.63C235.061 49.5033 235.367 49.44 235.681 49.44ZM240.985 49.54V55H239.495V49.54H240.985ZM240.245 47.4C240.465 47.4 240.655 47.4533 240.815 47.56C240.975 47.66 241.055 47.85 241.055 48.13C241.055 48.4033 240.975 48.5933 240.815 48.7C240.655 48.8067 240.465 48.86 240.245 48.86C240.018 48.86 239.825 48.8067 239.665 48.7C239.512 48.5933 239.435 48.4033 239.435 48.13C239.435 47.85 239.512 47.66 239.665 47.56C239.825 47.4533 240.018 47.4 240.245 47.4ZM246.042 49.44C246.628 49.44 247.098 49.6 247.452 49.92C247.805 50.2333 247.982 50.74 247.982 51.44V55H246.492V51.81C246.492 51.4167 246.422 51.1233 246.282 50.93C246.142 50.73 245.918 50.63 245.612 50.63C245.158 50.63 244.848 50.7867 244.682 51.1C244.515 51.4067 244.432 51.85 244.432 52.43V55H242.942V49.54H244.082L244.282 50.24H244.362C244.482 50.0533 244.628 49.9033 244.802 49.79C244.975 49.67 245.168 49.5833 245.382 49.53C245.595 49.47 245.815 49.44 246.042 49.44Z" fill="#FAFAFA"/>
<path d="M87.11 49.46C87.11 49.7867 87.04 50.07 86.9 50.31C86.7667 50.55 86.5833 50.7467 86.35 50.9C86.1233 51.0533 85.8633 51.1667 85.57 51.24V51.27C86.1433 51.3367 86.5767 51.51 86.87 51.79C87.17 52.07 87.32 52.4467 87.32 52.92C87.32 53.3333 87.2167 53.7067 87.01 54.04C86.81 54.3667 86.4967 54.6267 86.07 54.82C85.65 55.0067 85.1067 55.1 84.44 55.1C84.0467 55.1 83.68 55.0667 83.34 55C83 54.9333 82.68 54.8367 82.38 54.71V53.43C82.6867 53.5833 83.0067 53.7 83.34 53.78C83.68 53.86 83.9933 53.9 84.28 53.9C84.82 53.9 85.1967 53.8067 85.41 53.62C85.63 53.4333 85.74 53.17 85.74 52.83C85.74 52.63 85.69 52.4633 85.59 52.33C85.49 52.19 85.3133 52.0867 85.06 52.02C84.8133 51.9467 84.4667 51.91 84.02 51.91H83.48V50.75H84.03C84.47 50.75 84.8033 50.71 85.03 50.63C85.2633 50.5433 85.42 50.43 85.5 50.29C85.5867 50.1433 85.63 49.9767 85.63 49.79C85.63 49.5367 85.55 49.34 85.39 49.2C85.2367 49.0533 84.9767 48.98 84.61 48.98C84.3833 48.98 84.1767 49.01 83.99 49.07C83.8033 49.1233 83.6333 49.19 83.48 49.27C83.3333 49.35 83.2033 49.4267 83.09 49.5L82.39 48.46C82.5767 48.3267 82.7833 48.2067 83.01 48.1C83.2433 47.9933 83.5 47.91 83.78 47.85C84.06 47.79 84.3733 47.76 84.72 47.76C85.4533 47.76 86.0333 47.91 86.46 48.21C86.8933 48.5033 87.11 48.92 87.11 49.46ZM93.4727 51.43C93.4727 52.0033 93.426 52.5167 93.3327 52.97C93.246 53.4233 93.1027 53.81 92.9027 54.13C92.7093 54.4433 92.4527 54.6833 92.1327 54.85C91.8193 55.0167 91.4327 55.1 90.9727 55.1C90.3993 55.1 89.9293 54.9533 89.5627 54.66C89.196 54.3667 88.9227 53.9467 88.7427 53.4C88.5693 52.8533 88.4827 52.1967 88.4827 51.43C88.4827 50.6567 88.5627 49.9967 88.7227 49.45C88.8827 48.9033 89.146 48.4833 89.5127 48.19C89.8793 47.8967 90.366 47.75 90.9727 47.75C91.546 47.75 92.016 47.8967 92.3827 48.19C92.7493 48.4767 93.0227 48.8967 93.2027 49.45C93.3827 49.9967 93.4727 50.6567 93.4727 51.43ZM89.9827 51.43C89.9827 51.97 90.0127 52.4233 90.0727 52.79C90.1327 53.15 90.2327 53.4233 90.3727 53.61C90.5193 53.79 90.7193 53.88 90.9727 53.88C91.226 53.88 91.4227 53.79 91.5627 53.61C91.7093 53.43 91.8127 53.16 91.8727 52.8C91.9393 52.4333 91.9727 51.9767 91.9727 51.43C91.9727 50.8833 91.9393 50.43 91.8727 50.07C91.8127 49.7033 91.7093 49.43 91.5627 49.25C91.4227 49.0633 91.226 48.97 90.9727 48.97C90.7193 48.97 90.5193 49.0633 90.3727 49.25C90.2327 49.43 90.1327 49.7033 90.0727 50.07C90.0127 50.43 89.9827 50.8833 89.9827 51.43ZM101.435 49.44C102.055 49.44 102.522 49.6 102.835 49.92C103.155 50.2333 103.315 50.74 103.315 51.44V55H101.825V51.81C101.825 51.4167 101.759 51.1233 101.625 50.93C101.492 50.73 101.285 50.63 101.005 50.63C100.612 50.63 100.332 50.77 100.165 51.05C99.9986 51.33 99.9153 51.7333 99.9153 52.26V55H98.4253V51.81C98.4253 51.55 98.3953 51.3333 98.3353 51.16C98.2753 50.9867 98.1853 50.8567 98.0653 50.77C97.9453 50.6767 97.792 50.63 97.6053 50.63C97.332 50.63 97.1153 50.7 96.9553 50.84C96.7953 50.98 96.682 51.1833 96.6153 51.45C96.5486 51.7167 96.5153 52.0433 96.5153 52.43V55H95.0253V49.54H96.1653L96.3653 50.24H96.4453C96.5586 50.0533 96.6986 49.9033 96.8653 49.79C97.032 49.67 97.2153 49.5833 97.4153 49.53C97.622 49.47 97.8286 49.44 98.0353 49.44C98.4353 49.44 98.7753 49.5067 99.0553 49.64C99.3353 49.7667 99.5486 49.9667 99.6953 50.24H99.8253C99.992 49.96 100.222 49.7567 100.515 49.63C100.815 49.5033 101.122 49.44 101.435 49.44ZM106.74 49.54V55H105.25V49.54H106.74ZM106 47.4C106.22 47.4 106.41 47.4533 106.57 47.56C106.73 47.66 106.81 47.85 106.81 48.13C106.81 48.4033 106.73 48.5933 106.57 48.7C106.41 48.8067 106.22 48.86 106 48.86C105.773 48.86 105.58 48.8067 105.42 48.7C105.266 48.5933 105.19 48.4033 105.19 48.13C105.19 47.85 105.266 47.66 105.42 47.56C105.58 47.4533 105.773 47.4 106 47.4ZM111.796 49.44C112.383 49.44 112.853 49.6 113.206 49.92C113.56 50.2333 113.736 50.74 113.736 51.44V55H112.246V51.81C112.246 51.4167 112.176 51.1233 112.036 50.93C111.896 50.73 111.673 50.63 111.366 50.63C110.913 50.63 110.603 50.7867 110.436 51.1C110.27 51.4067 110.186 51.85 110.186 52.43V55H108.696V49.54H109.836L110.036 50.24H110.116C110.236 50.0533 110.383 49.9033 110.556 49.79C110.73 49.67 110.923 49.5833 111.136 49.53C111.35 49.47 111.57 49.44 111.796 49.44Z" fill="#FAFAFA"/>
<path d="M3.88 2.24H12.14V7.26H10.88V3.42H5.08V7.31H3.88V2.24ZM4.5 5.58H11.58V6.76H4.5V5.58ZM7.34 0.5H8.61V9.89H7.34V0.5ZM19.22 1.08H22.14V2.2H20.39V9.9H19.22V1.08ZM13.96 1.47H18.79V2.51H13.96V1.47ZM13.74 4.26H18.92V5.35H13.74V4.26ZM15.79 0.579999H16.96V2.12H15.79V0.579999ZM14.53 2.78L15.52 2.58C15.62 2.8 15.7067 3.04667 15.78 3.32C15.8533 3.59333 15.9033 3.83333 15.93 4.04L14.88 4.28C14.8733 4.08 14.8367 3.84 14.77 3.56C14.7033 3.27333 14.6233 3.01333 14.53 2.78ZM17.22 2.54L18.34 2.78C18.2333 3.05333 18.1267 3.32667 18.02 3.6C17.92 3.86667 17.8267 4.09667 17.74 4.29L16.8 4.05C16.8533 3.91 16.9067 3.75333 16.96 3.58C17.0133 3.4 17.06 3.22 17.1 3.04C17.1467 2.85333 17.1867 2.68667 17.22 2.54ZM14.73 8.37H17.82V9.41H14.73V8.37ZM14.32 6.01H18.47V9.87H17.3V7.05H15.43V9.91H14.32V6.01ZM21.83 1.08H22.06L22.24 1.03L23.12 1.58C22.94 2.06667 22.7433 2.58 22.53 3.12C22.3233 3.65333 22.1233 4.13333 21.93 4.56C22.21 4.86 22.42 5.15 22.56 5.43C22.7067 5.70333 22.8033 5.96333 22.85 6.21C22.9033 6.45667 22.93 6.69 22.93 6.91C22.93 7.28333 22.8867 7.59333 22.8 7.84C22.7133 8.08667 22.5733 8.27667 22.38 8.41C22.1933 8.54333 21.9633 8.62667 21.69 8.66C21.5767 8.67333 21.45 8.68333 21.31 8.69C21.1767 8.69 21.04 8.69 20.9 8.69C20.8933 8.52333 20.8633 8.32667 20.81 8.1C20.7633 7.87333 20.6933 7.67667 20.6 7.51C20.7133 7.52333 20.8167 7.53333 20.91 7.54C21.0033 7.54 21.09 7.53667 21.17 7.53C21.2367 7.52333 21.3 7.51333 21.36 7.5C21.4267 7.48667 21.4833 7.46333 21.53 7.43C21.6167 7.37667 21.6767 7.29667 21.71 7.19C21.75 7.07667 21.77 6.93333 21.77 6.76C21.77 6.48 21.7 6.16667 21.56 5.82C21.4267 5.46667 21.1567 5.09667 20.75 4.71C20.85 4.47 20.95 4.20333 21.05 3.91C21.1567 3.61 21.2567 3.31 21.35 3.01C21.45 2.70333 21.54 2.41667 21.62 2.15C21.7067 1.88333 21.7767 1.66333 21.83 1.49V1.08ZM26.28 2.54H31.22V3.58H26.28V2.54ZM26.55 4.53H31V5.54H26.55V4.53ZM26.18 6.73H31.39V7.71H26.18V6.73ZM28.19 2.87H29.3V7.25H28.19V2.87ZM29.62 5.86L30.38 5.47C30.5267 5.61 30.68 5.77333 30.84 5.96C31 6.14 31.12 6.3 31.2 6.44L30.4 6.89C30.32 6.75 30.2033 6.58333 30.05 6.39C29.9033 6.19667 29.76 6.02 29.62 5.86ZM24.56 0.899999H33.01V9.88H31.73V2H25.78V9.88H24.56V0.899999ZM25.23 8.28H32.32V9.39H25.23V8.28ZM38.92 4.54H42.21V5.49H38.92V4.54ZM38.01 6.1H43.19V7.07H38.01V6.1ZM38.47 1.29H40.06V2.07H38.47V1.29ZM38.26 2.72L38.63 2.21C38.7967 2.29 38.9667 2.38667 39.14 2.5C39.3133 2.60667 39.4467 2.70333 39.54 2.79L39.16 3.37C39.06 3.27 38.9233 3.16 38.75 3.04C38.5833 2.91333 38.42 2.80667 38.26 2.72ZM37.66 3.51L38.09 3.05C38.2433 3.14333 38.4033 3.25333 38.57 3.38C38.7367 3.50667 38.8667 3.62 38.96 3.72L38.52 4.23C38.4267 4.13 38.2967 4.01 38.13 3.87C37.97 3.73 37.8133 3.61 37.66 3.51ZM41.62 7.82L42.53 7.35C42.6833 7.51667 42.84 7.70333 43 7.91C43.16 8.11667 43.31 8.32 43.45 8.52C43.59 8.72 43.6967 8.90333 43.77 9.07L42.8 9.59C42.7333 9.42333 42.6367 9.23667 42.51 9.03C42.3833 8.83 42.24 8.62333 42.08 8.41C41.9267 8.19 41.7733 7.99333 41.62 7.82ZM39.73 1.29H39.92L40.1 1.25L40.74 1.48C40.6 2.18 40.3933 2.81 40.12 3.37C39.8467 3.92333 39.5233 4.40667 39.15 4.82C38.7767 5.23333 38.3567 5.57667 37.89 5.85C37.8233 5.73 37.7267 5.59 37.6 5.43C37.48 5.27 37.3667 5.14333 37.26 5.05C37.6667 4.84333 38.0333 4.56 38.36 4.2C38.6933 3.84 38.98 3.42667 39.22 2.96C39.46 2.48667 39.63 1.98333 39.73 1.45V1.29ZM41.62 1.21H43.11V2.06H41.62V1.21ZM38.53 0.54L39.45 0.73C39.2567 1.36333 38.9933 1.95 38.66 2.49C38.3333 3.03 37.9667 3.48 37.56 3.84C37.5067 3.78667 37.4367 3.72 37.35 3.64C37.2633 3.56 37.1733 3.48333 37.08 3.41C36.9867 3.33 36.9033 3.26667 36.83 3.22C37.2233 2.90667 37.5667 2.51667 37.86 2.05C38.1533 1.58333 38.3767 1.08 38.53 0.54ZM42.73 1.21H42.95L43.14 1.16L43.79 1.54C43.6433 1.98667 43.4533 2.43333 43.22 2.88C42.9933 3.32667 42.75 3.7 42.49 4C42.4167 3.89333 42.3167 3.77667 42.19 3.65C42.0633 3.51667 41.95 3.41333 41.85 3.34C41.9833 3.16667 42.1067 2.97 42.22 2.75C42.3333 2.52333 42.4333 2.29333 42.52 2.06C42.6067 1.82 42.6767 1.6 42.73 1.4V1.21ZM40.04 6.56H41.16V8.79C41.16 9.03667 41.13 9.23333 41.07 9.38C41.0167 9.52667 40.9033 9.64 40.73 9.72C40.5633 9.8 40.3667 9.85 40.14 9.87C39.92 9.89 39.6567 9.9 39.35 9.9C39.33 9.74667 39.2833 9.57333 39.21 9.38C39.1367 9.19333 39.0633 9.03 38.99 8.89C39.1767 8.89667 39.3567 8.9 39.53 8.9C39.71 8.9 39.8267 8.9 39.88 8.9C39.94 8.89333 39.98 8.88333 40 8.87C40.0267 8.85 40.04 8.81667 40.04 8.77V6.56ZM38.28 7.4L39.32 7.67C39.1733 8.03 38.9867 8.38667 38.76 8.74C38.5333 9.08667 38.31 9.37667 38.09 9.61C38.0167 9.55667 37.9233 9.49333 37.81 9.42C37.7033 9.34667 37.5933 9.27667 37.48 9.21C37.3667 9.14333 37.2667 9.09 37.18 9.05C37.4067 8.83667 37.6167 8.58333 37.81 8.29C38.01 7.99667 38.1667 7.7 38.28 7.4ZM41.23 0.68C41.37 1.32 41.56 1.91667 41.8 2.47C42.04 3.01667 42.3433 3.5 42.71 3.92C43.0833 4.34 43.5233 4.67 44.03 4.91C43.91 5.00333 43.78 5.14 43.64 5.32C43.5067 5.49333 43.4 5.65 43.32 5.79C42.7667 5.49 42.2933 5.10333 41.9 4.63C41.5067 4.15 41.18 3.59333 40.92 2.96C40.66 2.32 40.4467 1.62 40.28 0.86L41.23 0.68ZM34.89 0.93H36.94V2.01H35.93V9.9H34.89V0.93ZM36.6 0.93H36.78L36.93 0.899999L37.64 1.3C37.58 1.6 37.5067 1.92333 37.42 2.27C37.34 2.61 37.2567 2.94667 37.17 3.28C37.09 3.60667 37.01 3.90667 36.93 4.18C37.17 4.58667 37.3267 4.97333 37.4 5.34C37.4733 5.70667 37.51 6.05 37.51 6.37C37.51 6.69667 37.4767 6.97 37.41 7.19C37.35 7.41 37.2567 7.57333 37.13 7.68C37.0567 7.74 36.9767 7.78667 36.89 7.82C36.81 7.84667 36.72 7.87 36.62 7.89C36.5533 7.89667 36.4767 7.90333 36.39 7.91C36.3033 7.91 36.2133 7.91 36.12 7.91C36.12 7.77 36.1033 7.61 36.07 7.43C36.0433 7.24333 35.99 7.08 35.91 6.94C35.97 6.94667 36.0233 6.95 36.07 6.95C36.1233 6.95 36.17 6.95 36.21 6.95C36.2967 6.95 36.3667 6.92 36.42 6.86C36.46 6.81333 36.49 6.73333 36.51 6.62C36.53 6.50667 36.54 6.37333 36.54 6.22C36.54 5.96667 36.51 5.67333 36.45 5.34C36.3967 5 36.2567 4.64333 36.03 4.27C36.09 4.04333 36.1467 3.79 36.2 3.51C36.26 3.23 36.3133 2.95 36.36 2.67C36.4133 2.38333 36.46 2.12 36.5 1.88C36.54 1.63333 36.5733 1.43 36.6 1.27V0.93ZM48.95 0.5H50.19V2.14H48.95V0.5ZM48.95 6.43H50.19V9.1H48.95V6.43ZM47.88 2.39H49.13C49.0833 2.82333 49.0067 3.21667 48.9 3.57C48.7933 3.92333 48.6233 4.24 48.39 4.52C48.1567 4.8 47.8333 5.04667 47.42 5.26C47.0067 5.46667 46.4733 5.64 45.82 5.78C45.7867 5.68 45.7333 5.56667 45.66 5.44C45.5933 5.31333 45.5167 5.19 45.43 5.07C45.3433 4.94333 45.26 4.84333 45.18 4.77C45.7467 4.67 46.2 4.55 46.54 4.41C46.88 4.26333 47.14 4.09333 47.32 3.9C47.5067 3.70667 47.6367 3.48333 47.71 3.23C47.79 2.97667 47.8467 2.69667 47.88 2.39ZM50.08 2.37H51.27V4.08C51.27 4.22 51.29 4.30667 51.33 4.34C51.3767 4.37333 51.4767 4.39 51.63 4.39C51.67 4.39 51.7267 4.39 51.8 4.39C51.88 4.39 51.9667 4.39 52.06 4.39C52.1533 4.39 52.2433 4.39 52.33 4.39C52.4167 4.39 52.48 4.39 52.52 4.39C52.6067 4.39 52.67 4.37333 52.71 4.34C52.7567 4.3 52.79 4.23 52.81 4.13C52.83 4.02333 52.8467 3.86667 52.86 3.66C52.94 3.72 53.04 3.77667 53.16 3.83C53.28 3.88333 53.4067 3.93333 53.54 3.98C53.6733 4.02 53.79 4.05 53.89 4.07C53.85 4.41667 53.7833 4.69 53.69 4.89C53.5967 5.08333 53.4667 5.22 53.3 5.3C53.1333 5.37333 52.9133 5.41 52.64 5.41C52.58 5.41 52.4967 5.41 52.39 5.41C52.2833 5.41 52.1667 5.41 52.04 5.41C51.92 5.41 51.8033 5.41 51.69 5.41C51.5833 5.41 51.5033 5.41 51.45 5.41C51.0767 5.41 50.79 5.37 50.59 5.29C50.3967 5.20333 50.2633 5.06333 50.19 4.87C50.1167 4.67667 50.08 4.41667 50.08 4.09V2.37ZM45.32 1.4H53.91V3.48H52.67V2.49H46.5V3.67H45.32V1.4ZM46.26 5.97H53.15V7.04H46.26V5.97ZM45.21 8.54H54V9.63H45.21V8.54ZM58.15 1.52H64.41V2.59H58.15V1.52ZM57.76 3.34H64.71V4.42H57.76V3.34ZM59.39 0.51H60.55V4.13H59.39V0.51ZM61.94 0.51H63.12V4.14H61.94V0.51ZM59.47 4.04L60.5 4.39C60.34 4.76333 60.1467 5.13 59.92 5.49C59.7 5.85 59.4567 6.18333 59.19 6.49C58.9233 6.79 58.6433 7.04333 58.35 7.25C58.29 7.15667 58.21 7.05667 58.11 6.95C58.0167 6.83667 57.92 6.72667 57.82 6.62C57.72 6.50667 57.6233 6.41667 57.53 6.35C57.7967 6.18333 58.0533 5.97667 58.3 5.73C58.5467 5.48333 58.77 5.21667 58.97 4.93C59.1767 4.63667 59.3433 4.34 59.47 4.04ZM63 4.01C63.1267 4.29 63.2867 4.57 63.48 4.85C63.68 5.12333 63.9033 5.37667 64.15 5.61C64.3967 5.83667 64.6467 6.02333 64.9 6.17C64.8133 6.24333 64.7133 6.33667 64.6 6.45C64.4933 6.55667 64.39 6.67333 64.29 6.8C64.1967 6.92 64.12 7.02667 64.06 7.12C63.7733 6.92 63.5 6.67333 63.24 6.38C62.9867 6.08667 62.7533 5.76667 62.54 5.42C62.3267 5.07333 62.1433 4.72 61.99 4.36L63 4.01ZM59.62 6.83H61.88V6.1H59.77V5.17H62.97V7.76H59.62V6.83ZM59.13 6.83H60.26V8.48C60.26 8.63333 60.3 8.73 60.38 8.77C60.4667 8.81 60.6567 8.83 60.95 8.83C60.9967 8.83 61.0767 8.83 61.19 8.83C61.3033 8.83 61.43 8.83 61.57 8.83C61.71 8.83 61.8533 8.83 62 8.83C62.1467 8.83 62.2767 8.83 62.39 8.83C62.51 8.83 62.6033 8.83 62.67 8.83C62.8367 8.83 62.9567 8.81 63.03 8.77C63.11 8.72333 63.1667 8.62667 63.2 8.48C63.2333 8.32667 63.26 8.1 63.28 7.8C63.4067 7.89333 63.5733 7.98 63.78 8.06C63.9867 8.13333 64.1667 8.18333 64.32 8.21C64.2733 8.66333 64.1967 9.01 64.09 9.25C63.99 9.49 63.8333 9.65333 63.62 9.74C63.4133 9.83333 63.1267 9.88 62.76 9.88C62.7067 9.88 62.6133 9.88 62.48 9.88C62.3533 9.88 62.2067 9.88 62.04 9.88C61.88 9.88 61.7167 9.88 61.55 9.88C61.3833 9.88 61.2367 9.88 61.11 9.88C60.9833 9.88 60.8933 9.88 60.84 9.88C60.4 9.88 60.0567 9.84 59.81 9.76C59.5633 9.68 59.3867 9.54 59.28 9.34C59.18 9.14 59.13 8.86333 59.13 8.51V6.83ZM55.79 1.44L56.46 0.54C56.6533 0.613333 56.86 0.706666 57.08 0.82C57.3067 0.926666 57.5167 1.04 57.71 1.16C57.91 1.28 58.0733 1.39667 58.2 1.51L57.5 2.5C57.3867 2.38 57.2333 2.25667 57.04 2.13C56.8467 2.00333 56.64 1.87667 56.42 1.75C56.2 1.62333 55.99 1.52 55.79 1.44ZM55.27 4.14L55.92 3.23C56.12 3.30333 56.33 3.39 56.55 3.49C56.77 3.59 56.9767 3.7 57.17 3.82C57.37 3.93333 57.5333 4.04333 57.66 4.15L56.97 5.15C56.85 5.03667 56.6933 4.92 56.5 4.8C56.3133 4.67333 56.11 4.55333 55.89 4.44C55.6767 4.32667 55.47 4.22667 55.27 4.14ZM55.52 9.07C55.6733 8.81 55.8433 8.50667 56.03 8.16C56.2167 7.80667 56.4067 7.43333 56.6 7.04C56.7933 6.64 56.97 6.24333 57.13 5.85L58.08 6.57C57.9333 6.93 57.7767 7.29667 57.61 7.67C57.4433 8.03667 57.2733 8.4 57.1 8.76C56.9333 9.11333 56.7633 9.45333 56.59 9.78L55.52 9.07Z" fill="#FAFAFA"/>
<path d="M145.22 8.41H149.69V9.5H145.22V8.41ZM144.71 1.49H148.26V2.55H144.71V1.49ZM144.98 0.45L146.33 0.709999C146.043 1.19667 145.713 1.67 145.34 2.13C144.973 2.58333 144.553 3.02 144.08 3.44C143.613 3.85333 143.08 4.23667 142.48 4.59C142.42 4.49 142.34 4.38333 142.24 4.27C142.14 4.15 142.037 4.03333 141.93 3.92C141.823 3.80667 141.723 3.71667 141.63 3.65C142.183 3.35667 142.673 3.03333 143.1 2.68C143.533 2.32667 143.907 1.96 144.22 1.58C144.533 1.19333 144.787 0.816667 144.98 0.45ZM147.88 1.49H148.1L148.3 1.43L149.13 1.86C148.837 2.64 148.457 3.35333 147.99 4C147.53 4.64 147 5.21667 146.4 5.73C145.807 6.24333 145.163 6.69 144.47 7.07C143.777 7.45 143.057 7.76667 142.31 8.02C142.263 7.90667 142.2 7.78333 142.12 7.65C142.04 7.51667 141.957 7.38667 141.87 7.26C141.783 7.13333 141.697 7.02667 141.61 6.94C142.303 6.74667 142.973 6.48333 143.62 6.15C144.273 5.81 144.877 5.41333 145.43 4.96C145.99 4.50667 146.48 4.00667 146.9 3.46C147.32 2.90667 147.647 2.31667 147.88 1.69V1.49ZM143.4 3.68L144.3 2.91C144.533 3.07 144.777 3.25 145.03 3.45C145.29 3.65 145.533 3.85333 145.76 4.06C145.993 4.26 146.183 4.45 146.33 4.63L145.36 5.49C145.233 5.31667 145.06 5.12333 144.84 4.91C144.62 4.69 144.383 4.47333 144.13 4.26C143.877 4.04667 143.633 3.85333 143.4 3.68ZM149.14 5.37H150.38V9.9H149.14V5.37ZM145.73 5.37H149.74V6.45H145.73V9.89H144.52V6.25L145.44 5.37H145.73ZM152.24 2.21H161.37V3.38H152.24V2.21ZM153.97 8.28H159.59V9.43H153.97V8.28ZM156.15 0.5H157.46V5.83H156.15V0.5ZM153.26 5.18H160.36V9.85H159.05V6.32H154.51V9.89H153.26V5.18ZM163.57 0.97H164.78V3.87C164.78 4.30333 164.767 4.78333 164.74 5.31C164.713 5.83667 164.657 6.37333 164.57 6.92C164.49 7.46667 164.367 7.99667 164.2 8.51C164.04 9.01667 163.83 9.48 163.57 9.9C163.497 9.83333 163.393 9.75667 163.26 9.67C163.133 9.59 163 9.51333 162.86 9.44C162.727 9.37333 162.607 9.32 162.5 9.28C162.753 8.89333 162.95 8.47 163.09 8.01C163.237 7.55 163.343 7.08 163.41 6.6C163.477 6.11333 163.52 5.63667 163.54 5.17C163.56 4.70333 163.57 4.27 163.57 3.87V0.97ZM164.24 0.97H171.21V3.53H164.24V2.56H170V1.94H164.24V0.97ZM164.57 3.96H171.48V4.91H164.57V3.96ZM165.05 7.07H170.99V8.02H165.05V7.07ZM164.37 8.71H171.7V9.66H164.37V8.71ZM167.41 6.32H168.57V9.36H167.41V6.32ZM164.84 5.67C165.313 5.65667 165.853 5.64333 166.46 5.63C167.073 5.61 167.72 5.59 168.4 5.57C169.087 5.54333 169.767 5.52 170.44 5.5L170.41 6.37C169.757 6.39667 169.097 6.42667 168.43 6.46C167.763 6.48667 167.127 6.51333 166.52 6.54C165.913 6.56 165.37 6.58 164.89 6.6L164.84 5.67ZM166.67 4.17L167.88 4.57C167.667 4.89 167.447 5.20667 167.22 5.52C167 5.83333 166.793 6.1 166.6 6.32L165.68 5.95C165.793 5.79 165.91 5.60667 166.03 5.4C166.157 5.19333 166.277 4.98333 166.39 4.77C166.503 4.55 166.597 4.35 166.67 4.17ZM168.64 5.16L169.57 4.61C169.797 4.76333 170.037 4.93667 170.29 5.13C170.543 5.32333 170.78 5.52 171 5.72C171.227 5.91333 171.413 6.09333 171.56 6.26L170.56 6.89C170.433 6.72333 170.263 6.54 170.05 6.34C169.837 6.13333 169.607 5.92667 169.36 5.72C169.113 5.51333 168.873 5.32667 168.64 5.16ZM177.9 0.86H179V4.72C179 5.12 178.987 5.55 178.96 6.01C178.94 6.47 178.893 6.93667 178.82 7.41C178.747 7.87667 178.64 8.32667 178.5 8.76C178.36 9.18667 178.173 9.57333 177.94 9.92C177.873 9.86 177.78 9.79 177.66 9.71C177.54 9.63 177.417 9.55333 177.29 9.48C177.17 9.40667 177.067 9.35333 176.98 9.32C177.26 8.89333 177.463 8.41667 177.59 7.89C177.723 7.35667 177.807 6.81667 177.84 6.27C177.88 5.71667 177.9 5.2 177.9 4.72V0.86ZM180.43 4.79C180.523 5.39 180.65 5.96 180.81 6.5C180.97 7.04 181.18 7.52 181.44 7.94C181.707 8.36 182.033 8.69667 182.42 8.95C182.34 9.02333 182.247 9.11667 182.14 9.23C182.04 9.34333 181.943 9.46 181.85 9.58C181.763 9.7 181.693 9.81333 181.64 9.92C181.193 9.59333 180.823 9.18333 180.53 8.69C180.237 8.19667 180 7.63667 179.82 7.01C179.647 6.37667 179.507 5.69 179.4 4.95L180.43 4.79ZM178.47 0.86H181.97V5.33H178.47V4.24H180.88V1.96H178.47V0.86ZM173.94 2.41H177.03V3.31H173.94V2.41ZM173.94 3.91H177.03V4.82H173.94V3.91ZM173.36 5.42H176.78V6.35H173.36V5.42ZM175 1.44H175.97V5.95H175V1.44ZM175.45 6.78L175.92 6.62C176.027 6.82 176.123 7.03667 176.21 7.27C176.303 7.50333 176.37 7.70667 176.41 7.88L175.91 8.08C175.877 7.9 175.817 7.69 175.73 7.45C175.643 7.20333 175.55 6.98 175.45 6.78ZM174.76 6.92L175.27 6.83C175.357 7.08333 175.43 7.36333 175.49 7.67C175.55 7.97 175.59 8.22667 175.61 8.44L175.07 8.56C175.057 8.34 175.02 8.07667 174.96 7.77C174.907 7.46333 174.84 7.18 174.76 6.92ZM174.06 6.99L174.59 6.94C174.63 7.22667 174.66 7.54333 174.68 7.89C174.7 8.23 174.707 8.52667 174.7 8.78L174.14 8.85C174.16 8.59667 174.16 8.3 174.14 7.96C174.127 7.61333 174.1 7.29 174.06 6.99ZM173.31 6.76L173.97 6.88C173.95 7.19333 173.92 7.50667 173.88 7.82C173.847 8.12667 173.79 8.41333 173.71 8.68C173.637 8.94667 173.53 9.17667 173.39 9.37L172.77 9.04C172.957 8.77333 173.087 8.43667 173.16 8.03C173.24 7.62333 173.29 7.2 173.31 6.76ZM173.36 0.87H177.2V1.84H174.36V5.83H173.36V0.87ZM176.36 5.42H177.37C177.37 5.42 177.367 5.47333 177.36 5.58C177.36 5.68667 177.357 5.77 177.35 5.83C177.31 6.63667 177.27 7.29333 177.23 7.8C177.19 8.3 177.143 8.68333 177.09 8.95C177.037 9.21667 176.967 9.40333 176.88 9.51C176.793 9.62333 176.7 9.70333 176.6 9.75C176.507 9.80333 176.397 9.84 176.27 9.86C176.17 9.88 176.04 9.89 175.88 9.89C175.72 9.89667 175.55 9.89667 175.37 9.89C175.363 9.74333 175.337 9.58 175.29 9.4C175.25 9.22 175.197 9.07 175.13 8.95C175.263 8.96333 175.383 8.97333 175.49 8.98C175.597 8.98 175.683 8.98 175.75 8.98C175.81 8.98 175.86 8.97333 175.9 8.96C175.94 8.94 175.98 8.90667 176.02 8.86C176.073 8.79333 176.12 8.64667 176.16 8.42C176.2 8.19333 176.237 7.85333 176.27 7.4C176.31 6.94667 176.34 6.34333 176.36 5.59V5.42Z" fill="#FAFAFA"/>
<path d="M260.02 0.83C260 1.04333 259.983 1.21667 259.97 1.35C259.957 1.47667 259.95 1.61 259.95 1.75C259.95 1.83667 259.95 1.97 259.95 2.15C259.95 2.33 259.95 2.51667 259.95 2.71C259.95 2.90333 259.95 3.06333 259.95 3.19H258.56C258.56 3.05 258.56 2.88333 258.56 2.69C258.56 2.49667 258.56 2.31333 258.56 2.14C258.56 1.96667 258.56 1.83667 258.56 1.75C258.56 1.61 258.553 1.47667 258.54 1.35C258.533 1.21667 258.513 1.04333 258.48 0.83H260.02ZM263.39 2.94C263.35 3.04667 263.31 3.18333 263.27 3.35C263.237 3.51 263.21 3.64 263.19 3.74C263.15 3.97333 263.1 4.21 263.04 4.45C262.987 4.69 262.92 4.93 262.84 5.17C262.767 5.41 262.68 5.64667 262.58 5.88C262.487 6.11333 262.38 6.34333 262.26 6.57C261.993 7.05667 261.653 7.5 261.24 7.9C260.833 8.3 260.37 8.64 259.85 8.92C259.33 9.19333 258.773 9.41 258.18 9.57L257.14 8.37C257.367 8.33 257.607 8.27667 257.86 8.21C258.113 8.13667 258.343 8.06 258.55 7.98C258.83 7.87333 259.107 7.74 259.38 7.58C259.66 7.41333 259.923 7.22 260.17 7C260.417 6.78 260.633 6.53667 260.82 6.27C260.987 6.02333 261.13 5.76 261.25 5.48C261.37 5.19333 261.467 4.9 261.54 4.6C261.613 4.29333 261.67 3.99333 261.71 3.7H256.75C256.75 3.78667 256.75 3.89667 256.75 4.03C256.75 4.15667 256.75 4.29667 256.75 4.45C256.75 4.59667 256.75 4.73333 256.75 4.86C256.75 4.98 256.75 5.08 256.75 5.16C256.75 5.27333 256.753 5.4 256.76 5.54C256.767 5.68 256.773 5.8 256.78 5.9H255.4C255.413 5.77333 255.423 5.63667 255.43 5.49C255.443 5.33667 255.45 5.19333 255.45 5.06C255.45 4.98 255.45 4.86333 255.45 4.71C255.45 4.55667 255.45 4.39333 255.45 4.22C255.45 4.04 255.45 3.87 255.45 3.71C255.45 3.55 255.45 3.42333 255.45 3.33C255.45 3.21667 255.447 3.07667 255.44 2.91C255.433 2.73667 255.42 2.59 255.4 2.47C255.573 2.49 255.74 2.50333 255.9 2.51C256.06 2.51667 256.233 2.52 256.42 2.52H261.69C261.897 2.52 262.063 2.51 262.19 2.49C262.323 2.46333 262.433 2.43667 262.52 2.41L263.39 2.94ZM265.32 5.11C266.22 4.87667 267.033 4.60667 267.76 4.3C268.493 3.98667 269.137 3.66 269.69 3.32C270.037 3.10667 270.383 2.86333 270.73 2.59C271.083 2.31 271.413 2.02333 271.72 1.73C272.033 1.43667 272.297 1.15667 272.51 0.89L273.59 1.92C273.283 2.22 272.947 2.52333 272.58 2.83C272.22 3.13667 271.843 3.43 271.45 3.71C271.057 3.99 270.667 4.24667 270.28 4.48C269.9 4.7 269.473 4.92667 269 5.16C268.533 5.39333 268.04 5.61333 267.52 5.82C267 6.02667 266.477 6.21 265.95 6.37L265.32 5.11ZM269.48 3.96L270.9 3.63V8.13C270.9 8.27667 270.903 8.43667 270.91 8.61C270.917 8.78333 270.927 8.94333 270.94 9.09C270.953 9.24333 270.97 9.36 270.99 9.44H269.41C269.423 9.36 269.433 9.24333 269.44 9.09C269.453 8.94333 269.463 8.78333 269.47 8.61C269.477 8.43667 269.48 8.27667 269.48 8.13V3.96ZM277.51 1.4C277.683 1.52 277.887 1.66667 278.12 1.84C278.353 2.01333 278.593 2.20333 278.84 2.41C279.093 2.61 279.33 2.80667 279.55 3C279.77 3.19333 279.95 3.36667 280.09 3.52L279.07 4.56C278.943 4.42 278.777 4.25333 278.57 4.06C278.363 3.86667 278.14 3.66667 277.9 3.46C277.66 3.25333 277.423 3.05667 277.19 2.87C276.957 2.68333 276.75 2.52667 276.57 2.4L277.51 1.4ZM276.26 8.06C276.78 7.98667 277.27 7.88333 277.73 7.75C278.19 7.61667 278.617 7.46333 279.01 7.29C279.403 7.11667 279.763 6.93667 280.09 6.75C280.657 6.41 281.177 6.02333 281.65 5.59C282.123 5.15667 282.537 4.70667 282.89 4.24C283.243 3.76667 283.523 3.30667 283.73 2.86L284.51 4.27C284.257 4.71667 283.943 5.16333 283.57 5.61C283.203 6.05667 282.787 6.48333 282.32 6.89C281.853 7.29 281.35 7.65 280.81 7.97C280.47 8.17667 280.103 8.37333 279.71 8.56C279.317 8.74 278.9 8.9 278.46 9.04C278.027 9.18667 277.573 9.3 277.1 9.38L276.26 8.06ZM294.49 2.78C294.437 2.87333 294.38 2.98667 294.32 3.12C294.26 3.24667 294.207 3.37333 294.16 3.5C294.073 3.79333 293.95 4.13 293.79 4.51C293.637 4.88333 293.443 5.27333 293.21 5.68C292.983 6.08 292.72 6.46667 292.42 6.84C291.94 7.41333 291.38 7.93333 290.74 8.4C290.107 8.86667 289.32 9.28667 288.38 9.66L287.2 8.6C287.88 8.4 288.467 8.17 288.96 7.91C289.453 7.65 289.883 7.37333 290.25 7.08C290.617 6.78 290.943 6.46333 291.23 6.13C291.463 5.87 291.677 5.57667 291.87 5.25C292.063 4.91667 292.23 4.58667 292.37 4.26C292.51 3.93333 292.603 3.64667 292.65 3.4H289.28L289.74 2.27C289.833 2.27 289.977 2.27 290.17 2.27C290.37 2.27 290.593 2.27 290.84 2.27C291.093 2.27 291.34 2.27 291.58 2.27C291.827 2.27 292.04 2.27 292.22 2.27C292.407 2.27 292.533 2.27 292.6 2.27C292.753 2.27 292.907 2.26 293.06 2.24C293.22 2.22 293.357 2.19 293.47 2.15L294.49 2.78ZM291.23 1.2C291.11 1.37333 290.993 1.56 290.88 1.76C290.767 1.96 290.68 2.11333 290.62 2.22C290.393 2.62 290.113 3.03667 289.78 3.47C289.453 3.89667 289.08 4.31333 288.66 4.72C288.24 5.12 287.793 5.48667 287.32 5.82L286.19 4.99C286.63 4.71667 287.017 4.43667 287.35 4.15C287.69 3.86333 287.983 3.58 288.23 3.3C288.477 3.01333 288.687 2.74 288.86 2.48C289.04 2.21333 289.193 1.97667 289.32 1.77C289.4 1.64333 289.483 1.48 289.57 1.28C289.657 1.07333 289.723 0.886666 289.77 0.719999L291.23 1.2ZM300.86 0.949999C300.833 1.04333 300.807 1.13667 300.78 1.23C300.76 1.31667 300.74 1.4 300.72 1.48C300.66 1.79333 300.603 2.15333 300.55 2.56C300.497 2.96 300.453 3.38 300.42 3.82C300.387 4.25333 300.37 4.68 300.37 5.1C300.37 5.62 300.397 6.1 300.45 6.54C300.503 6.97333 300.577 7.37667 300.67 7.75C300.77 8.11667 300.877 8.46667 300.99 8.8L299.84 9.15C299.74 8.85 299.643 8.49333 299.55 8.08C299.463 7.66667 299.39 7.22333 299.33 6.75C299.27 6.27 299.24 5.78667 299.24 5.3C299.24 4.96667 299.25 4.63333 299.27 4.3C299.297 3.96 299.323 3.62667 299.35 3.3C299.377 2.96667 299.407 2.65 299.44 2.35C299.48 2.04333 299.513 1.76667 299.54 1.52C299.547 1.42667 299.553 1.32667 299.56 1.22C299.567 1.10667 299.567 1.00667 299.56 0.92L300.86 0.949999ZM299.08 2.06C299.713 2.06 300.307 2.04667 300.86 2.02C301.42 1.99333 301.957 1.94667 302.47 1.88C302.99 1.81333 303.507 1.71667 304.02 1.59L304.03 2.75C303.683 2.81 303.3 2.86667 302.88 2.92C302.467 2.96667 302.033 3.00667 301.58 3.04C301.133 3.07333 300.693 3.1 300.26 3.12C299.827 3.13333 299.42 3.14 299.04 3.14C298.867 3.14 298.67 3.13667 298.45 3.13C298.237 3.12333 298.023 3.11667 297.81 3.11C297.603 3.09667 297.423 3.08667 297.27 3.08L297.24 1.92C297.353 1.93333 297.517 1.95333 297.73 1.98C297.943 2 298.17 2.02 298.41 2.04C298.657 2.05333 298.88 2.06 299.08 2.06ZM303.39 3.52C303.37 3.58 303.34 3.66333 303.3 3.77C303.26 3.87667 303.22 3.98667 303.18 4.1C303.147 4.21333 303.12 4.30333 303.1 4.37C302.907 4.97 302.67 5.52 302.39 6.02C302.117 6.51333 301.82 6.94667 301.5 7.32C301.18 7.68667 300.863 7.98667 300.55 8.22C300.223 8.46667 299.85 8.68333 299.43 8.87C299.01 9.05 298.587 9.14 298.16 9.14C297.92 9.14 297.697 9.09 297.49 8.99C297.283 8.89 297.117 8.73333 296.99 8.52C296.87 8.3 296.81 8.02333 296.81 7.69C296.81 7.33 296.883 6.97667 297.03 6.63C297.177 6.28333 297.38 5.95333 297.64 5.64C297.9 5.32667 298.203 5.05 298.55 4.81C298.897 4.56333 299.27 4.37 299.67 4.23C299.997 4.11 300.353 4.01333 300.74 3.94C301.133 3.86667 301.52 3.83 301.9 3.83C302.52 3.83 303.073 3.94333 303.56 4.17C304.053 4.39667 304.44 4.70667 304.72 5.1C305 5.49333 305.14 5.95333 305.14 6.48C305.14 6.83333 305.083 7.18 304.97 7.52C304.857 7.85333 304.67 8.16333 304.41 8.45C304.157 8.73667 303.82 8.98333 303.4 9.19C302.98 9.39667 302.463 9.54667 301.85 9.64L301.19 8.59C301.83 8.51667 302.35 8.37333 302.75 8.16C303.15 7.94 303.44 7.67667 303.62 7.37C303.807 7.06333 303.9 6.74667 303.9 6.42C303.9 6.12667 303.82 5.86333 303.66 5.63C303.507 5.39667 303.273 5.21 302.96 5.07C302.653 4.92333 302.273 4.85 301.82 4.85C301.367 4.85 300.96 4.9 300.6 5C300.247 5.1 299.95 5.20667 299.71 5.32C299.377 5.48 299.08 5.68333 298.82 5.93C298.56 6.17 298.357 6.42333 298.21 6.69C298.063 6.95667 297.99 7.20333 297.99 7.43C297.99 7.59 298.027 7.71333 298.1 7.8C298.173 7.88 298.29 7.92 298.45 7.92C298.69 7.92 298.967 7.84333 299.28 7.69C299.593 7.53 299.903 7.30667 300.21 7.02C300.57 6.68667 300.91 6.28667 301.23 5.82C301.55 5.35333 301.813 4.77333 302.02 4.08C302.04 4.01333 302.06 3.92667 302.08 3.82C302.1 3.71333 302.117 3.60667 302.13 3.5C302.15 3.38667 302.163 3.29667 302.17 3.23L303.39 3.52ZM308.9 1.85C308.873 1.97 308.85 2.10667 308.83 2.26C308.817 2.41333 308.803 2.56333 308.79 2.71C308.783 2.85667 308.78 2.97667 308.78 3.07C308.773 3.29 308.77 3.51667 308.77 3.75C308.777 3.98333 308.783 4.22333 308.79 4.47C308.803 4.71 308.82 4.95 308.84 5.19C308.887 5.67 308.953 6.09333 309.04 6.46C309.127 6.82667 309.24 7.11333 309.38 7.32C309.52 7.52 309.697 7.62 309.91 7.62C310.023 7.62 310.133 7.55667 310.24 7.43C310.353 7.30333 310.453 7.14 310.54 6.94C310.633 6.73333 310.713 6.51667 310.78 6.29C310.853 6.06333 310.917 5.85 310.97 5.65L311.97 6.87C311.75 7.45 311.53 7.91333 311.31 8.26C311.097 8.6 310.873 8.84667 310.64 9C310.407 9.14667 310.153 9.22 309.88 9.22C309.52 9.22 309.177 9.1 308.85 8.86C308.53 8.62 308.257 8.23333 308.03 7.7C307.803 7.16 307.643 6.44333 307.55 5.55C307.517 5.24333 307.49 4.92 307.47 4.58C307.457 4.24 307.447 3.91667 307.44 3.61C307.44 3.30333 307.44 3.05 307.44 2.85C307.44 2.71 307.433 2.54333 307.42 2.35C307.407 2.15667 307.387 1.98333 307.36 1.83L308.9 1.85ZM313.9 2.08C314.087 2.30667 314.267 2.58333 314.44 2.91C314.613 3.23667 314.773 3.58667 314.92 3.96C315.067 4.33333 315.197 4.71667 315.31 5.11C315.423 5.49667 315.513 5.87667 315.58 6.25C315.653 6.61667 315.7 6.95333 315.72 7.26L314.4 7.77C314.367 7.36333 314.307 6.92 314.22 6.44C314.133 5.96 314.017 5.47667 313.87 4.99C313.723 4.50333 313.547 4.04333 313.34 3.61C313.14 3.17667 312.903 2.80333 312.63 2.49L313.9 2.08ZM321.23 1.03C321.177 1.20333 321.13 1.37667 321.09 1.55C321.057 1.71667 321.023 1.88333 320.99 2.05C320.957 2.21 320.917 2.39333 320.87 2.6C320.83 2.80667 320.783 3.02667 320.73 3.26C320.683 3.48667 320.63 3.71667 320.57 3.95C320.517 4.18333 320.46 4.41333 320.4 4.64C320.34 4.86 320.283 5.06333 320.23 5.25C320.637 5.02333 321.04 4.86333 321.44 4.77C321.84 4.67 322.263 4.62 322.71 4.62C323.25 4.62 323.72 4.71 324.12 4.89C324.527 5.07 324.84 5.32 325.06 5.64C325.287 5.96 325.4 6.33333 325.4 6.76C325.4 7.32 325.27 7.79333 325.01 8.18C324.757 8.56667 324.39 8.87 323.91 9.09C323.437 9.31 322.867 9.45 322.2 9.51C321.54 9.57 320.807 9.55667 320 9.47L319.65 8.18C320.197 8.27333 320.73 8.32 321.25 8.32C321.777 8.32 322.25 8.27 322.67 8.17C323.09 8.07 323.423 7.91 323.67 7.69C323.923 7.46333 324.05 7.16667 324.05 6.8C324.05 6.5 323.923 6.24333 323.67 6.03C323.417 5.81 323.047 5.7 322.56 5.7C321.98 5.7 321.447 5.8 320.96 6C320.48 6.2 320.09 6.49 319.79 6.87C319.743 6.94333 319.697 7.01333 319.65 7.08C319.61 7.14667 319.563 7.22333 319.51 7.31L318.33 6.89C318.517 6.53 318.69 6.12 318.85 5.66C319.01 5.2 319.153 4.73667 319.28 4.27C319.407 3.80333 319.51 3.37 319.59 2.97C319.67 2.56333 319.727 2.23333 319.76 1.98C319.793 1.76667 319.813 1.58667 319.82 1.44C319.827 1.28667 319.823 1.13 319.81 0.97L321.23 1.03ZM317.74 2.2C318.06 2.25333 318.407 2.3 318.78 2.34C319.153 2.37333 319.497 2.39 319.81 2.39C320.13 2.39 320.48 2.38 320.86 2.36C321.247 2.34 321.653 2.31 322.08 2.27C322.507 2.23 322.933 2.18 323.36 2.12C323.793 2.05333 324.217 1.97667 324.63 1.89L324.65 3.08C324.33 3.13333 323.967 3.18667 323.56 3.24C323.16 3.29333 322.74 3.34333 322.3 3.39C321.86 3.43 321.427 3.46333 321 3.49C320.573 3.51667 320.18 3.53 319.82 3.53C319.433 3.53 319.063 3.52333 318.71 3.51C318.363 3.49 318.04 3.46667 317.74 3.44V2.2Z" fill="#FAFAFA"/>
</svg>
