<svg width="100%" height="100%" viewBox="0 0 179.4 17.3496" fill="none" xmlns="http://www.w3.org/2000/svg">
<g id="Group">
<path id="Vector" d="M8.33985 14.8742C8.56363 14.8742 8.711 14.8414 8.79287 14.7759C8.87474 14.7104 8.91294 14.6013 8.91294 14.4484C8.91294 14.3993 8.90203 14.3447 8.88565 14.2956H7.72309L7.46657 16.1623C7.00809 16.4843 6.5387 16.719 6.07477 16.8555C5.61084 16.9919 5.0705 17.0629 4.47557 17.0629C4.06622 17.0629 3.68416 17.0247 3.32939 16.9428C2.97462 16.8609 2.66897 16.7354 2.41244 16.5607C2.15592 16.3861 1.95397 16.1568 1.81206 15.8785C1.67015 15.6001 1.59374 15.2562 1.59374 14.8524H1.68107C2.10679 14.8524 2.31966 14.7214 2.31966 14.4539C2.31966 14.4048 2.30874 14.3502 2.29237 14.3011H0.856909C0.567634 13.9026 0.349313 13.5042 0.212863 13.1112C0.0764122 12.7182 0 12.2652 0 11.7576C0 11.25 0.0709542 10.7806 0.212863 10.3876C0.354771 9.99465 0.567634 9.58529 0.856909 9.15956H2.09588C2.34149 9.15956 2.50523 9.12681 2.57618 9.06131C2.64714 8.99581 2.68534 8.89211 2.68534 8.7502C2.68534 8.69016 2.67443 8.63558 2.65805 8.58646H1.41908C1.17347 8.18801 0.987901 7.78957 0.867825 7.39659C0.747748 7.0036 0.68771 6.55058 0.68771 6.04298C0.68771 5.53538 0.758664 5.06598 0.900573 4.673C1.04248 4.28002 1.25534 3.87066 1.54462 3.44493H3.04012C3.46584 3.44493 3.6787 3.31393 3.6787 3.04648C3.6787 2.99736 3.66779 2.94278 3.65141 2.89366H3.13836L3.3676 1.29444C3.6405 1.1689 3.89702 1.05427 4.14263 0.956029C4.38825 0.857783 4.6284 0.775916 4.86309 0.704961C5.09779 0.634006 5.34886 0.584884 5.60538 0.552135C5.86191 0.519387 6.14027 0.503014 6.435 0.503014C6.89348 0.503014 7.29191 0.563049 7.63031 0.677669C7.9687 0.792289 8.24706 0.956032 8.47084 1.16344C8.69462 1.37085 8.85836 1.62192 8.96752 1.9112C9.07668 2.20048 9.13126 2.52251 9.13126 2.87183C9.13126 3.06832 9.12035 3.25935 9.09306 3.44493H9.83535C10.0591 3.44493 10.2065 3.41218 10.2774 3.34122C10.3484 3.27027 10.3866 3.17748 10.3866 3.04648C10.3866 2.99736 10.3757 2.94278 10.3593 2.89366H9.86264C9.87355 2.84453 9.87355 2.78996 9.87355 2.73537V2.588C9.87355 2.36422 9.83535 2.15136 9.75348 1.94395C9.67161 1.73654 9.5679 1.53459 9.44237 1.3381C9.87901 1.09249 10.3648 0.890535 10.9051 0.737708C11.4455 0.584882 12.0186 0.508469 12.6135 0.508469C13.072 0.508469 13.4704 0.568504 13.8088 0.683124C14.1472 0.797744 14.4255 0.961495 14.6493 1.1689C14.8731 1.37631 15.0368 1.62738 15.146 1.91666C15.2552 2.20594 15.3097 2.52796 15.3097 2.87728C15.3097 3.07377 15.2988 3.26481 15.2715 3.45038H15.9265C16.2158 3.87612 16.4341 4.28547 16.5815 4.67846C16.7288 5.07144 16.7998 5.52446 16.7998 6.04844C16.7998 6.57241 16.7288 7.01452 16.5815 7.40205C16.4341 7.78957 16.2212 8.19347 15.9265 8.59191H14.622C14.3764 8.59191 14.2127 8.62466 14.1417 8.69016C14.0708 8.75566 14.0326 8.85936 14.0326 9.00127C14.0326 9.06131 14.0435 9.11589 14.0599 9.16501H15.4134C15.6591 9.59074 15.8446 10.0001 15.9702 10.3931C16.0957 10.7861 16.1557 11.2391 16.1557 11.7631C16.1557 12.287 16.0848 12.7292 15.9374 13.1167C15.79 13.5042 15.5772 13.9081 15.2824 14.3065H13.8907L13.6341 16.1732C13.2411 16.4952 12.7936 16.7299 12.2915 16.8664C11.7893 17.0028 11.2381 17.0738 10.6431 17.0738C10.081 17.0738 9.58428 16.9701 9.15855 16.7681C8.73283 16.5662 8.39989 16.2824 8.15974 15.9221L8.32348 14.8851L8.33985 14.8742ZM8.04512 9.37242C8.04512 9.51979 8.08332 9.61258 8.15974 9.6617C8.23615 9.71082 8.34531 9.73265 8.49267 9.73265H8.67279L8.88019 8.40088C8.89111 8.35722 8.89657 8.30809 8.90748 8.24805C8.9184 8.18801 8.9184 8.14435 8.9184 8.12251C8.9184 7.96969 8.88565 7.86599 8.8147 7.81686C8.74374 7.76774 8.62912 7.74045 8.45447 7.74045H8.29073L8.04512 9.37788V9.37242Z" fill="#FAFAFA"/>
<path id="Vector_2" d="M25.5 1.31097C25.7238 1.1254 25.9694 0.961652 26.2478 0.819741C26.5261 0.67783 26.8154 0.563211 27.1265 0.470423C27.4376 0.377635 27.7487 0.30668 28.0707 0.257558C28.3928 0.208435 28.7093 0.186608 29.015 0.186608C29.4953 0.186608 29.9592 0.230273 30.4177 0.32306C30.8762 0.415848 31.28 0.563218 31.6348 0.776084C31.9896 0.988949 32.2734 1.27277 32.4863 1.633C32.6991 1.99324 32.8083 2.4408 32.8083 2.9757V15.0927C32.8083 15.4747 32.7101 15.8022 32.519 16.0642C32.328 16.3262 32.0715 16.5391 31.7494 16.6974C31.4274 16.8556 31.0617 16.9703 30.6469 17.0358C30.2321 17.1013 29.8064 17.1395 29.3588 17.1395C29.0859 17.1395 28.813 17.1231 28.5347 17.0958C28.2563 17.0685 27.9943 17.0194 27.7487 16.9593C27.5031 16.8993 27.2684 16.8338 27.0555 16.7519C26.8427 16.6701 26.6571 16.5882 26.5043 16.4954C26.1386 16.026 25.8057 15.573 25.5109 15.1418C25.2162 14.7106 24.9433 14.2903 24.6977 13.8864C24.4521 13.4825 24.2174 13.1059 24.0045 12.7402C23.7916 12.3745 23.5842 12.0361 23.3932 11.7087C23.2458 11.725 23.1476 11.7687 23.0985 11.8451C23.0494 11.9215 23.0221 12.0034 23.0221 12.1071C23.0221 12.2326 23.0548 12.3582 23.1258 12.4837C23.1967 12.6092 23.2841 12.7566 23.3932 12.9367L24.9924 15.5184V16.1952C24.8669 16.2825 24.7031 16.3808 24.5067 16.4899C24.3102 16.5991 24.07 16.7028 23.7862 16.8011C23.5024 16.8993 23.1694 16.9812 22.7928 17.0521C22.4162 17.1231 21.985 17.1558 21.4993 17.1558C20.9426 17.1558 20.435 17.1013 19.9656 16.9921C19.4962 16.8829 19.0923 16.7192 18.7484 16.5009C18.4046 16.2825 18.1426 16.0151 17.957 15.6876C17.7715 15.3601 17.6732 14.989 17.6732 14.5632V1.74762C17.6732 1.53476 17.766 1.33281 17.957 1.14178C18.1481 0.950742 18.3991 0.786994 18.7266 0.650541C19.0541 0.514089 19.4307 0.404932 19.8673 0.32306C20.304 0.241189 20.7679 0.202982 21.2591 0.202982C21.8213 0.202982 22.3398 0.268473 22.8201 0.410384C23.3004 0.552294 23.6607 0.710581 23.9063 0.907073C24.0918 1.14723 24.2992 1.43105 24.5176 1.75853C24.7359 2.08602 24.976 2.45172 25.2216 2.8447C25.4673 3.23768 25.7292 3.66342 25.9967 4.11098L26.8208 5.48642C26.9082 5.48642 26.99 5.45913 27.0719 5.40455C27.1538 5.34997 27.192 5.25718 27.192 5.13164C27.192 5.03886 27.1592 4.92424 27.0883 4.79324C27.0173 4.66225 26.9464 4.53125 26.87 4.40572L25.4891 2.02598V1.32189L25.5 1.31097Z" fill="#FAFAFA"/>
<path id="Vector_3" d="M36.3884 1.58388C36.7214 1.37101 37.098 1.17452 37.5128 0.999859C37.9276 0.8252 38.3697 0.677833 38.8391 0.557755C39.3085 0.437677 39.7833 0.344889 40.2854 0.28485C40.7876 0.224811 41.2843 0.186608 41.7864 0.186608C42.4523 0.186608 43.1127 0.246648 43.7622 0.366726C44.4117 0.486804 45.0121 0.672379 45.547 0.92891C46.0819 1.18544 46.5458 1.51292 46.9279 1.92228C47.3099 2.33164 47.5719 2.81195 47.7084 3.37414L50.6229 15.4365C50.23 15.9387 49.6787 16.3535 48.9746 16.6755C48.2705 16.9975 47.37 17.1613 46.2893 17.1613C45.809 17.1613 45.3614 17.1176 44.9466 17.0358C44.5318 16.9539 44.1606 16.8229 43.8386 16.6591C43.5166 16.4954 43.2546 16.2825 43.0472 16.0315C42.8398 15.7804 42.7033 15.4857 42.6433 15.1418L42.3595 13.5808C42.6215 13.5699 42.8835 13.5426 43.1454 13.4825C43.4074 13.4225 43.6421 13.357 43.8495 13.2751C44.0569 13.1933 44.2316 13.1005 44.3626 13.0022C44.4936 12.904 44.5591 12.7948 44.5591 12.6966C44.5591 12.5601 44.5045 12.451 44.3953 12.3636C44.2425 12.4728 44.0624 12.5765 43.8604 12.6638C43.6585 12.7512 43.4402 12.8276 43.2164 12.8876C42.9926 12.9476 42.7634 12.9913 42.5396 13.0241C42.3158 13.0568 42.103 13.0677 41.9065 13.0677C41.5408 13.0677 41.2133 13.0459 40.9295 12.9968C40.6457 12.9476 40.3946 12.8931 40.1817 12.8221C39.9689 12.7511 39.7833 12.6802 39.6305 12.5983C39.4777 12.5164 39.3467 12.44 39.2484 12.3636C39.2157 12.4073 39.1829 12.4564 39.1611 12.511C39.1393 12.5656 39.1229 12.6256 39.1229 12.6966C39.1229 12.8221 39.1884 12.9422 39.3194 13.0459C39.4504 13.1496 39.6305 13.2478 39.8488 13.3297C40.0671 13.4116 40.3237 13.4771 40.6075 13.5262C40.8913 13.5753 41.1915 13.6135 41.508 13.6299C41.5572 14.2248 41.6172 14.6997 41.6827 15.0545C41.7482 15.4092 41.8082 15.633 41.8683 15.7258C41.7919 15.8732 41.639 16.026 41.4153 16.1952C41.1915 16.3644 40.9077 16.5172 40.5693 16.6646C40.2309 16.812 39.8488 16.9266 39.4176 17.0248C38.9864 17.1231 38.528 17.1668 38.0422 17.1668C37.4364 17.1668 36.8633 17.1013 36.3284 16.9593C35.7935 16.8174 35.3241 16.6319 34.9202 16.3917C34.5163 16.1515 34.1998 15.8568 33.9596 15.5075C33.7195 15.1582 33.5994 14.7761 33.5994 14.3504C33.5994 14.2576 33.5994 14.1593 33.6103 14.0611C33.6212 13.9628 33.6376 13.8646 33.6594 13.7609L36.383 1.58388H36.3884ZM42.4032 8.1718C42.3104 7.65874 42.234 7.24938 42.1794 6.94373C42.1248 6.63808 42.0702 6.40338 42.0156 6.24509C41.9611 6.08681 41.901 5.98311 41.8355 5.93944C41.77 5.89578 41.6936 5.86848 41.6008 5.86848C41.5408 5.86848 41.4862 5.8794 41.4371 5.89578C41.388 5.91215 41.3388 5.92853 41.2952 5.9449L41.7809 8.52658C41.8137 8.55933 41.8628 8.58662 41.9283 8.603C41.9938 8.61937 42.0484 8.63029 42.103 8.63029C42.1794 8.63029 42.2503 8.61936 42.3213 8.59753C42.3922 8.5757 42.4414 8.55933 42.4741 8.5375L42.4086 8.16635L42.4032 8.1718Z" fill="#FAFAFA"/>
<path id="Vector_4" d="M60.8408 11.302C60.5679 11.302 60.3168 11.2475 60.0821 11.1438C59.8474 11.0401 59.64 10.8763 59.4599 10.6634C59.2798 10.4506 59.1379 10.1831 59.0397 9.86655C58.9414 9.54998 58.8868 9.17883 58.8868 8.75856C58.8868 8.43653 58.9141 8.13634 58.9742 7.8689C59.0342 7.60145 59.1052 7.36129 59.1925 7.15388C59.2798 6.94647 59.3726 6.76636 59.4763 6.62445C59.58 6.48254 59.6673 6.36246 59.7437 6.28059H67.3304C67.5924 6.66265 67.7834 7.08293 67.8926 7.54141C68.0017 7.99989 68.0563 8.44745 68.0563 8.88956C68.0563 9.40262 67.9963 9.86655 67.8707 10.2923C67.7452 10.718 67.5978 11.0564 67.4286 11.3239H66.9047V15.1609C66.5717 15.4502 66.1951 15.7286 65.7639 15.9905C65.3328 16.2525 64.8525 16.4872 64.3121 16.6892C63.7718 16.8911 63.1605 17.0494 62.4891 17.1695C61.8178 17.2896 61.07 17.3496 60.2513 17.3496C59.4326 17.3496 58.6794 17.2787 57.9208 17.1313C57.1621 16.9839 56.4471 16.7601 55.7703 16.4599C55.0935 16.1597 54.4768 15.7722 53.9146 15.3083C53.3524 14.8443 52.8666 14.2931 52.4573 13.649C52.0479 13.005 51.7314 12.279 51.5021 11.4549C51.2729 10.6307 51.1637 9.70828 51.1637 8.68761C51.1637 7.25759 51.3821 5.99676 51.8242 4.92152C52.2663 3.84627 52.8776 2.94023 53.669 2.21431C54.4604 1.48838 55.3992 0.942568 56.4962 0.576876C57.5933 0.211183 58.7995 0.0256025 60.1203 0.0256025C60.8135 0.0256025 61.4849 0.0856456 62.1398 0.200266C62.7948 0.314886 63.4115 0.467711 63.9846 0.658744C64.5577 0.849777 65.0762 1.07356 65.5456 1.32463C66.015 1.57571 66.4134 1.84316 66.7355 2.12152C66.7355 2.40534 66.7191 2.71099 66.6863 3.04393C66.6536 3.37687 66.6099 3.70436 66.5499 4.03731C66.4899 4.37025 66.4244 4.6759 66.3425 4.97064C66.2606 5.26538 66.1733 5.51099 66.0805 5.70749H59.3399C59.2362 5.81665 59.1215 5.96948 58.9905 6.15505C58.8595 6.34063 58.734 6.56441 58.6194 6.8264C58.5048 7.08839 58.4065 7.38312 58.3247 7.72152C58.2428 8.05993 58.2046 8.43108 58.2046 8.84044C58.2046 9.35896 58.2701 9.81198 58.4011 10.1886C58.5321 10.5652 58.7067 10.8818 58.925 11.1328C59.1434 11.3839 59.3944 11.5695 59.6782 11.695C59.9621 11.8206 60.2623 11.8806 60.5679 11.8806C60.7207 11.8806 60.8299 11.8533 60.8899 11.7987C60.95 11.7441 60.9773 11.6786 60.9773 11.6022V11.3075H60.8353L60.8408 11.302Z" fill="#FAFAFA"/>
<path id="Vector_5" d="M76.9802 17.3379C76.2652 17.3379 75.5557 17.2615 74.8571 17.1141C74.1584 16.9667 73.498 16.7375 72.8758 16.4318C72.2536 16.1262 71.6805 15.7387 71.1565 15.2693C70.6325 14.7999 70.1795 14.2431 69.792 13.6045C69.4045 12.9659 69.1098 12.2346 68.8969 11.4159C68.684 10.5971 68.5749 9.68563 68.5749 8.67588C68.5749 7.18582 68.8041 5.89225 69.268 4.80609C69.732 3.71993 70.3433 2.81934 71.1129 2.10433C71.8824 1.38932 72.7666 0.86534 73.7654 0.526938C74.7643 0.188536 75.8122 0.0138838 76.9038 0.0138838C78.2028 0.0138838 79.3654 0.226743 80.3969 0.647017C81.4285 1.06729 82.3018 1.66222 83.0168 2.4209C83.7318 3.17957 84.283 4.09108 84.6651 5.16087C85.0472 6.23065 85.2382 7.39868 85.2382 8.68134C85.2382 10.1987 85.0253 11.5032 84.5942 12.5948C84.163 13.6864 83.5735 14.5815 82.8312 15.2856C82.0889 15.9897 81.2102 16.5082 80.2114 16.8412C79.2126 17.1741 78.1319 17.3379 76.9802 17.3379ZM77.4878 8.10278C77.4878 7.69342 77.4769 7.34411 77.4605 7.04937C77.4442 6.75463 77.4114 6.50902 77.3732 6.31253C77.3295 6.13241 77.275 6.01233 77.1985 5.95229C77.1221 5.89225 77.0403 5.86496 76.9475 5.86496C76.8547 5.86496 76.7837 5.88133 76.7292 5.90862C76.6746 5.93591 76.6364 5.96867 76.6036 5.9905C76.6145 6.14333 76.6255 6.28523 76.6418 6.42169C76.6582 6.55814 76.6746 6.70551 76.6855 6.86925C76.6964 7.033 76.7073 7.22949 76.7182 7.44236C76.7292 7.65522 76.7292 7.92812 76.7292 8.23923V9.06887C76.7292 9.38544 76.7292 9.65288 76.7182 9.86574C76.7073 10.0786 76.6964 10.2751 76.6855 10.4388C76.6746 10.6026 76.6582 10.7554 76.6418 10.8864C76.6255 11.0174 76.6145 11.1593 76.6036 11.3176C76.6364 11.3449 76.68 11.3722 76.7292 11.3995C76.7783 11.4268 76.8547 11.4431 76.9475 11.4431C77.0403 11.4431 77.1221 11.4158 77.1985 11.3558C77.275 11.2958 77.3295 11.1757 77.3732 10.9956C77.4169 10.7991 77.4442 10.5535 77.4605 10.2587C77.4769 9.96399 77.4878 9.61468 77.4878 9.20532V8.09186V8.10278Z" fill="#FAFAFA"/>
<path id="Vector_6" d="M91.7439 12.6474C90.7778 12.0089 89.9373 11.2938 89.2168 10.5133C88.4963 9.73282 87.8905 8.88681 87.3993 7.98623C86.9081 7.08564 86.526 6.13594 86.2531 5.12619C85.9802 4.11644 85.8164 3.07394 85.7564 1.99324C85.9693 1.67667 86.2367 1.40922 86.5478 1.18544C86.8589 0.961659 87.2028 0.781536 87.5739 0.634168C87.9451 0.486799 88.3217 0.383097 88.7147 0.312142C89.1076 0.241187 89.4842 0.208437 89.839 0.208437C90.4285 0.208437 90.9415 0.263019 91.3782 0.372181C91.8148 0.481343 92.2187 0.634168 92.5844 0.83066C92.6444 0.983486 92.7318 1.21819 92.8409 1.54021C92.9501 1.86224 93.0647 2.20065 93.1793 2.56634C93.2939 2.93203 93.4031 3.28681 93.5123 3.64159C93.6214 3.99636 93.7033 4.28564 93.7633 4.52034L93.2011 7.00377C93.1848 7.09656 93.1629 7.20572 93.1302 7.3258C93.0974 7.44588 93.0865 7.54958 93.0865 7.64783C93.0865 7.77336 93.1193 7.88252 93.1902 7.95894C93.2612 8.03535 93.3758 8.07901 93.5505 8.07901C93.5996 7.91527 93.6705 7.65328 93.7633 7.29305C93.8561 6.93281 93.9489 6.518 94.0581 6.05406C94.1672 5.59013 94.2764 5.09344 94.391 4.56946C94.5056 4.04548 94.6148 3.53788 94.7239 3.05211C94.8331 2.56634 94.9313 2.11878 95.0241 1.71488C95.1169 1.31098 95.1933 0.988948 95.2534 0.748791C95.5863 0.585048 95.9847 0.454051 96.4432 0.344889C96.9017 0.235727 97.4038 0.186608 97.9387 0.186608C98.5336 0.186608 99.0794 0.263015 99.5761 0.410384C100.073 0.557752 100.493 0.781538 100.842 1.07082C101.192 1.3601 101.465 1.72033 101.656 2.15152C101.847 2.58271 101.945 3.0794 101.945 3.64159C101.945 4.53671 101.819 5.38817 101.563 6.18505C101.306 6.98194 100.973 7.73516 100.564 8.42288C100.155 9.1106 99.6962 9.7492 99.1886 10.3278C98.681 10.9063 98.1789 11.4194 97.6876 11.8615V16.0806C97.311 16.3098 96.9617 16.4954 96.6397 16.6373C96.3177 16.7792 96.0011 16.8884 95.7009 16.9648C95.4007 17.0412 95.106 17.0903 94.8331 17.1176C94.5602 17.1449 94.2818 17.1558 94.0089 17.1558C93.4468 17.1558 92.9337 17.1067 92.4698 17.003C92.0058 16.8993 91.6074 16.741 91.2745 16.5227C90.9415 16.3044 90.685 16.0315 90.4994 15.6985C90.3139 15.3656 90.2265 14.9671 90.2265 14.5087V12.2599C90.2756 12.309 90.3521 12.38 90.4558 12.4728C90.5595 12.5656 90.6632 12.6474 90.7778 12.7348C90.8924 12.8221 91.0016 12.8931 91.1162 12.9531C91.2308 13.0131 91.329 13.0404 91.4055 13.0404C91.5092 13.0404 91.591 13.0077 91.662 12.9422C91.7329 12.8767 91.7657 12.7784 91.7657 12.642L91.7439 12.6474Z" fill="#FAFAFA"/>
<path id="Vector_7" d="M105.209 1.58388C105.542 1.37101 105.919 1.17452 106.333 0.999859C106.748 0.8252 107.19 0.677833 107.66 0.557755C108.129 0.437677 108.604 0.344889 109.106 0.28485C109.608 0.224811 110.105 0.186608 110.607 0.186608C111.273 0.186608 111.933 0.246648 112.583 0.366726C113.232 0.486804 113.833 0.672379 114.368 0.92891C114.903 1.18544 115.367 1.51292 115.749 1.92228C116.131 2.33164 116.393 2.81195 116.529 3.37414L119.444 15.4365C119.051 15.9387 118.499 16.3535 117.795 16.6755C117.091 16.9975 116.191 17.1613 115.11 17.1613C114.63 17.1613 114.182 17.1176 113.767 17.0358C113.353 16.9539 112.981 16.8229 112.659 16.6591C112.337 16.4954 112.075 16.2825 111.868 16.0315C111.661 15.7804 111.524 15.4857 111.464 15.1418L111.18 13.5808C111.442 13.5699 111.704 13.5426 111.966 13.4825C112.228 13.4225 112.463 13.357 112.67 13.2751C112.878 13.1933 113.052 13.1005 113.183 13.0022C113.314 12.904 113.38 12.7948 113.38 12.6966C113.38 12.5601 113.325 12.451 113.216 12.3636C113.063 12.4728 112.883 12.5765 112.681 12.6638C112.479 12.7512 112.261 12.8276 112.037 12.8876C111.813 12.9476 111.584 12.9913 111.36 13.0241C111.137 13.0568 110.924 13.0677 110.727 13.0677C110.362 13.0677 110.034 13.0459 109.75 12.9968C109.466 12.9476 109.215 12.8931 109.002 12.8221C108.79 12.7511 108.604 12.6802 108.451 12.5983C108.298 12.5164 108.167 12.44 108.069 12.3636C108.036 12.4073 108.004 12.4564 107.982 12.511C107.96 12.5656 107.944 12.6256 107.944 12.6966C107.944 12.8221 108.009 12.9422 108.14 13.0459C108.271 13.1496 108.451 13.2478 108.67 13.3297C108.888 13.4116 109.144 13.4771 109.428 13.5262C109.712 13.5753 110.012 13.6135 110.329 13.6299C110.378 14.2248 110.438 14.6997 110.503 15.0545C110.569 15.4092 110.629 15.633 110.689 15.7258C110.613 15.8732 110.46 16.026 110.236 16.1952C110.012 16.3644 109.728 16.5172 109.39 16.6646C109.052 16.812 108.67 16.9266 108.238 17.0248C107.807 17.1231 107.349 17.1668 106.863 17.1668C106.257 17.1668 105.684 17.1013 105.149 16.9593C104.614 16.8174 104.145 16.6319 103.741 16.3917C103.337 16.1515 103.02 15.8568 102.78 15.5075C102.54 15.1582 102.42 14.7761 102.42 14.3504C102.42 14.2576 102.42 14.1593 102.431 14.0611C102.442 13.9628 102.458 13.8646 102.48 13.7609L105.204 1.58388H105.209ZM111.218 8.1718C111.126 7.65874 111.049 7.24938 110.995 6.94373C110.94 6.63808 110.885 6.40338 110.831 6.24509C110.776 6.08681 110.716 5.98311 110.651 5.93944C110.585 5.89578 110.509 5.86848 110.416 5.86848C110.356 5.86848 110.301 5.8794 110.252 5.89578C110.203 5.91215 110.154 5.92853 110.11 5.9449L110.596 8.52658C110.629 8.55933 110.678 8.58662 110.744 8.603C110.809 8.61937 110.864 8.63029 110.918 8.63029C110.995 8.63029 111.066 8.61936 111.137 8.59753C111.207 8.5757 111.257 8.55933 111.289 8.5375L111.224 8.16635L111.218 8.1718Z" fill="#FAFAFA"/>
<path id="Vector_8" d="M133.869 6.13424C133.869 6.78375 133.771 7.40052 133.574 7.98453C133.378 8.56855 133.067 9.09799 132.647 9.57284C132.226 10.0477 131.686 10.4571 131.031 10.8118C130.376 11.1666 129.579 11.434 128.651 11.6251C128.651 11.8052 128.695 11.9307 128.777 12.0017C128.859 12.0726 128.962 12.1109 129.082 12.1109C129.306 12.1109 129.574 12.0727 129.896 11.9962C130.218 11.9198 130.545 11.8107 130.878 11.6633C131.211 11.5159 131.544 11.3467 131.861 11.1448C132.177 10.9428 132.456 10.719 132.685 10.4734C133.094 10.8828 133.4 11.374 133.602 11.9471C133.804 12.5202 133.902 13.1042 133.902 13.7101C133.902 14.3159 133.809 14.8672 133.618 15.413C133.427 15.9588 133.143 16.4228 132.761 16.8048H121.261C120.606 15.8333 120.279 14.7307 120.279 13.4918C120.279 12.9787 120.333 12.4656 120.442 11.9526C120.552 11.4395 120.726 10.9701 120.966 10.5498C121.758 10.397 122.549 10.1678 123.341 9.86757C124.132 9.56738 124.836 9.2126 125.464 8.81962C126.091 8.42664 126.599 7.98453 126.992 7.50968C127.385 7.03483 127.582 6.5436 127.582 6.036C127.582 5.79038 127.527 5.58297 127.418 5.41377C127.309 5.24457 127.145 5.1627 126.932 5.1627C126.692 5.1627 126.528 5.23911 126.441 5.38648C126.353 5.53385 126.304 5.69759 126.304 5.86679C126.304 6.03599 126.343 6.20519 126.419 6.37985C126.495 6.55451 126.605 6.6855 126.752 6.78921C126.523 7.12761 126.233 7.44964 125.884 7.74437C125.535 8.03911 125.158 8.30656 124.754 8.55218C124.35 8.79779 123.93 9.01066 123.499 9.19078C123.068 9.37089 122.658 9.52372 122.265 9.63288C121.534 9.14711 120.966 8.55763 120.579 7.859C120.191 7.16036 119.989 6.37985 119.989 5.5011C119.989 4.62234 120.175 3.85821 120.541 3.1814C120.906 2.5046 121.403 1.93151 122.025 1.47303C122.647 1.01454 123.373 0.665228 124.198 0.425071C125.022 0.184915 125.895 0.0648348 126.806 0.0648348C127.773 0.0648348 128.679 0.195827 129.536 0.463274C130.392 0.73072 131.14 1.11825 131.779 1.63131C132.417 2.14437 132.925 2.78297 133.302 3.53619C133.678 4.2894 133.864 5.15723 133.864 6.13969L133.869 6.13424Z" fill="#FAFAFA"/>
<path id="Vector_9" d="M142.034 17.1382C140.932 17.1382 139.933 16.9581 139.027 16.5924C138.121 16.2267 137.351 15.6918 136.707 14.9768C136.063 14.2618 135.566 13.3721 135.212 12.3132C134.857 11.2544 134.682 10.0263 134.682 8.62902C134.682 7.23175 134.868 6.08555 135.233 5.02122C135.599 3.95689 136.112 3.05084 136.767 2.30854C137.422 1.56624 138.197 0.998594 139.098 0.600153C139.998 0.201712 140.975 0.00522208 142.04 0.00522208C143.104 0.00522208 144.075 0.201712 144.976 0.600153C145.877 0.998594 146.652 1.56624 147.312 2.30854C147.972 3.05084 148.48 3.95689 148.846 5.02122C149.211 6.08555 149.397 7.29179 149.397 8.62902C149.397 9.96625 149.222 11.2544 148.868 12.3132C148.513 13.3721 148.016 14.2563 147.372 14.9768C146.728 15.6973 145.953 16.2321 145.052 16.5924C144.152 16.9526 143.148 17.1382 142.045 17.1382H142.034ZM144.594 11.6364C144.49 11.56 144.348 11.4345 144.157 11.2653C143.966 11.0961 143.764 10.8941 143.535 10.6649C143.306 10.4356 143.077 10.1791 142.831 9.90621C142.585 9.63331 142.362 9.34403 142.149 9.05475C141.969 8.80914 141.788 8.53077 141.597 8.22512C141.406 7.91946 141.237 7.61927 141.073 7.32453C140.91 7.0298 140.773 6.76235 140.653 6.52765C140.533 6.29295 140.457 6.10738 140.424 5.99276C140.162 5.99276 140.026 6.14558 140.026 6.45124C140.026 6.57131 140.064 6.7296 140.135 6.93155C140.206 7.1335 140.309 7.36274 140.435 7.61381C140.56 7.86489 140.719 8.14325 140.893 8.43253C141.068 8.72181 141.27 9.01108 141.483 9.30036L141.663 9.54598C141.936 9.92258 142.203 10.2555 142.46 10.5557C142.716 10.8559 142.962 11.107 143.191 11.3089C143.42 11.5109 143.622 11.6692 143.797 11.7838C143.972 11.8984 144.124 11.9475 144.245 11.9475C144.31 11.9475 144.381 11.9257 144.457 11.882C144.534 11.8384 144.572 11.7565 144.594 11.6364Z" fill="#FAFAFA"/>
<path id="Vector_10" d="M164.041 6.13424C164.041 6.78375 163.943 7.40052 163.746 7.98453C163.55 8.56855 163.238 9.09799 162.818 9.57284C162.398 10.0477 161.858 10.4571 161.203 10.8118C160.548 11.1666 159.751 11.434 158.823 11.6251C158.823 11.8052 158.867 11.9307 158.948 12.0017C159.03 12.0726 159.134 12.1109 159.254 12.1109C159.478 12.1109 159.745 12.0727 160.067 11.9962C160.389 11.9198 160.717 11.8107 161.05 11.6633C161.383 11.5159 161.716 11.3467 162.032 11.1448C162.349 10.9428 162.627 10.719 162.856 10.4734C163.266 10.8828 163.571 11.374 163.773 11.9471C163.975 12.5202 164.074 13.1042 164.074 13.7101C164.074 14.3159 163.981 14.8672 163.79 15.413C163.599 15.9588 163.315 16.4228 162.933 16.8048H151.433C150.778 15.8333 150.45 14.7307 150.45 13.4918C150.45 12.9787 150.505 12.4656 150.614 11.9526C150.723 11.4395 150.898 10.9701 151.138 10.5498C151.929 10.397 152.721 10.1678 153.512 9.86757C154.304 9.56738 155.008 9.2126 155.635 8.81962C156.263 8.42664 156.771 7.98453 157.164 7.50968C157.557 7.03483 157.753 6.5436 157.753 6.036C157.753 5.79038 157.699 5.58297 157.589 5.41377C157.48 5.24457 157.317 5.1627 157.104 5.1627C156.864 5.1627 156.7 5.23911 156.612 5.38648C156.525 5.53385 156.476 5.69759 156.476 5.86679C156.476 6.03599 156.514 6.20519 156.591 6.37985C156.667 6.55451 156.776 6.6855 156.924 6.78921C156.694 7.12761 156.405 7.44964 156.056 7.74437C155.706 8.03911 155.33 8.30656 154.926 8.55218C154.522 8.79779 154.102 9.01066 153.671 9.19078C153.239 9.37089 152.83 9.52372 152.437 9.63288C151.706 9.14711 151.138 8.55763 150.751 7.859C150.363 7.16036 150.161 6.37985 150.161 5.5011C150.161 4.62234 150.347 3.85821 150.712 3.1814C151.078 2.5046 151.575 1.93151 152.197 1.47303C152.819 1.01454 153.545 0.665228 154.369 0.425071C155.193 0.184915 156.067 0.0648348 156.978 0.0648348C157.944 0.0648348 158.85 0.195827 159.707 0.463274C160.564 0.73072 161.312 1.11825 161.95 1.63131C162.589 2.14437 163.097 2.78297 163.473 3.53619C163.85 4.2894 164.035 5.15723 164.035 6.13969L164.041 6.13424Z" fill="#FAFAFA"/>
<path id="Vector_11" d="M177.08 5.82938C176.638 5.62197 176.147 5.46368 175.617 5.34906C175.088 5.23444 174.515 5.17441 173.909 5.17441C173.516 5.17441 173.139 5.2017 172.784 5.26174C172.43 5.32178 172.113 5.39819 171.84 5.49098C171.567 5.58377 171.349 5.69293 171.185 5.81301C171.022 5.93308 170.94 6.05316 170.94 6.17324C170.94 6.26603 170.967 6.35881 171.027 6.45706C171.387 6.29332 171.802 6.13503 172.277 5.98221C172.752 5.82938 173.292 5.75297 173.909 5.75297C174.891 5.75297 175.726 5.90033 176.425 6.19507C177.124 6.48981 177.686 6.88825 178.128 7.38494C178.57 7.88163 178.887 8.46564 179.094 9.12607C179.301 9.7865 179.4 10.4797 179.4 11.2056C179.4 12.1881 179.203 13.0504 178.816 13.7873C178.428 14.5241 177.915 15.1518 177.282 15.6485C176.649 16.1452 175.923 16.5218 175.115 16.7729C174.307 17.0239 173.483 17.1495 172.648 17.1495C171.622 17.1495 170.639 16.9803 169.701 16.6419C168.762 16.3035 167.927 15.7959 167.212 15.1081C166.497 14.4204 165.924 13.558 165.498 12.5156C165.072 11.4731 164.859 10.245 164.859 8.83133C164.859 8.08903 164.93 7.35765 165.072 6.63172C165.214 5.90579 165.427 5.21807 165.716 4.55764C166.006 3.89721 166.371 3.29682 166.819 2.74009C167.266 2.18337 167.785 1.70851 168.385 1.29916C168.986 0.8898 169.668 0.578688 170.432 0.34399C171.196 0.109292 172.042 0.000126967 172.97 0.000126967C174.002 0.000126967 174.957 0.120212 175.841 0.365827C176.725 0.611441 177.473 1.00988 178.084 1.57206C178.095 1.67577 178.095 1.79585 178.095 1.94322V2.31436C178.095 2.63093 178.073 2.95296 178.03 3.2859C177.986 3.61885 177.92 3.94088 177.839 4.25199C177.757 4.5631 177.648 4.85238 177.517 5.11983C177.386 5.38727 177.244 5.62197 177.08 5.81846V5.82938ZM171.529 10.4851C171.529 10.769 171.611 10.9982 171.775 11.1838C171.938 11.3693 172.162 11.4567 172.452 11.4567C172.648 11.4567 172.806 11.413 172.926 11.3202C173.046 11.2274 173.107 11.1019 173.107 10.9327C173.107 10.7089 173.03 10.5561 172.883 10.4633C172.735 10.3705 172.539 10.3269 172.299 10.3269C172.151 10.3269 172.009 10.3432 171.868 10.3705C171.726 10.3978 171.616 10.436 171.529 10.4797V10.4851Z" fill="#FAFAFA"/>
</g>
</svg>
