<svg width="100%" height="100%" viewBox="0 0 239.836 60.989" fill="none" xmlns="http://www.w3.org/2000/svg">
<g id="Group">
<path id="Vector" d="M4.47012 0.387228H20.9588L19.8781 6.46755H10.5886L9.92268 10.1681H17.8532L16.838 15.8991H8.90749L7.19367 25.6801H0L4.47012 0.392688V0.387228Z" fill="#FAFAFA"/>
<path id="Vector_2" d="M24.801 0.387228H32.7315C35.9081 0.387228 38.1786 0.807504 39.9252 1.92641C41.7427 3.07807 42.8616 4.89562 42.8616 7.3081C42.8616 8.67262 42.5123 10.5557 41.2187 12.2695C40.2417 13.5631 38.8445 14.611 37.1689 15.206L42.092 25.6855H34.1287L30.2154 16.0793H29.2002L27.5245 25.6855H20.3309L24.801 0.398145V0.387228ZM32.1366 11.1451C33.2173 11.1451 34.1287 10.8668 34.7564 10.3428C35.2094 9.96073 35.6625 9.32759 35.6625 8.27964C35.6625 7.4773 35.3841 6.95332 34.8601 6.604C34.3034 6.22194 33.5338 6.11277 32.5568 6.11277H30.9849L30.1116 11.1451H32.1366Z" fill="#FAFAFA"/>
<path id="Vector_3" d="M49.0404 4.43743C51.5566 1.64289 55.1534 0 59.2742 0C66.0149 0 71.7076 4.32827 71.7076 11.7022C71.7076 14.9825 70.5887 18.7213 67.9688 21.6195C65.4527 24.4141 61.8559 26.057 57.7351 26.057C50.9944 26.057 45.3017 21.7232 45.3017 14.3548C45.3017 11.069 46.4206 7.33568 49.0404 4.43743ZM57.9861 19.8074C59.9073 19.8074 61.4465 18.9341 62.4562 17.7115C63.5751 16.3852 64.4102 14.322 64.4102 12.1934C64.4102 8.97857 62.489 6.25498 59.0286 6.25498C57.1074 6.25498 55.5737 7.12828 54.5585 8.35089C53.4396 9.67721 52.6045 11.7404 52.6045 13.869C52.6045 17.0838 54.5257 19.8074 57.9807 19.8074H57.9861Z" fill="#FAFAFA"/>
<path id="Vector_4" d="M73.0771 25.6746L77.5472 0.387228H84.2551L88.5506 8.17594C89.8441 10.5175 91.1377 12.8917 92.3603 15.2333L92.4312 15.2005C92.7805 12.9299 93.2336 10.1681 93.6866 7.58646L94.9419 0.392688H101.857L97.3871 25.6801H90.6792L86.3837 17.8914C85.0902 15.5498 83.7966 13.1756 82.574 10.834L82.5031 10.8668C82.1538 13.1373 81.7008 15.8937 81.2478 18.4808L79.9924 25.6746H73.0771Z" fill="#FAFAFA"/>
<path id="Vector_5" d="M111.78 6.46449H103.85L104.931 0.384171H127.985L126.905 6.46449H118.974L115.585 25.677H108.391L111.78 6.46449Z" fill="#FAFAFA"/>
<path id="Vector_6" d="M131.058 0.387228H147.198L146.117 6.46755H137.177L136.62 9.68237H144.13L143.115 15.4134H135.605L134.873 19.6052H144.234L143.153 25.6801H126.599L131.069 0.392688L131.058 0.387228Z" fill="#FAFAFA"/>
<path id="Vector_7" d="M146.712 25.6746L151.182 0.387228H157.89L162.185 8.17594C163.479 10.5175 164.772 12.8917 165.995 15.2333L166.066 15.2005C166.415 12.9299 166.868 10.1681 167.321 7.58646L168.576 0.392688H175.492L171.022 25.6801H164.314L160.018 17.8914C158.725 15.5498 157.431 13.1756 156.209 10.834L156.138 10.8668C155.788 13.1373 155.335 15.8937 154.882 18.4808L153.627 25.6746H146.712Z" fill="#FAFAFA"/>
<path id="Vector_8" d="M180 0.387228H186.604C191.041 0.387228 194.185 1.18957 196.385 2.62505C199.141 4.40439 200.997 7.54825 200.997 11.7073C200.997 15.6208 199.354 19.7744 195.79 22.498C193.17 24.5229 189.606 25.6746 185.065 25.6746H175.53L180 0.387228ZM185.692 19.5997C188.416 19.5997 190.337 18.8684 191.664 17.5366C193.132 16.1066 193.792 14.0816 193.792 12.1221C193.792 10.3046 193.197 8.59621 191.522 7.54825C190.37 6.84962 188.831 6.5003 186.773 6.5003H186.107L183.804 19.5997H185.692Z" fill="#FAFAFA"/>
<path id="Vector_9" d="M20.4673 59.9083C18.5134 60.7107 16.1719 60.989 14.2506 60.989C6.84412 60.989 1.32607 56.9391 1.32607 49.7071C1.32607 45.8319 2.93072 41.7438 5.79618 38.9492C8.41603 36.4003 12.0129 34.9321 16.2046 34.9321C19.1028 34.9321 21.7936 35.6307 23.9223 36.7496L22.7706 43.3539C20.571 42.0985 18.0876 41.329 15.9263 41.329C13.7649 41.329 11.9801 42.0985 10.7193 43.3539C9.25111 44.8221 8.51973 47.0218 8.51973 48.9758C8.51973 52.6763 11.1396 54.5976 14.9111 54.5976C17.0069 54.5976 19.6595 54.0027 21.6899 52.9547L20.4673 59.9029V59.9083Z" fill="#FAFAFA"/>
<path id="Vector_10" d="M29.2005 39.3695C31.7167 36.5749 35.3135 34.9321 39.4343 34.9321C46.175 34.9321 51.8677 39.2603 51.8677 46.6342C51.8677 49.9145 50.7488 53.6533 48.1289 56.5516C45.6128 59.3461 42.016 60.989 37.8951 60.989C31.1545 60.989 25.4618 56.6553 25.4618 49.2869C25.4618 46.0011 26.5807 42.2677 29.2005 39.3695ZM38.1408 54.7395C40.062 54.7395 41.6011 53.8662 42.6109 52.6436C43.7298 51.3173 44.5648 49.2541 44.5648 47.1255C44.5648 43.9106 42.6436 41.187 39.1832 41.187C37.262 41.187 35.7283 42.0603 34.7131 43.283C33.5942 44.6093 32.7592 46.6724 32.7592 48.8011C32.7592 52.0159 34.6804 54.7395 38.1353 54.7395H38.1408Z" fill="#FAFAFA"/>
<path id="Vector_11" d="M53.2323 60.6067L57.7024 35.3193H64.4103L68.7058 43.108C69.9993 45.4495 71.2929 47.8238 72.5155 50.1653L72.5864 50.1326C72.9357 47.862 73.3887 45.1002 73.8418 42.5185L75.0971 35.3247H82.0124L77.5423 60.6121H70.8344L66.5389 52.8234C65.2454 50.4819 63.9518 48.1076 62.7292 45.7661L62.6583 45.7988C62.309 48.0694 61.856 50.8258 61.4029 53.4129L60.1476 60.6067H53.2323Z" fill="#FAFAFA"/>
<path id="Vector_12" d="M86.5205 35.3193H103.009L101.929 41.3996H92.639L91.9731 45.1002H99.9036L98.8884 50.8312H90.9579L89.2441 60.6121H82.0504L86.5205 35.3247V35.3193Z" fill="#FAFAFA"/>
<path id="Vector_13" d="M106.852 35.3193H122.991L121.91 41.3996H112.97L112.413 44.6144H119.924L118.908 50.3454H111.398L110.667 54.5373H120.027L118.947 60.6121H102.393L106.863 35.3247L106.852 35.3193Z" fill="#FAFAFA"/>
<path id="Vector_14" d="M126.975 35.3193H134.906C138.082 35.3193 140.353 35.7396 142.099 36.8585C143.917 38.0101 145.036 39.8277 145.036 42.2402C145.036 43.6047 144.686 45.4877 143.393 47.2016C142.416 48.4951 141.019 49.5431 139.343 50.138L144.266 60.6176H136.303L132.39 51.0113H131.374L129.699 60.6176H122.505L126.975 35.3302V35.3193ZM134.311 46.0772C135.391 46.0772 136.303 45.7988 136.931 45.2749C137.384 44.8928 137.837 44.2597 137.837 43.2117C137.837 42.4094 137.558 41.8854 137.034 41.5361C136.478 41.154 135.708 41.0448 134.731 41.0448H133.159L132.286 46.0772H134.311Z" fill="#FAFAFA"/>
<path id="Vector_15" d="M150.62 35.3193H166.759L165.678 41.3996H156.738L156.181 44.6144H163.692L162.676 50.3454H155.166L154.435 54.5373H163.795L162.715 60.6121H146.161L150.631 35.3247L150.62 35.3193Z" fill="#FAFAFA"/>
<path id="Vector_16" d="M166.273 60.6067L170.743 35.3193H177.451L181.747 43.108C183.04 45.4495 184.334 47.8238 185.556 50.1653L185.627 50.1326C185.977 47.862 186.43 45.1002 186.883 42.5185L188.138 35.3247H195.053L190.583 60.6121H183.875L179.58 52.8234C178.286 50.4819 176.993 48.1076 175.77 45.7661L175.699 45.7988C175.35 48.0694 174.897 50.8258 174.444 53.4129L173.188 60.6067H166.273Z" fill="#FAFAFA"/>
<path id="Vector_17" d="M215.559 59.9083C213.605 60.7107 211.264 60.989 209.342 60.989C201.936 60.989 196.418 56.9391 196.418 49.7071C196.418 45.8319 198.022 41.7438 200.888 38.9492C203.508 36.4003 207.105 34.9321 211.296 34.9321C214.195 34.9321 216.885 35.6307 219.014 36.7496L217.862 43.3539C215.663 42.0985 213.179 41.329 211.018 41.329C208.857 41.329 207.072 42.0985 205.811 43.3539C204.343 44.8221 203.611 47.0218 203.611 48.9758C203.611 52.6763 206.231 54.5976 210.003 54.5976C212.099 54.5976 214.751 54.0027 216.782 52.9547L215.559 59.9029V59.9083Z" fill="#FAFAFA"/>
<path id="Vector_18" d="M223.697 35.3193H239.836L238.755 41.3996H229.815L229.258 44.6144H236.769L235.754 50.3454H228.243L227.512 54.5373H236.872L235.792 60.6121H219.238L223.708 35.3247L223.697 35.3193Z" fill="#FAFAFA"/>
</g>
</svg>
