<svg preserveAspectRatio="none" width="100%" height="100%" overflow="visible" style="display: block;" viewBox="0 0 360 411.592" fill="none" xmlns="http://www.w3.org/2000/svg">
<g id="Group">
<path id="Vector" d="M348.331 236.028L265.978 145.935C262.693 142.335 262.273 136.965 264.988 132.915C281.084 108.734 288.359 79.7387 285.599 50.803L282.599 19.5722C281.879 12.147 274.694 7.12189 267.494 9.01193C253.453 12.672 240.448 19.5572 229.528 29.1124H229.513C219.462 37.9027 212.292 49.4979 208.932 62.4133L199.422 98.8792C196.227 111.134 188.292 121.47 177.551 127.77C172.796 119.79 166.766 115.005 160.196 115.005C149.306 115.005 139.9 128.1 135.355 147.15C133.63 148.65 132.04 150.285 130.585 152.071C126.58 130.395 116.5 115.005 104.709 115.005C89.379 115.005 76.9587 140.94 76.9587 172.936C76.9587 183.886 78.4138 194.132 80.9489 202.877C75.5787 206.717 70.0136 210.317 64.2684 213.617L13.4022 242.868C7.387 246.318 6.96696 254.868 12.6221 258.903L57.2032 290.779C66.2785 297.274 78.0238 298.729 88.419 294.679C104.964 288.214 122.575 284.899 140.335 284.899C176.321 284.899 209.652 303.889 228.013 334.865L265.379 397.867C269.699 405.157 280.454 404.557 283.934 396.802L350.386 248.568C352.276 244.368 351.481 239.433 348.376 236.043L348.331 236.028Z" fill="var(--fill-0, white)"/>
<path id="Union" d="M265.319 0.671875C271.183 -0.858082 277.423 0.251612 282.403 3.73145C287.399 7.2115 290.594 12.687 291.179 18.7471L294.179 49.9775C297.134 80.7733 289.319 111.93 272.174 137.686C271.664 138.45 271.754 139.455 272.368 140.13L354.705 230.207C360.135 236.147 361.531 244.728 358.231 252.078L291.779 400.312C288.854 406.837 282.584 411.157 275.444 411.562C275.069 411.592 274.693 411.592 274.333 411.592C267.613 411.592 261.404 408.082 257.939 402.247L220.572 339.245C203.847 311.029 173.081 293.509 140.305 293.509C123.55 293.509 107.124 296.599 91.5236 302.704C78.3384 307.834 63.6384 305.989 52.1632 297.784L7.59683 265.924C2.55672 262.309 -0.278356 256.458 0.0216318 250.248C0.33664 244.038 3.72732 238.488 9.11245 235.397L59.9787 206.146C64.4786 203.551 68.8736 200.776 73.1486 197.821C71.5436 190.231 70.674 181.861 70.674 172.937C70.674 136.336 85.3138 108.72 104.709 108.72C116.424 108.72 126.4 118.785 132.46 134.82C135.505 126.75 139.54 120.21 144.295 115.68C134.245 101.729 126.895 85.8891 122.815 68.9238L115.105 36.8379C113.275 29.2178 118.705 21.7473 126.52 21.1621C141.745 20.0071 157.031 22.3922 171.161 28.1523H171.176C183.956 33.3574 194.891 42.2226 202.647 53.6377C206.952 41.6976 214.182 31.0623 223.842 22.6172L226.377 20.4873C237.732 11.2021 251.128 4.37697 265.319 0.671875ZM272.549 17.8174C272.054 17.4724 271.034 16.9477 269.684 17.3076C256.994 20.6227 245.068 26.9374 235.213 35.5625L234.298 36.373C225.988 43.9482 220.108 53.6683 217.273 64.5586L215.202 72.4932L207.762 101.024C204.492 113.55 196.976 124.41 186.791 131.94C191.471 142.906 194.217 157.066 194.217 172.921C194.217 209.522 179.576 237.138 160.181 237.138C148.466 237.138 138.49 227.073 132.43 211.037C126.355 227.072 116.395 237.137 104.68 237.138C93.9396 237.138 84.6835 228.678 78.5334 214.938C75.2484 217.067 71.9184 219.122 68.5285 221.072L17.6623 250.323C17.5422 250.398 17.2421 250.578 17.2121 251.073C17.1822 251.583 17.482 251.793 17.5871 251.868L62.1681 283.744C68.8882 288.559 77.5134 289.639 85.2384 286.624C94.3626 283.065 103.733 280.412 113.276 278.682C113.256 278.271 113.245 277.838 113.245 277.384C113.245 259.953 128.831 245.838 148.046 245.838C167.261 245.838 182.847 259.968 182.847 277.384C182.847 280.71 182.228 282.849 181.094 284.136C203.475 293.068 222.796 309.195 235.393 330.44L272.759 393.441C273.149 394.086 273.703 394.387 274.453 394.342C275.188 394.312 275.728 393.937 276.028 393.262L342.481 245.028L342.51 244.968C342.99 243.903 342.795 242.658 342 241.788L259.649 151.695C253.664 145.14 252.928 135.435 257.848 128.07C272.788 105.615 279.613 78.4489 277.033 51.5684L274.033 20.3525C273.898 18.9578 273.044 18.1625 272.549 17.8174ZM104.694 121.29C99.9694 121.29 94.7644 126.3 90.7443 134.686V134.7C88.6893 139.005 87.0388 143.955 85.8087 149.325C87.3388 148.29 88.989 147.705 90.714 147.705C98.0041 147.705 103.989 157.785 104.634 170.641C104.664 171.406 104.694 172.171 104.694 172.951C104.694 186.886 98.4392 198.196 90.714 198.196C88.974 198.196 87.3388 197.611 85.8087 196.576C86.7088 200.476 87.8194 204.152 89.1544 207.527C89.6644 208.787 90.1893 210.018 90.7443 211.188C94.7644 219.572 99.9695 224.582 104.694 224.582C109.42 224.582 114.625 219.572 118.645 211.188C123.49 201.077 126.16 187.502 126.16 172.937C126.16 172.697 126.145 172.456 126.145 172.216C126.085 163.441 125.08 155.041 123.19 147.556C122.005 142.861 120.475 138.526 118.645 134.686C114.625 126.3 109.42 121.29 104.694 121.29ZM160.181 121.274C157.586 121.274 154.825 122.805 152.2 125.595C150.985 126.885 149.785 128.445 148.66 130.245H148.646C147.791 131.58 146.98 133.065 146.215 134.67C144.31 138.645 142.766 143.16 141.566 148.035C143.035 147.06 144.625 146.506 146.29 146.506C147.865 146.506 149.366 147 150.776 147.87C156.236 151.245 160.166 160.561 160.166 171.556C160.166 185.386 153.955 196.606 146.29 196.606C144.355 196.606 142.525 195.887 140.845 194.597C142.105 200.732 143.905 206.357 146.215 211.172C150.235 219.557 155.441 224.567 160.166 224.567C164.891 224.567 170.096 219.557 174.116 211.172C178.961 201.062 181.631 187.471 181.631 172.921C181.631 160.051 179.546 147.946 175.706 138.315C175.211 137.055 174.686 135.84 174.131 134.67C170.111 126.285 164.891 121.274 160.181 121.274Z" fill="var(--fill-0, #0A0A0A)"/>
</g>
</svg>
