<svg preserveAspectRatio="none" width="100%" height="100%" overflow="visible" style="display: block;" viewBox="0 0 150.022 133.701" fill="none" xmlns="http://www.w3.org/2000/svg" xmlns:xlink="http://www.w3.org/1999/xlink">
<g id="Group 12">
<g id="Vector">
<path d="M40.4595 0.20125C41.3372 0.887129 41.3481 3.0931 42.2271 4.20357C45.3043 7.90513 47.6033 7.32812 49.7511 12.2885C53.417 15.7696 51.2379 18.8914 54.4977 20.0142C56.6822 20.1312 58.338 19.9638 60.4081 21.1505C62.9402 22.1099 64.7718 23.6518 66.6674 25.4127C69.3862 27.19 72.567 25.7543 74.9573 23.8872C79.0293 20.0455 83.8577 20.534 87.5891 24.4683C90.1211 26.3612 91.7688 24.9228 93.8279 28.1209C96.4186 30.2955 99.4863 31.0862 102.178 28.5849C104.636 26.7368 107.322 25.1977 109.582 23.2503C111.202 22.1521 113.384 21.4866 115.293 22.0187C116.424 22.5889 115.46 24.1281 115.227 25.0725C114.093 27.5003 115.986 29.6233 117.121 31.6591C118.676 35.4192 121.482 34.1658 124.582 33.2731C127.016 32.5763 128.699 30.5282 131.273 30.1404C133.566 29.6627 135.768 30.584 137.924 31.2127C140.213 31.6891 142.189 33.2323 144.424 33.8283C146.279 34.287 150.907 31.5366 149.873 35.1157C149.45 36.3868 147.955 37.3122 148.328 38.722C149.133 40.6545 150.387 42.0303 148.794 44.0947C145.28 47.7786 147.161 46.7552 145.884 50.7576C143.774 54.4387 140.44 57.453 137.595 60.613C132.683 65.9585 136.625 70.6235 131.253 74.7878C125.069 78.9521 128.924 83.1939 121.517 87.9542C120.548 88.6932 119.646 89.4634 118.612 90.0949C115.908 91.698 110.645 91.8341 108.314 94.9613C106.491 97.5769 106.416 100.944 105.378 103.9C104.587 106.884 105.8 109.853 106.345 112.751C107.803 121.496 98.6168 119.411 93.0525 121.577C88.0047 121.56 39.834 142.234 46.5199 129.627C53.7727 112.449 52.861 125.472 59.0331 123.401C59.8725 122.326 60.5362 121.384 62.0789 121.2C64.1067 120.753 65.9302 119.882 67.8272 118.974C69.3549 118.291 71.1606 117.884 72.2699 116.557C73.6749 114.473 74.5117 114.23 76.4237 113.042C77.4335 112.023 78.1831 110.215 79.8784 110.255C84.1357 110.595 79.5895 117.681 81.9744 116.58C84.704 115.636 81.8694 112.581 83.9231 111.165C86.6106 109.689 84.486 110.309 84.0145 107.318C83.9886 103.724 85.2532 103.302 82.2551 100.41C81.3625 99.342 80.8364 98.2152 79.4654 98.011C77.8764 97.8464 75.7327 97.5633 73.987 97.268C71.8215 97.1319 69.7324 97.5579 68.3382 99.1297C67.4769 100.227 67.1471 104.017 65.2215 103.159C64.1926 102.284 63.0819 101.362 61.5856 101.523C59.0562 101.123 56.6277 101.564 54.1175 101.877C48.793 102.239 44.5111 103.252 42.6972 96.8094C42.3661 95.8377 42.6304 95.043 42.0867 94.7395C40.4609 95.7343 40.2483 95.0906 38.5898 94.4551C36.6341 93.8985 36.8181 91.2176 37.2065 89.4593C37.4995 88.093 38.2627 86.2844 38.5598 85.0528C38.711 84.4391 38.6729 84.1479 38.5489 84.269C38.0719 84.9562 37.6385 85.7618 37.0512 86.5403C36.1531 87.7324 34.6581 88.2999 34.3924 89.9057C33.8949 92.3049 33.482 94.8633 32.9573 97.3401C32.3713 99.9285 32.0742 102.725 33.8132 104.905C35.1923 106.729 37.3251 108.024 38.4739 110.007C41.9327 116.979 32.6262 113.56 29.5749 112.031C19.4125 107.416 23.6767 102.503 24.5107 94.0223C24.2859 86.875 20.5791 88.519 19.6823 84.9576C19.3076 83.2089 19.4139 79.9754 19.125 77.6688C18.9805 76.2643 18.633 74.8218 18.9764 73.446C19.3566 71.9545 20.2997 70.7623 21.0519 69.4042C21.6693 67.9249 22.7854 66.5967 23.8184 65.4563C24.3908 64.4071 24.0678 63.2517 24.7233 62.1317C25.9076 59.874 28.8444 56.5168 26.7961 54.1393C25.0259 54.0318 24.7369 57.8164 23.9765 59.0112C23.5895 60.1489 22.2771 61.3751 22.1435 59.2467C21.8751 58.5023 22.6968 54.7708 21.3395 55.4172C20.2493 57.0502 21.8669 59.5501 21.5044 61.3234C21.4063 62.6543 19.8472 63.5878 18.7652 62.6271C18.1151 62.2161 17.7186 60.9899 17.356 60.5313C17.3274 60.5177 17.3002 60.5218 17.2716 60.5395C16.15 61.42 16.3421 64.2656 14.3974 63.7892C10.5284 62.2909 10.816 57.1237 8.84266 54.1488C6.47413 50.3384 0.818524 48.6482 0.183461 43.8416C-0.42162 40.4299 0.633184 37.0277 0.99705 33.6786C0.815798 28.9034 2.39664 25.772 5.2149 22.0378C7.85191 18.7132 9.19154 14.5149 11.2766 10.8514C13.5239 7.02057 17.8303 10.4785 21.3572 9.66474C23.2106 9.34629 24.9209 8.49575 26.728 7.89016C29.0529 7.02193 31.6082 6.87359 33.7914 5.63384C34.6199 5.16434 35.3763 4.55603 35.9664 3.813C37.1806 2.09694 38.0392 -0.773132 40.4486 0.194446L40.4595 0.202611V0.20125Z" fill="var(--fill-0, white)"/>
<path d="M40.4595 0.20125C41.3372 0.887129 41.3481 3.0931 42.2271 4.20357C45.3043 7.90513 47.6033 7.32812 49.7511 12.2885C53.417 15.7696 51.2379 18.8914 54.4977 20.0142C56.6822 20.1312 58.338 19.9638 60.4081 21.1505C62.9402 22.1099 64.7718 23.6518 66.6674 25.4127C69.3862 27.19 72.567 25.7543 74.9573 23.8872C79.0293 20.0455 83.8577 20.534 87.5891 24.4683C90.1211 26.3612 91.7688 24.9228 93.8279 28.1209C96.4186 30.2955 99.4863 31.0862 102.178 28.5849C104.636 26.7368 107.322 25.1977 109.582 23.2503C111.202 22.1521 113.384 21.4866 115.293 22.0187C116.424 22.5889 115.46 24.1281 115.227 25.0725C114.093 27.5003 115.986 29.6233 117.121 31.6591C118.676 35.4192 121.482 34.1658 124.582 33.2731C127.016 32.5763 128.699 30.5282 131.273 30.1404C133.566 29.6627 135.768 30.584 137.924 31.2127C140.213 31.6891 142.189 33.2323 144.424 33.8283C146.279 34.287 150.907 31.5366 149.873 35.1157C149.45 36.3868 147.955 37.3122 148.328 38.722C149.133 40.6545 150.387 42.0303 148.794 44.0947C145.28 47.7786 147.161 46.7552 145.884 50.7576C143.774 54.4387 140.44 57.453 137.595 60.613C132.683 65.9585 136.625 70.6235 131.253 74.7878C125.069 78.9521 128.924 83.1939 121.517 87.9542C120.548 88.6932 119.646 89.4634 118.612 90.0949C115.908 91.698 110.645 91.8341 108.314 94.9613C106.491 97.5769 106.416 100.944 105.378 103.9C104.587 106.884 105.8 109.853 106.345 112.751C107.803 121.496 98.6168 119.411 93.0525 121.577C88.0047 121.56 39.834 142.234 46.5199 129.627C53.7727 112.449 52.861 125.472 59.0331 123.401C59.8725 122.326 60.5362 121.384 62.0789 121.2C64.1067 120.753 65.9302 119.882 67.8272 118.974C69.3549 118.291 71.1606 117.884 72.2699 116.557C73.6749 114.473 74.5117 114.23 76.4237 113.042C77.4335 112.023 78.1831 110.215 79.8784 110.255C84.1357 110.595 79.5895 117.681 81.9744 116.58C84.704 115.636 81.8694 112.581 83.9231 111.165C86.6106 109.689 84.486 110.309 84.0145 107.318C83.9886 103.724 85.2532 103.302 82.2551 100.41C81.3625 99.342 80.8364 98.2152 79.4654 98.011C77.8764 97.8464 75.7327 97.5633 73.987 97.268C71.8215 97.1319 69.7324 97.5579 68.3382 99.1297C67.4769 100.227 67.1471 104.017 65.2215 103.159C64.1926 102.284 63.0819 101.362 61.5856 101.523C59.0562 101.123 56.6277 101.564 54.1175 101.877C48.793 102.239 44.5111 103.252 42.6972 96.8094C42.3661 95.8377 42.6304 95.043 42.0867 94.7395C40.4609 95.7343 40.2483 95.0906 38.5898 94.4551C36.6341 93.8985 36.8181 91.2176 37.2065 89.4593C37.4995 88.093 38.2627 86.2844 38.5598 85.0528C38.711 84.4391 38.6729 84.1479 38.5489 84.269C38.0719 84.9562 37.6385 85.7618 37.0512 86.5403C36.1531 87.7324 34.6581 88.2999 34.3924 89.9057C33.8949 92.3049 33.482 94.8633 32.9573 97.3401C32.3713 99.9285 32.0742 102.725 33.8132 104.905C35.1923 106.729 37.3251 108.024 38.4739 110.007C41.9327 116.979 32.6262 113.56 29.5749 112.031C19.4125 107.416 23.6767 102.503 24.5107 94.0223C24.2859 86.875 20.5791 88.519 19.6823 84.9576C19.3076 83.2089 19.4139 79.9754 19.125 77.6688C18.9805 76.2643 18.633 74.8218 18.9764 73.446C19.3566 71.9545 20.2997 70.7623 21.0519 69.4042C21.6693 67.9249 22.7854 66.5967 23.8184 65.4563C24.3908 64.4071 24.0678 63.2517 24.7233 62.1317C25.9076 59.874 28.8444 56.5168 26.7961 54.1393C25.0259 54.0318 24.7369 57.8164 23.9765 59.0112C23.5895 60.1489 22.2771 61.3751 22.1435 59.2467C21.8751 58.5023 22.6968 54.7708 21.3395 55.4172C20.2493 57.0502 21.8669 59.5501 21.5044 61.3234C21.4063 62.6543 19.8472 63.5878 18.7652 62.6271C18.1151 62.2161 17.7186 60.9899 17.356 60.5313C17.3274 60.5177 17.3002 60.5218 17.2716 60.5395C16.15 61.42 16.3421 64.2656 14.3974 63.7892C10.5284 62.2909 10.816 57.1237 8.84266 54.1488C6.47413 50.3384 0.818524 48.6482 0.183461 43.8416C-0.42162 40.4299 0.633184 37.0277 0.99705 33.6786C0.815798 28.9034 2.39664 25.772 5.2149 22.0378C7.85191 18.7132 9.19154 14.5149 11.2766 10.8514C13.5239 7.02057 17.8303 10.4785 21.3572 9.66474C23.2106 9.34629 24.9209 8.49575 26.728 7.89016C29.0529 7.02193 31.6082 6.87359 33.7914 5.63384C34.6199 5.16434 35.3763 4.55603 35.9664 3.813C37.1806 2.09694 38.0392 -0.773132 40.4486 0.194446L40.4595 0.202611V0.20125Z" fill="url(#pattern0_0_4)" fill-opacity="0.04"/>
</g>
<g id="Group 9">
<path id="Vector_3" d="M36.4077 32.3972L27.593 50.1678C27.2526 50.8527 26.2758 50.8527 25.9353 50.1678L17.1207 32.3972C15.0687 28.2583 15.8855 23.2703 19.1524 20.0033C23.3559 15.7999 30.1711 15.7999 34.3746 20.0033C37.6416 23.2703 38.4597 28.2583 36.4064 32.3972H36.4077Z" fill="var(--fill-0, #FF6A00)"/>
<path id="Vector_4" d="M32.1465 27.5598C32.1465 24.5873 29.7369 22.1776 26.7644 22.1776C23.7919 22.1776 21.3822 24.5873 21.3822 27.5598C21.3822 30.5322 23.7919 32.9419 26.7644 32.9419C29.7369 32.9419 32.1465 30.5322 32.1465 27.5598Z" fill="var(--fill-0, white)"/>
</g>
</g>
<defs>
<pattern id="pattern0_0_4" patternUnits="userSpaceOnUse" patternTransform="matrix(6.26398 0 0 14.328 5.24521e-06 -5.16411e-09)" preserveAspectRatio="none" viewBox="0 0 626.398 1432.8" width="1" height="1">
<use xlink:href="#pattern0_0_4_inner" transform="translate(-626.398 0)"/>
<g id="pattern0_0_4_inner">
<g id="Vector_2">
<path d="M342.887 222.604L263.29 135.5C262.689 134.844 262.614 133.878 263.11 133.137C279.681 108.231 287.238 78.1128 284.385 48.3254L281.483 18.1325C280.917 12.2701 277.824 6.97846 272.994 3.60922C268.175 0.244998 262.154 -0.831355 256.474 0.650507C242.755 4.23501 229.803 10.8383 218.832 19.8146L216.38 21.8722C207.046 30.0324 200.054 40.3153 195.885 51.8749C188.393 40.841 177.818 32.2652 165.466 27.2339H165.451C151.788 21.6669 137.014 19.349 122.299 20.4704C114.747 21.0411 109.502 28.2552 111.269 35.6345L118.716 66.6584C122.655 83.059 129.757 98.3883 139.486 111.86C134.891 116.236 130.988 122.569 128.04 130.368C122.179 114.869 112.545 105.127 101.219 105.127C82.466 105.127 68.3224 131.82 68.3224 167.22C68.3224 175.846 69.1682 183.951 70.7097 191.28C66.5707 194.139 62.3266 196.827 57.9774 199.325L8.80509 227.606C3.60008 230.604 0.316915 235.971 0.0216306 241.974C-0.273654 247.976 2.46899 253.643 7.34868 257.128L50.4302 287.941C61.5158 295.881 75.7395 297.659 88.4868 292.697C103.571 286.8 119.437 283.811 135.642 283.811C167.328 283.811 197.061 300.758 213.232 328.037L249.352 388.958C252.7 394.605 258.701 398 265.207 398C265.562 398 265.918 397.99 266.273 397.97C273.18 397.574 279.23 393.409 282.058 387.091L346.29 243.756C349.473 236.652 348.137 228.352 342.887 222.609V222.604Z" fill="var(--fill-0, black)" style="mix-blend-mode:color-burn"/>
</g>
</g>
<use xlink:href="#pattern0_0_4_inner" transform="translate(-313.199 716.399)"/>
<use xlink:href="#pattern0_0_4_inner" transform="translate(313.199 716.399)"/>
</pattern></defs>
</svg>
