<svg preserveAspectRatio="none" width="100%" height="100%" overflow="visible" style="display: block;" viewBox="0 0 479.672 120.985" fill="none" xmlns="http://www.w3.org/2000/svg">
<g id="Icon Group">
<path id="Vector" d="M8.94024 0.768837H41.9176L39.7562 12.8305H21.1771L19.8454 20.1715H35.7064L33.676 31.5402H17.815L14.3873 50.9428H0L8.94024 0.779667V0.768837Z" fill="var(--fill-0, #0A0A0A)"/>
<path id="Vector_2" d="M49.6036 0.768837H65.4646C71.8177 0.768837 76.3588 1.60255 79.8519 3.82216C83.4869 6.10673 85.7247 9.71224 85.7247 14.4979C85.7247 17.2048 85.0261 20.9402 82.439 24.34C80.485 26.9061 77.6905 28.9849 74.3393 30.1651L84.1856 50.9537H68.2591L60.4323 31.8975H58.4019L55.0507 50.9537H40.6633L49.6036 0.790492V0.768837ZM64.2747 22.1096C66.4361 22.1096 68.2591 21.5574 69.5144 20.5179C70.4205 19.76 71.3265 18.5041 71.3265 16.4252C71.3265 14.8336 70.7698 13.7942 69.7218 13.1012C68.6084 12.3433 67.0692 12.1267 65.1153 12.1267H61.9714L60.2249 22.1096H64.2747Z" fill="var(--fill-0, #0A0A0A)"/>
<path id="Vector_3" d="M98.0808 8.80264C103.113 3.25904 110.307 0 118.548 0C132.03 0 143.415 8.58609 143.415 23.2139C143.415 29.7211 141.177 37.1378 135.938 42.8872C130.905 48.4308 123.712 51.6898 115.47 51.6898C101.989 51.6898 90.6034 43.0929 90.6034 28.4759C90.6034 21.9579 92.8411 14.552 98.0808 8.80264ZM115.972 39.2925C119.815 39.2925 122.893 37.5601 124.912 35.1348C127.15 32.5037 128.82 28.411 128.82 24.1883C128.82 17.811 124.978 12.4082 118.057 12.4082C114.215 12.4082 111.147 14.1405 109.117 16.5659C106.879 19.1969 105.209 23.2896 105.209 27.5123C105.209 33.8896 109.051 39.2925 115.961 39.2925H115.972Z" fill="var(--fill-0, #0A0A0A)"/>
<path id="Vector_4" d="M146.156 50.932L155.096 0.768837H168.512L177.103 16.2195C179.69 20.8644 182.277 25.5743 184.722 30.2193L184.864 30.1543C185.563 25.6501 186.469 20.1715 187.375 15.0501L189.885 0.779667H203.716L194.776 50.9428H181.36L172.769 35.4922C170.182 30.8473 167.595 26.1374 165.15 21.4924L165.008 21.5574C164.309 26.0616 163.403 31.5294 162.497 36.6615L159.986 50.932H146.156Z" fill="var(--fill-0, #0A0A0A)"/>
<path id="Vector_5" d="M223.559 12.8194H207.698L209.859 0.757668H255.969L253.807 12.8194H237.946L231.168 50.9317H216.78L223.559 12.8194Z" fill="var(--fill-0, #0A0A0A)"/>
<path id="Vector_6" d="M262.115 0.768837H294.393L292.232 12.8305H274.351L273.238 19.2078H288.258L286.228 30.5766H271.208L269.745 38.892H288.466L286.304 50.9428H253.196L262.136 0.779667L262.115 0.768837Z" fill="var(--fill-0, #0A0A0A)"/>
<path id="Vector_7" d="M293.425 50.932L302.365 0.768837H315.781L324.372 16.2195C326.959 20.8644 329.546 25.5743 331.991 30.2193L332.133 30.1543C332.832 25.6501 333.738 20.1715 334.644 15.0501L337.155 0.779667H350.985L342.045 50.9428H328.629L320.038 35.4922C317.451 30.8473 314.864 26.1374 312.419 21.4924L312.277 21.5574C311.578 26.0616 310.672 31.5294 309.766 36.6615L307.256 50.932H293.425Z" fill="var(--fill-0, #0A0A0A)"/>
<path id="Vector_8" d="M359.999 0.768837H373.208C382.082 0.768837 388.37 2.36046 392.769 5.20806C398.282 8.73778 401.993 14.9743 401.993 23.2248C401.993 30.988 398.708 39.2276 391.579 44.6305C386.34 48.6474 379.212 50.932 370.129 50.932H351.059L359.999 0.768837ZM371.385 38.8812C376.832 38.8812 380.674 37.4303 383.327 34.7884C386.263 31.9517 387.584 27.9347 387.584 24.0477C387.584 20.4422 386.394 17.0532 383.043 14.9743C380.74 13.5884 377.661 12.8955 373.546 12.8955H372.214L367.608 38.8812H371.385Z" fill="var(--fill-0, #0A0A0A)"/>
<path id="Vector_9" d="M40.9363 118.841C37.0284 120.433 32.3454 120.985 28.5029 120.985C13.6899 120.985 2.65375 112.951 2.65375 98.6047C2.65375 90.9173 5.86307 82.8076 11.594 77.264C16.8337 72.2076 24.0274 69.295 32.4109 69.295C38.2073 69.295 43.5889 70.6809 47.8462 72.9006L45.5429 86.0016C41.1437 83.5114 36.1769 81.9847 31.8542 81.9847C27.5314 81.9847 23.9619 83.5114 21.4403 86.0016C18.5038 88.9142 17.0411 93.2776 17.0411 97.1538C17.0411 104.495 22.2808 108.306 29.8238 108.306C34.0155 108.306 39.3207 107.126 43.3815 105.047L40.9363 118.83V118.841Z" fill="var(--fill-0, #0A0A0A)"/>
<path id="Vector_10" d="M58.4011 78.0977C63.4333 72.5541 70.627 69.295 78.8686 69.295C92.3499 69.295 103.735 77.8811 103.735 92.5089C103.735 99.0161 101.498 106.433 96.2579 112.182C91.2256 117.726 84.0319 120.985 75.7903 120.985C62.309 120.985 50.9236 112.388 50.9236 97.771C50.9236 91.2529 53.1614 83.847 58.4011 78.0977ZM76.2815 108.588C80.124 108.588 83.2023 106.855 85.2218 104.43C87.4596 101.799 89.1297 97.706 89.1297 93.4834C89.1297 87.106 85.2873 81.7032 78.3665 81.7032C74.524 81.7032 71.4566 83.4356 69.4263 85.8609C67.1885 88.492 65.5183 92.5847 65.5183 96.8074C65.5183 103.185 69.3608 108.588 76.2706 108.588H76.2815Z" fill="var(--fill-0, #0A0A0A)"/>
<path id="Vector_11" d="M106.465 120.227L115.405 70.0637H128.821L137.411 85.5144C139.999 90.1593 142.586 94.8692 145.031 99.5142L145.173 99.4492C145.871 94.945 146.777 89.4664 147.683 84.345L150.194 70.0746H164.025L155.085 120.238H141.669L133.078 104.787C130.491 100.142 127.904 95.4322 125.458 90.7873L125.317 90.8523C124.618 95.3565 123.712 100.824 122.806 105.956L120.295 120.227H106.465Z" fill="var(--fill-0, #0A0A0A)"/>
<path id="Vector_12" d="M173.039 70.0637H206.016L203.855 82.1254H185.276L183.944 89.4664H199.805L197.775 100.835H181.914L178.486 120.238H164.099L173.039 70.0746V70.0637Z" fill="var(--fill-0, #0A0A0A)"/>
<path id="Vector_13" d="M213.704 70.0637H245.982L243.821 82.1254H225.94L224.827 88.5027H239.847L237.817 99.8715H222.797L221.334 108.187H240.055L237.893 120.238H204.785L213.725 70.0746L213.704 70.0637Z" fill="var(--fill-0, #0A0A0A)"/>
<path id="Vector_14" d="M253.95 70.0637H269.811C276.164 70.0637 280.705 70.8975 284.199 73.1171C287.834 75.4016 290.071 79.0071 290.071 83.7928C290.071 86.4997 289.373 90.2351 286.786 93.6349C284.832 96.201 282.037 98.2799 278.686 99.46L288.532 120.249H272.606L264.779 101.192H262.749L259.397 120.249H245.01L253.95 70.0854V70.0637ZM268.621 91.4045C270.783 91.4045 272.606 90.8523 273.861 89.8129C274.767 89.0549 275.673 87.799 275.673 85.7201C275.673 84.1285 275.116 83.0891 274.069 82.3961C272.955 81.6382 271.416 81.4216 269.462 81.4216H266.318L264.572 91.4045H268.621Z" fill="var(--fill-0, #0A0A0A)"/>
<path id="Vector_15" d="M301.238 70.0637H333.516L331.355 82.1254H313.475L312.361 88.5027H327.382L325.351 99.8715H310.331L308.868 108.187H327.589L325.428 120.238H292.319L301.26 70.0746L301.238 70.0637Z" fill="var(--fill-0, #0A0A0A)"/>
<path id="Vector_16" d="M332.544 120.227L341.484 70.0637H354.9L363.491 85.5144C366.078 90.1593 368.665 94.8692 371.111 99.5142L371.252 99.4492C371.951 94.945 372.857 89.4664 373.763 84.345L376.274 70.0746H390.104L381.164 120.238H367.748L359.157 104.787C356.57 100.142 353.983 95.4322 351.538 90.7873L351.396 90.8523C350.698 95.3565 349.792 100.824 348.885 105.956L346.375 120.227H332.544Z" fill="var(--fill-0, #0A0A0A)"/>
<path id="Vector_17" d="M431.118 118.841C427.21 120.433 422.528 120.985 418.685 120.985C403.872 120.985 392.836 112.951 392.836 98.6047C392.836 90.9173 396.045 82.8076 401.776 77.264C407.016 72.2076 414.209 69.295 422.593 69.295C428.389 69.295 433.771 70.6809 438.028 72.9006L435.725 86.0016C431.326 83.5114 426.359 81.9847 422.036 81.9847C417.714 81.9847 414.144 83.5114 411.622 86.0016C408.686 88.9142 407.223 93.2776 407.223 97.1538C407.223 104.495 412.463 108.306 420.006 108.306C424.198 108.306 429.503 107.126 433.564 105.047L431.118 118.83V118.841Z" fill="var(--fill-0, #0A0A0A)"/>
<path id="Vector_18" d="M447.393 70.0637H479.672L477.511 82.1254H459.63L458.517 88.5027H473.537L471.507 99.8715H456.486L455.024 108.187H473.745L471.583 120.238H438.475L447.415 70.0746L447.393 70.0637Z" fill="var(--fill-0, #0A0A0A)"/>
</g>
</svg>
