<svg preserveAspectRatio="none" width="100%" height="100%" overflow="visible" style="display: block;" viewBox="0 0 296 37.8284" fill="none" xmlns="http://www.w3.org/2000/svg">
<g id="Union">
<mask id="path-1-outside-1_0_6" maskUnits="userSpaceOnUse" x="0" y="0" width="296" height="38" fill="black">
<rect fill="white" width="296" height="38"/>
<path d="M66 31H16.5C8.49187 31 2 24.5081 2 16.5C2 8.49187 8.49187 2 16.5 2H279.5C287.508 2 294 8.49187 294 16.5C294 24.5081 287.508 31 279.5 31H74L70 35L66 31Z"/>
</mask>
<path d="M66 31H16.5C8.49187 31 2 24.5081 2 16.5C2 8.49187 8.49187 2 16.5 2H279.5C287.508 2 294 8.49187 294 16.5C294 24.5081 287.508 31 279.5 31H74L70 35L66 31Z" fill="var(--fill-0, #0A0A0A)"/>
<path d="M66 31L67.4142 29.5858L66.8284 29H66V31ZM16.5 2V0V2ZM279.5 31V33V31ZM74 31V29H73.1716L72.5858 29.5858L74 31ZM70 35L68.5858 36.4142L70 37.8284L71.4142 36.4142L70 35ZM66 31V29H16.5V31V33H66V31ZM16.5 31V29C9.59644 29 4 23.4036 4 16.5H2H0C0 25.6127 7.3873 33 16.5 33V31ZM2 16.5H4C4 9.59644 9.59644 4 16.5 4V2V0C7.3873 1.19209e-07 0 7.3873 0 16.5H2ZM16.5 2V4H279.5V2V0H16.5V2ZM279.5 2V4C286.404 4 292 9.59644 292 16.5H294H296C296 7.3873 288.613 0 279.5 0V2ZM294 16.5H292C292 23.4036 286.404 29 279.5 29V31V33C288.613 33 296 25.6127 296 16.5H294ZM279.5 31V29H74V31V33H279.5V31ZM74 31L72.5858 29.5858L68.5858 33.5858L70 35L71.4142 36.4142L75.4142 32.4142L74 31ZM70 35L71.4142 33.5858L67.4142 29.5858L66 31L64.5858 32.4142L68.5858 36.4142L70 35Z" fill="var(--stroke-0, black)" mask="url(#path-1-outside-1_0_6)"/>
</g>
</svg>
