<svg preserveAspectRatio="none" width="100%" height="100%" overflow="visible" style="display: block;" viewBox="0 0 358.799 34.4202" fill="none" xmlns="http://www.w3.org/2000/svg">
<g id="Icon Group">
<path id="Vector" d="M16.6797 29.5045C17.1273 29.5045 17.422 29.4396 17.5857 29.3096C17.7495 29.1797 17.8259 28.9631 17.8259 28.66C17.8259 28.5625 17.8041 28.4543 17.7713 28.3568H15.4462L14.9331 32.0598C14.0162 32.6986 13.0774 33.1642 12.1495 33.4348C11.2217 33.7055 10.141 33.8463 8.95115 33.8463C8.13245 33.8463 7.36832 33.7705 6.65878 33.6081C5.94924 33.4457 5.33794 33.1967 4.82489 32.8502C4.31183 32.5037 3.90794 32.049 3.62412 31.4968C3.34031 30.9446 3.18748 30.2624 3.18748 29.4612H3.36214C4.21359 29.4612 4.63931 29.2014 4.63931 28.6708C4.63931 28.5734 4.61748 28.4651 4.58473 28.3677H1.71382C1.13527 27.5773 0.698626 26.7869 0.425725 26.0073C0.152824 25.2277 0 24.329 0 23.3221C0 22.3152 0.141908 21.384 0.425725 20.6044C0.709542 19.8249 1.13527 19.0128 1.71382 18.1683H4.19176C4.68298 18.1683 5.01046 18.1033 5.15237 17.9734C5.29428 17.8435 5.37069 17.6377 5.37069 17.3562C5.37069 17.2371 5.34886 17.1289 5.31611 17.0314H2.83817C2.34695 16.241 1.9758 15.4506 1.73565 14.671C1.4955 13.8915 1.37542 12.9928 1.37542 11.9859C1.37542 10.9789 1.51733 10.0478 1.80115 9.2682C2.08496 8.48863 2.51069 7.67658 3.08924 6.83205H6.08023C6.93168 6.83205 7.35741 6.57218 7.35741 6.04164C7.35741 5.94419 7.33558 5.83592 7.30283 5.73847H6.27672L6.73519 2.56606C7.281 2.31704 7.79405 2.08965 8.28527 1.89476C8.77649 1.69986 9.2568 1.53746 9.72619 1.39671C10.1956 1.25595 10.6977 1.15851 11.2108 1.09354C11.7238 1.02858 12.2805 0.996101 12.87 0.996101C13.787 0.996101 14.5838 1.11519 15.2606 1.34257C15.9374 1.56994 16.4941 1.89476 16.9417 2.3062C17.3892 2.71764 17.7167 3.21569 17.935 3.78954C18.1534 4.36339 18.2625 5.00222 18.2625 5.69517C18.2625 6.08495 18.2407 6.46391 18.1861 6.83205H19.6707C20.1183 6.83205 20.413 6.76708 20.5549 6.62632C20.6968 6.48557 20.7732 6.30149 20.7732 6.04164C20.7732 5.94419 20.7514 5.83592 20.7186 5.73847H19.7253C19.7471 5.64103 19.7471 5.53276 19.7471 5.42449V5.13214C19.7471 4.68822 19.6707 4.26596 19.507 3.85452C19.3432 3.44308 19.1358 3.04247 18.8847 2.65269C19.758 2.16545 20.7296 1.76484 21.8102 1.46167C22.8909 1.1585 24.0371 1.00692 25.227 1.00692C26.1439 1.00692 26.9408 1.12601 27.6176 1.35339C28.2944 1.58076 28.8511 1.9056 29.2986 2.31704C29.7462 2.72848 30.0737 3.22653 30.292 3.80038C30.5103 4.37423 30.6195 5.01304 30.6195 5.70599C30.6195 6.09578 30.5976 6.47474 30.5431 6.84287H31.853C32.4315 7.6874 32.8682 8.49945 33.1629 9.27902C33.4576 10.0586 33.5996 10.9573 33.5996 11.9967C33.5996 13.0361 33.4576 13.9131 33.1629 14.6819C32.8682 15.4506 32.4425 16.2518 31.853 17.0422H29.2441C28.7528 17.0422 28.4254 17.1072 28.2834 17.2371C28.1415 17.3671 28.0651 17.5728 28.0651 17.8543C28.0651 17.9734 28.087 18.0817 28.1197 18.1791H30.8269C31.3181 19.0236 31.6893 19.8357 31.9403 20.6153C32.1914 21.3948 32.3115 22.2935 32.3115 23.3329C32.3115 24.3724 32.1696 25.2494 31.8748 26.0181C31.5801 26.7869 31.1544 27.5881 30.5649 28.3785H27.7813L27.2683 32.0814C26.4823 32.7202 25.5872 33.1858 24.5829 33.4565C23.5786 33.7272 22.4761 33.868 21.2863 33.868C20.1619 33.868 19.1686 33.6622 18.3171 33.2616C17.4657 32.861 16.7998 32.298 16.3195 31.5834L16.647 29.5262L16.6797 29.5045ZM16.0902 18.5906C16.0902 18.8829 16.1666 19.067 16.3195 19.1644C16.4723 19.2618 16.6906 19.3051 16.9854 19.3051H17.3456L17.7604 16.6633C17.7822 16.5767 17.7931 16.4792 17.815 16.3601C17.8368 16.241 17.8368 16.1544 17.8368 16.1111C17.8368 15.8079 17.7713 15.6022 17.6294 15.5048C17.4875 15.4073 17.2583 15.3532 16.9089 15.3532H16.5815L16.0902 18.6014V18.5906Z" fill="var(--fill-0, #0A0A0A)"/>
<path id="Vector_2" d="M50.9982 2.59867C51.4458 2.23054 51.937 1.90571 52.4937 1.62419C53.0504 1.34268 53.629 1.11531 54.2512 0.931243C54.8734 0.747178 55.4956 0.606423 56.1396 0.508977C56.7837 0.411531 57.4168 0.368232 58.0281 0.368232C58.9887 0.368232 59.9166 0.454851 60.8335 0.638916C61.7505 0.822982 62.5583 1.11532 63.2678 1.53759C63.9774 1.95986 64.545 2.52287 64.9707 3.23748C65.3965 3.95208 65.6148 4.83993 65.6148 5.90102V29.9378C65.6148 30.6957 65.4183 31.3453 65.0362 31.865C64.6542 32.3847 64.1411 32.807 63.4971 33.121C62.853 33.435 62.1216 33.6624 61.292 33.7923C60.4624 33.9222 59.611 33.998 58.7158 33.998C58.17 33.998 57.6242 33.9655 57.0675 33.9114C56.5108 33.8573 55.9868 33.7598 55.4956 33.6407C55.0044 33.5216 54.535 33.3917 54.1093 33.2293C53.6835 33.0669 53.3124 32.9044 53.0067 32.7204C52.2754 31.7892 51.6095 30.8906 51.02 30.0352C50.4306 29.1798 49.8848 28.3461 49.3935 27.5449C48.9023 26.7437 48.4329 25.9966 48.0072 25.2712C47.5815 24.5457 47.1667 23.8744 46.7846 23.2248C46.4899 23.2573 46.2934 23.3439 46.1951 23.4955C46.0969 23.6471 46.0423 23.8095 46.0423 24.0152C46.0423 24.2642 46.1078 24.5133 46.2497 24.7623C46.3916 25.0113 46.5663 25.3037 46.7846 25.661L49.983 30.7823V32.1249C49.7319 32.2981 49.4045 32.493 49.0115 32.7096C48.6185 32.9261 48.1382 33.1318 47.5706 33.3267C47.0029 33.5216 46.337 33.684 45.5838 33.8248C44.8306 33.9655 43.9683 34.0305 42.9967 34.0305C41.8833 34.0305 40.8681 33.9222 39.9293 33.7057C38.9905 33.4891 38.1828 33.1643 37.495 32.7312C36.8073 32.2981 36.2834 31.7676 35.9122 31.1179C35.5411 30.4683 35.3446 29.732 35.3446 28.8875V3.46486C35.3446 3.04259 35.5302 2.64198 35.9122 2.26302C36.2943 1.88406 36.7964 1.55923 37.4514 1.28855C38.1063 1.01786 38.8596 0.801327 39.7328 0.638916C40.6061 0.476506 41.534 0.400713 42.5164 0.400713C43.6408 0.400713 44.6778 0.53063 45.6384 0.812142C46.599 1.09365 47.3195 1.40765 47.8107 1.79744C48.1819 2.27384 48.5967 2.83686 49.0333 3.4865C49.4699 4.13614 49.9503 4.86158 50.4415 5.64115C50.9327 6.42072 51.4567 7.26527 51.9916 8.15311L53.6399 10.8816C53.8145 10.8816 53.9783 10.8275 54.142 10.7192C54.3058 10.6109 54.3822 10.4269 54.3822 10.1778C54.3822 9.99376 54.3167 9.76639 54.1748 9.50653C54.0329 9.24667 53.8909 8.98681 53.7381 8.73778L50.9764 4.01705V2.62033L50.9982 2.59867Z" fill="var(--fill-0, #0A0A0A)"/>
<path id="Vector_3" d="M72.7786 3.14003C73.4444 2.71777 74.1976 2.32797 75.0273 1.9815C75.8569 1.63502 76.7411 1.34269 77.6799 1.10448C78.6186 0.866283 79.5683 0.682218 80.5726 0.563117C81.5769 0.444016 82.5702 0.368232 83.5745 0.368232C84.9063 0.368232 86.2271 0.487335 87.5261 0.725537C88.8251 0.963739 90.0259 1.33187 91.0957 1.84075C92.1654 2.34964 93.0933 2.99927 93.8574 3.81132C94.6216 4.62338 95.1455 5.57619 95.4184 6.69141L101.248 30.6199C100.462 31.616 99.3591 32.4389 97.9509 33.0777C96.5428 33.7165 94.7416 34.0413 92.5803 34.0413C91.6196 34.0413 90.7245 33.9547 89.8949 33.7923C89.0653 33.6299 88.323 33.37 87.679 33.0452C87.0349 32.7204 86.5109 32.2981 86.0961 31.8001C85.6813 31.302 85.4084 30.7173 85.2883 30.0352L84.7207 26.9386C85.2447 26.9169 85.7686 26.8628 86.2926 26.7437C86.8166 26.6246 87.286 26.4946 87.7008 26.3322C88.1156 26.1698 88.4649 25.9858 88.7269 25.7909C88.9889 25.596 89.1199 25.3794 89.1199 25.1845C89.1199 24.9139 89.0107 24.6973 88.7924 24.5241C88.4867 24.7406 88.1265 24.9463 87.7226 25.1196C87.3187 25.2928 86.8821 25.4444 86.4345 25.5635C85.987 25.6826 85.5285 25.7692 85.0809 25.8342C84.6334 25.8991 84.2076 25.9208 83.8147 25.9208C83.0833 25.9208 82.4283 25.8775 81.8607 25.78C81.2931 25.6826 80.7909 25.5743 80.3652 25.4336C79.9395 25.2928 79.5683 25.152 79.2627 24.9896C78.957 24.8272 78.6951 24.6757 78.4986 24.5241C78.4331 24.6107 78.3676 24.7081 78.3239 24.8164C78.2802 24.9247 78.2475 25.0438 78.2475 25.1845C78.2475 25.4336 78.3785 25.6718 78.6405 25.8775C78.9025 26.0832 79.2627 26.2781 79.6993 26.4405C80.136 26.6029 80.649 26.7329 81.2167 26.8303C81.7843 26.9277 82.3847 27.0035 83.0178 27.036C83.1161 28.2162 83.2361 29.1582 83.3671 29.8619C83.4981 30.5657 83.6182 31.0097 83.7383 31.1937C83.5854 31.4861 83.2798 31.7892 82.8322 32.1249C82.3847 32.4605 81.817 32.7637 81.1402 33.056C80.4635 33.3484 79.6993 33.5757 78.837 33.7706C77.9746 33.9655 77.0576 34.0521 76.0861 34.0521C74.8744 34.0521 73.7283 33.9222 72.6585 33.6407C71.5887 33.3592 70.6499 32.9911 69.8421 32.5147C69.0344 32.0383 68.4012 31.4536 67.9209 30.7606C67.4406 30.0677 67.2005 29.3098 67.2005 28.4652C67.2005 28.2812 67.2005 28.0863 67.2223 27.8914C67.2441 27.6965 67.2769 27.5016 67.3205 27.2959L72.7676 3.14003H72.7786ZM84.808 16.2086C84.6225 15.1909 84.4696 14.3788 84.3605 13.7725C84.2513 13.1662 84.1422 12.7006 84.033 12.3866C83.9238 12.0726 83.8038 11.8669 83.6728 11.7803C83.5418 11.6936 83.3889 11.6395 83.2034 11.6395C83.0833 11.6395 82.9741 11.6612 82.8759 11.6936C82.7776 11.7261 82.6794 11.7586 82.5921 11.7911L83.5636 16.9124C83.6291 16.9774 83.7273 17.0315 83.8583 17.064C83.9893 17.0965 84.0985 17.1182 84.2077 17.1182C84.3605 17.1182 84.5024 17.0965 84.6443 17.0532C84.7862 17.0099 84.8844 16.9774 84.9499 16.9341L84.8189 16.1978L84.808 16.2086Z" fill="var(--fill-0, #0A0A0A)"/>
<path id="Vector_4" d="M121.682 22.4235C121.136 22.4235 120.634 22.3153 120.165 22.1095C119.695 21.9038 119.28 21.579 118.92 21.1567C118.56 20.7345 118.276 20.2039 118.08 19.5759C117.883 18.9479 117.774 18.2117 117.774 17.378C117.774 16.7391 117.828 16.1437 117.949 15.6131C118.069 15.0826 118.211 14.6062 118.385 14.1947C118.56 13.7833 118.745 13.426 118.953 13.1445C119.16 12.863 119.335 12.6248 119.488 12.4623H134.661C135.185 13.2203 135.567 14.054 135.785 14.9635C136.004 15.873 136.113 16.7608 136.113 17.6378C136.113 18.6556 135.993 19.5759 135.742 20.4204C135.491 21.265 135.196 21.9363 134.858 22.4668H133.81V30.0785C133.144 30.6523 132.39 31.2045 131.528 31.7242C130.666 32.2439 129.705 32.7095 128.624 33.1101C127.544 33.5107 126.321 33.8247 124.978 34.0629C123.636 34.3011 122.14 34.4202 120.503 34.4202C118.866 34.4202 117.359 34.2795 115.842 33.9872C114.324 33.6948 112.894 33.2509 111.541 32.6554C110.187 32.0599 108.954 31.2911 107.829 30.3708C106.705 29.4505 105.734 28.3569 104.915 27.0793C104.096 25.8017 103.463 24.3616 103.004 22.7267C102.546 21.0918 102.328 19.2619 102.328 17.2372C102.328 14.4005 102.764 11.8993 103.649 9.76633C104.533 7.63334 105.755 5.83601 107.338 4.39597C108.921 2.95593 110.799 1.87319 112.993 1.14776C115.187 0.422324 117.599 0.0541835 120.241 0.0541835C121.627 0.0541835 122.97 0.173292 124.28 0.400667C125.59 0.628042 126.823 0.931204 127.969 1.31016C129.116 1.68912 130.153 2.13304 131.091 2.6311C132.03 3.12916 132.827 3.65971 133.471 4.2119C133.471 4.77493 133.438 5.38124 133.373 6.04171C133.307 6.70218 133.22 7.35183 133.1 8.0123C132.98 8.67277 132.849 9.27909 132.685 9.86377C132.521 10.4484 132.347 10.9357 132.161 11.3255H118.68C118.473 11.542 118.243 11.8452 117.981 12.2133C117.719 12.5815 117.468 13.0254 117.239 13.5451C117.01 14.0648 116.813 14.6495 116.65 15.3208C116.486 15.9921 116.409 16.7283 116.409 17.5404C116.409 18.569 116.54 19.4677 116.802 20.2147C117.064 20.9618 117.414 21.5898 117.85 22.0879C118.287 22.5859 118.789 22.9541 119.357 23.2031C119.924 23.4521 120.525 23.5712 121.136 23.5712C121.442 23.5712 121.66 23.5171 121.78 23.4088C121.9 23.3005 121.955 23.1706 121.955 23.019V22.4343H121.671L121.682 22.4235Z" fill="var(--fill-0, #0A0A0A)"/>
<path id="Vector_5" d="M153.961 34.3986C152.531 34.3986 151.112 34.2471 149.714 33.9547C148.317 33.6624 146.996 33.2076 145.752 32.6013C144.507 31.995 143.361 31.2262 142.313 30.2951C141.265 29.3639 140.359 28.2595 139.584 26.9927C138.809 25.7259 138.22 24.2751 137.794 22.651C137.368 21.0269 137.15 19.2187 137.15 17.2156C137.15 14.2598 137.608 11.6937 138.536 9.53904C139.464 7.3844 140.687 5.59787 142.226 4.17949C143.765 2.7611 145.533 1.72168 147.531 1.05038C149.529 0.379084 151.625 0.0326228 153.808 0.0326228C156.406 0.0326228 158.731 0.454877 160.794 1.28858C162.857 2.12229 164.604 3.30247 166.034 4.80748C167.464 6.31248 168.566 8.12065 169.33 10.2428C170.095 12.365 170.477 14.682 170.477 17.2265C170.477 20.2365 170.051 22.8242 169.189 24.9897C168.326 27.1551 167.147 28.9308 165.663 30.3276C164.178 31.7243 162.421 32.7529 160.423 33.4134C158.425 34.0738 156.264 34.3986 153.961 34.3986ZM154.976 16.0788C154.976 15.2667 154.954 14.5738 154.921 13.9891C154.889 13.4044 154.823 12.9172 154.747 12.5274C154.659 12.1701 154.55 11.9319 154.397 11.8128C154.244 11.6937 154.081 11.6395 153.895 11.6395C153.71 11.6395 153.568 11.672 153.459 11.7262C153.349 11.7803 153.273 11.8453 153.207 11.8886C153.229 12.1917 153.251 12.4732 153.284 12.7439C153.317 13.0146 153.349 13.307 153.371 13.6318C153.393 13.9566 153.415 14.3464 153.437 14.7687C153.459 15.1909 153.459 15.7323 153.459 16.3494V17.9952C153.459 18.6232 153.459 19.1537 153.437 19.576C153.415 19.9983 153.393 20.388 153.371 20.7129C153.349 21.0377 153.317 21.3409 153.284 21.6007C153.251 21.8606 153.229 22.1421 153.207 22.4561C153.273 22.5102 153.36 22.5644 153.459 22.6185C153.557 22.6726 153.71 22.7051 153.895 22.7051C154.081 22.7051 154.244 22.651 154.397 22.5319C154.55 22.4128 154.659 22.1746 154.747 21.8173C154.834 21.4275 154.889 20.9402 154.921 20.3556C154.954 19.7709 154.976 19.0779 154.976 18.2659V16.0571V16.0788Z" fill="var(--fill-0, #0A0A0A)"/>
<path id="Vector_6" d="M183.489 25.0871C181.557 23.8203 179.876 22.4019 178.435 20.8536C176.994 19.3053 175.783 17.627 174.8 15.8405C173.818 14.054 173.054 12.1701 172.508 10.167C171.962 8.16394 171.635 6.09591 171.515 3.95209C171.94 3.3241 172.475 2.79356 173.097 2.34964C173.72 1.90572 174.407 1.54841 175.15 1.25607C175.892 0.963729 176.645 0.758013 177.431 0.617257C178.217 0.476501 178.97 0.411534 179.68 0.411534C180.859 0.411534 181.885 0.519811 182.758 0.736359C183.631 0.952906 184.439 1.25607 185.171 1.64585C185.291 1.94902 185.465 2.4146 185.684 3.05341C185.902 3.69223 186.131 4.36353 186.36 5.08896C186.59 5.8144 186.808 6.51818 187.026 7.22196C187.245 7.92573 187.408 8.49959 187.528 8.96516L186.404 13.8916C186.371 14.0757 186.328 14.2922 186.262 14.5304C186.197 14.7686 186.175 14.9743 186.175 15.1692C186.175 15.4183 186.24 15.6348 186.382 15.7864C186.524 15.938 186.753 16.0246 187.103 16.0246C187.201 15.6998 187.343 15.1801 187.528 14.4654C187.714 13.7508 187.9 12.928 188.118 12.0076C188.336 11.0873 188.555 10.102 188.784 9.0626C189.013 8.02318 189.231 7.01623 189.45 6.0526C189.668 5.08896 189.864 4.20112 190.05 3.3999C190.236 2.59867 190.388 1.95985 190.508 1.48345C191.174 1.15863 191.971 0.898766 192.888 0.682219C193.805 0.465671 194.809 0.368232 195.879 0.368232C197.069 0.368232 198.161 0.519803 199.154 0.812142C200.147 1.10448 200.988 1.54841 201.686 2.12226C202.385 2.69611 202.931 3.41071 203.313 4.26607C203.695 5.12144 203.892 6.10674 203.892 7.22196C203.892 8.99764 203.64 10.6867 203.127 12.2675C202.614 13.8483 201.948 15.3425 201.13 16.7067C200.311 18.071 199.394 19.3378 198.379 20.4855C197.364 21.6332 196.359 22.6509 195.377 23.528V31.8975C194.624 32.3523 193.925 32.7204 193.281 33.0019C192.637 33.2834 192.004 33.5 191.404 33.6515C190.803 33.8031 190.214 33.9006 189.668 33.9547C189.122 34.0088 188.565 34.0305 188.02 34.0305C186.895 34.0305 185.869 33.9331 184.941 33.7273C184.013 33.5216 183.217 33.2076 182.551 32.7745C181.885 32.3414 181.372 31.8001 181.001 31.1396C180.629 30.4791 180.455 29.6887 180.455 28.7792V24.3184C180.553 24.4158 180.706 24.5566 180.913 24.7406C181.121 24.9247 181.328 25.0871 181.557 25.2603C181.787 25.4336 182.005 25.5743 182.234 25.6934C182.463 25.8125 182.66 25.8667 182.813 25.8667C183.02 25.8667 183.184 25.8017 183.326 25.6718C183.468 25.5418 183.533 25.347 183.533 25.0763L183.489 25.0871Z" fill="var(--fill-0, #0A0A0A)"/>
<path id="Vector_7" d="M210.417 3.14003C211.082 2.71777 211.836 2.32797 212.665 1.9815C213.495 1.63502 214.379 1.34269 215.318 1.10448C216.257 0.866283 217.206 0.682218 218.211 0.563117C219.215 0.444016 220.208 0.368232 221.213 0.368232C222.544 0.368232 223.865 0.487335 225.164 0.725537C226.463 0.963739 227.664 1.33187 228.734 1.84075C229.803 2.34964 230.731 2.99927 231.495 3.81132C232.26 4.62338 232.784 5.57619 233.056 6.69141L238.886 30.6199C238.1 31.616 236.997 32.4389 235.589 33.0777C234.181 33.7165 232.38 34.0413 230.218 34.0413C229.258 34.0413 228.363 33.9547 227.533 33.7923C226.703 33.6299 225.961 33.37 225.317 33.0452C224.673 32.7204 224.149 32.2981 223.734 31.8001C223.319 31.302 223.046 30.7173 222.926 30.0352L222.359 26.9386C222.883 26.9169 223.407 26.8628 223.931 26.7437C224.455 26.6246 224.924 26.4946 225.339 26.3322C225.754 26.1698 226.103 25.9858 226.365 25.7909C226.627 25.596 226.758 25.3794 226.758 25.1845C226.758 24.9139 226.649 24.6973 226.43 24.5241C226.125 24.7406 225.765 24.9463 225.361 25.1196C224.957 25.2928 224.52 25.4444 224.073 25.5635C223.625 25.6826 223.167 25.7692 222.719 25.8342C222.271 25.8991 221.846 25.9208 221.453 25.9208C220.721 25.9208 220.066 25.8775 219.499 25.78C218.931 25.6826 218.429 25.5743 218.003 25.4336C217.578 25.2928 217.206 25.152 216.901 24.9896C216.595 24.8272 216.333 24.6757 216.137 24.5241C216.071 24.6107 216.006 24.7081 215.962 24.8164C215.918 24.9247 215.886 25.0438 215.886 25.1845C215.886 25.4336 216.017 25.6718 216.279 25.8775C216.541 26.0832 216.901 26.2781 217.337 26.4405C217.774 26.6029 218.287 26.7329 218.855 26.8303C219.422 26.9277 220.023 27.0035 220.656 27.036C220.754 28.2162 220.874 29.1582 221.005 29.8619C221.136 30.5657 221.256 31.0097 221.376 31.1937C221.223 31.4861 220.918 31.7892 220.47 32.1249C220.023 32.4605 219.455 32.7637 218.778 33.056C218.101 33.3484 217.337 33.5757 216.475 33.7706C215.613 33.9655 214.696 34.0521 213.724 34.0521C212.512 34.0521 211.366 33.9222 210.297 33.6407C209.227 33.3592 208.288 32.9911 207.48 32.5147C206.672 32.0383 206.039 31.4536 205.559 30.7606C205.079 30.0677 204.839 29.3098 204.839 28.4652C204.839 28.2812 204.839 28.0863 204.86 27.8914C204.882 27.6965 204.915 27.5016 204.959 27.2959L210.406 3.14003H210.417ZM222.435 16.2086C222.25 15.1909 222.097 14.3788 221.988 13.7725C221.878 13.1662 221.769 12.7006 221.66 12.3866C221.551 12.0726 221.431 11.8669 221.3 11.7803C221.169 11.6936 221.016 11.6395 220.831 11.6395C220.71 11.6395 220.601 11.6612 220.503 11.6936C220.405 11.7261 220.307 11.7586 220.219 11.7911L221.191 16.9124C221.256 16.9774 221.354 17.0315 221.485 17.064C221.616 17.0965 221.726 17.1182 221.835 17.1182C221.988 17.1182 222.13 17.0965 222.271 17.0532C222.413 17.0099 222.512 16.9774 222.577 16.9341L222.446 16.1978L222.435 16.2086Z" fill="var(--fill-0, #0A0A0A)"/>
<path id="Vector_8" d="M267.737 12.1701C267.737 13.4586 267.54 14.6821 267.147 15.8406C266.754 16.9991 266.132 18.0494 265.291 18.9914C264.451 19.9333 263.37 20.7454 262.06 21.4492C260.75 22.1529 259.157 22.6835 257.301 23.0624C257.301 23.4197 257.388 23.6688 257.552 23.8095C257.716 23.9503 257.923 24.0261 258.163 24.0261C258.611 24.0261 259.146 23.9503 259.79 23.7987C260.434 23.6471 261.089 23.4306 261.755 23.1382C262.421 22.8459 263.086 22.5102 263.72 22.1096C264.353 21.709 264.909 21.2651 265.368 20.7779C266.187 21.5899 266.798 22.5644 267.202 23.7013C267.606 24.8381 267.802 25.9966 267.802 27.1985C267.802 28.4003 267.617 29.4939 267.235 30.5766C266.852 31.6594 266.285 32.5797 265.521 33.3376H242.521C241.211 31.4103 240.556 29.2232 240.556 26.7654C240.556 25.7476 240.665 24.7298 240.883 23.7121C241.102 22.6943 241.451 21.7631 241.931 20.9294C243.514 20.6263 245.097 20.1715 246.68 19.576C248.262 18.9805 249.671 18.2767 250.926 17.4972C252.181 16.7176 253.197 15.8406 253.982 14.8986C254.768 13.9566 255.161 12.9822 255.161 11.9752C255.161 11.488 255.052 11.0766 254.834 10.7409C254.616 10.4053 254.288 10.2428 253.862 10.2428C253.382 10.2428 253.055 10.3944 252.88 10.6868C252.705 10.9791 252.607 11.3039 252.607 11.6396C252.607 11.9752 252.683 12.3109 252.836 12.6573C252.989 13.0038 253.207 13.2637 253.502 13.4694C253.044 14.1407 252.465 14.7795 251.767 15.3642C251.068 15.9489 250.315 16.4794 249.507 16.9666C248.699 17.4539 247.859 17.8761 246.996 18.2334C246.134 18.5907 245.315 18.8939 244.529 19.1105C243.066 18.1468 241.931 16.9775 241.156 15.5916C240.381 14.2057 239.977 12.6573 239.977 10.9141C239.977 9.17093 240.348 7.6551 241.08 6.31251C241.811 4.96992 242.804 3.83306 244.049 2.92356C245.293 2.01407 246.745 1.32112 248.393 0.844713C250.042 0.368309 251.788 0.130104 253.611 0.130104C255.543 0.130104 257.356 0.389955 259.069 0.920496C260.783 1.45104 262.279 2.21978 263.556 3.23755C264.833 4.25532 265.848 5.52213 266.601 7.0163C267.355 8.51048 267.726 10.232 267.726 12.1809L267.737 12.1701Z" fill="var(--fill-0, #0A0A0A)"/>
<path id="Vector_9" d="M284.07 33.998C281.865 33.998 279.867 33.6407 278.055 32.9153C276.243 32.1898 274.704 31.1287 273.416 29.7104C272.128 28.292 271.135 26.5271 270.425 24.4266C269.715 22.3261 269.366 19.89 269.366 17.1182C269.366 14.3464 269.737 12.0726 270.469 9.96127C271.2 7.84994 272.226 6.05259 273.536 4.58007C274.846 3.10755 276.396 1.9815 278.197 1.1911C279.998 0.400706 281.952 0.0109248 284.081 0.0109248C286.21 0.0109248 288.153 0.400706 289.954 1.1911C291.755 1.9815 293.305 3.10755 294.626 4.58007C295.947 6.05259 296.962 7.84994 297.693 9.96127C298.425 12.0726 298.796 14.4655 298.796 17.1182C298.796 19.7709 298.447 22.3261 297.737 24.4266C297.027 26.5271 296.034 28.2812 294.746 29.7104C293.458 31.1396 291.908 32.2007 290.107 32.9153C288.306 33.6299 286.297 33.998 284.092 33.998H284.07ZM289.19 23.084C288.982 22.9324 288.698 22.6834 288.316 22.3478C287.934 22.0121 287.53 21.6115 287.072 21.1568C286.614 20.702 286.155 20.1931 285.664 19.6518C285.173 19.1104 284.725 18.5365 284.299 17.9627C283.939 17.4755 283.579 16.9233 283.197 16.3169C282.815 15.7106 282.476 15.1151 282.149 14.5304C281.821 13.9457 281.548 13.4152 281.308 12.9496C281.068 12.484 280.915 12.1159 280.85 11.8885C280.326 11.8885 280.053 12.1917 280.053 12.798C280.053 13.0362 280.129 13.3502 280.271 13.7508C280.413 14.1515 280.621 14.6062 280.872 15.1043C281.123 15.6023 281.439 16.1545 281.789 16.7284C282.138 17.3022 282.542 17.8761 282.968 18.4499L283.328 18.9371C283.874 19.6842 284.408 20.3447 284.922 20.9402C285.435 21.5357 285.926 22.0338 286.384 22.4344C286.843 22.835 287.247 23.149 287.596 23.3764C287.945 23.6037 288.251 23.7012 288.491 23.7012C288.622 23.7012 288.764 23.6579 288.917 23.5713C289.07 23.4846 289.146 23.3222 289.19 23.084Z" fill="var(--fill-0, #0A0A0A)"/>
<path id="Vector_10" d="M328.082 12.1701C328.082 13.4586 327.885 14.6821 327.492 15.8406C327.099 16.9991 326.477 18.0494 325.637 18.9914C324.796 19.9333 323.715 20.7454 322.405 21.4492C321.096 22.1529 319.502 22.6835 317.646 23.0624C317.646 23.4197 317.733 23.6688 317.897 23.8095C318.061 23.9503 318.268 24.0261 318.508 24.0261C318.956 24.0261 319.491 23.9503 320.135 23.7987C320.779 23.6471 321.434 23.4306 322.1 23.1382C322.766 22.8459 323.432 22.5102 324.065 22.1096C324.698 21.709 325.255 21.2651 325.713 20.7779C326.532 21.5899 327.143 22.5644 327.547 23.7013C327.951 24.8381 328.147 25.9966 328.147 27.1985C328.147 28.4003 327.962 29.4939 327.58 30.5766C327.198 31.6594 326.63 32.5797 325.866 33.3376H302.866C301.556 31.4103 300.901 29.2232 300.901 26.7654C300.901 25.7476 301.01 24.7298 301.228 23.7121C301.447 22.6943 301.796 21.7631 302.276 20.9294C303.859 20.6263 305.442 20.1715 307.025 19.576C308.608 18.9805 310.016 18.2767 311.271 17.4972C312.526 16.7176 313.542 15.8406 314.328 14.8986C315.114 13.9566 315.506 12.9822 315.506 11.9752C315.506 11.488 315.397 11.0766 315.179 10.7409C314.961 10.4053 314.633 10.2428 314.207 10.2428C313.727 10.2428 313.4 10.3944 313.225 10.6868C313.05 10.9791 312.952 11.3039 312.952 11.6396C312.952 11.9752 313.029 12.3109 313.181 12.6573C313.334 13.0038 313.553 13.2637 313.847 13.4694C313.389 14.1407 312.81 14.7795 312.112 15.3642C311.413 15.9489 310.66 16.4794 309.852 16.9666C309.044 17.4539 308.204 17.8761 307.341 18.2334C306.479 18.5907 305.66 18.8939 304.874 19.1105C303.412 18.1468 302.276 16.9775 301.501 15.5916C300.726 14.2057 300.322 12.6573 300.322 10.9141C300.322 9.17093 300.693 7.6551 301.425 6.31251C302.156 4.96992 303.15 3.83306 304.394 2.92356C305.638 2.01407 307.09 1.32112 308.739 0.844713C310.387 0.368309 312.133 0.130104 313.956 0.130104C315.889 0.130104 317.701 0.389955 319.414 0.920496C321.128 1.45104 322.624 2.21978 323.901 3.23755C325.178 4.25532 326.193 5.52213 326.947 7.0163C327.7 8.51048 328.071 10.232 328.071 12.1809L328.082 12.1701Z" fill="var(--fill-0, #0A0A0A)"/>
<path id="Vector_11" d="M354.16 11.5636C353.276 11.1522 352.293 10.8382 351.234 10.6108C350.176 10.3834 349.029 10.2643 347.818 10.2643C347.032 10.2643 346.279 10.3185 345.569 10.4376C344.86 10.5567 344.226 10.7083 343.681 10.8923C343.135 11.0764 342.698 11.2929 342.371 11.5311C342.043 11.7693 341.879 12.0076 341.879 12.2458C341.879 12.4298 341.934 12.6139 342.054 12.8088C342.775 12.4839 343.604 12.17 344.554 11.8668C345.504 11.5636 346.584 11.412 347.818 11.412C349.783 11.412 351.453 11.7044 352.85 12.2891C354.247 12.8737 355.372 13.6641 356.256 14.6494C357.14 15.6347 357.773 16.7932 358.188 18.1033C358.603 19.4135 358.799 20.7885 358.799 22.2286C358.799 24.1775 358.406 25.8882 357.631 27.3499C356.856 28.8116 355.83 30.0568 354.564 31.042C353.298 32.0273 351.846 32.7744 350.23 33.2725C348.615 33.7705 346.966 34.0196 345.296 34.0196C343.244 34.0196 341.279 33.6839 339.401 33.0126C337.524 32.3413 335.854 31.3344 334.424 29.9701C332.994 28.6059 331.848 26.8952 330.996 24.8271C330.145 22.7591 329.719 20.323 329.719 17.5187C329.719 16.0462 329.861 14.5953 330.145 13.1553C330.428 11.7152 330.854 10.351 331.433 9.04085C332.011 7.73074 332.743 6.53973 333.638 5.43534C334.533 4.33095 335.57 3.38897 336.771 2.57692C337.971 1.76487 339.336 1.14771 340.864 0.682136C342.392 0.216559 344.084 7.11064e-06 345.94 7.11064e-06C348.003 7.11064e-06 349.914 0.238223 351.682 0.725454C353.45 1.21269 354.946 2.00307 356.169 3.11829C356.19 3.32401 356.19 3.56222 356.19 3.85456V4.59081C356.19 5.2188 356.147 5.85761 356.059 6.51808C355.972 7.17855 355.841 7.81737 355.677 8.43452C355.514 9.05168 355.295 9.62553 355.033 10.1561C354.771 10.6866 354.487 11.1522 354.16 11.542V11.5636ZM343.058 20.7994C343.058 21.3624 343.222 21.8171 343.55 22.1853C343.877 22.5534 344.325 22.7266 344.903 22.7266C345.296 22.7266 345.613 22.64 345.853 22.4559C346.093 22.2719 346.213 22.0229 346.213 21.6872C346.213 21.2433 346.06 20.9401 345.766 20.7561C345.471 20.572 345.078 20.4854 344.598 20.4854C344.303 20.4854 344.019 20.5178 343.735 20.572C343.451 20.6261 343.233 20.7019 343.058 20.7885V20.7994Z" fill="var(--fill-0, #0A0A0A)"/>
</g>
</svg>
