<svg width="101" height="101" viewBox="0 0 101 101" fill="none" xmlns="http://www.w3.org/2000/svg">
<path d="M52.3944 1.40215L57.2997 12.3568C59.8124 17.9654 66.2666 20.6405 72.0095 18.4503L83.2246 14.1723C85.1402 13.4429 87.0158 15.3184 86.2864 17.234L82.0083 28.4492C79.8182 34.1921 82.4913 40.6462 88.1018 43.159L99.0565 48.0642C100.926 48.9018 100.926 51.5568 99.0565 52.3944L88.1018 57.2997C82.4933 59.8124 79.8182 66.2666 82.0083 72.0095L86.2864 83.2246C87.0158 85.1402 85.1402 87.0158 83.2246 86.2864L72.0095 82.0083C66.2666 79.8182 59.8124 82.4912 57.2997 88.1018L52.3944 99.0565C51.5568 100.926 48.9018 100.926 48.0643 99.0565L43.159 88.1018C40.6462 82.4933 34.1921 79.8182 28.4492 82.0083L17.234 86.2864C15.3184 87.0158 13.4429 85.1402 14.1723 83.2246L18.4503 72.0095C20.6405 66.2666 17.9674 59.8124 12.3568 57.2997L1.40215 52.3944C-0.467382 51.5568 -0.467382 48.9018 1.40215 48.0642L12.3568 43.159C17.9654 40.6462 20.6405 34.1921 18.4503 28.4492L14.1723 17.234C13.4429 15.3184 15.3184 13.4429 17.234 14.1723L28.4492 18.4503C34.1921 20.6405 40.6462 17.9674 43.159 12.3568L48.0643 1.40215C48.9018 -0.467382 51.5568 -0.467382 52.3944 1.40215Z" fill="#FF6A00"/>
</svg>
