<svg preserveAspectRatio="none" width="100%" height="100%" overflow="visible" style="display: block;" viewBox="0 0 226.448 28" fill="none" xmlns="http://www.w3.org/2000/svg">
<g id="Union">
<mask id="path-1-outside-1_0_6" maskUnits="userSpaceOnUse" x="0" y="0" width="227" height="28" fill="black">
<rect fill="white" width="227" height="28"/>
<path d="M206 2C212.627 2 218 7.37258 218 14C218 14.8874 217.9 15.7514 217.717 16.584L222.246 22.5996L214.802 22.1523C212.61 24.5176 209.479 26 206 26H14C7.37259 26 2 20.6274 2 14C2 7.37258 7.37258 2 14 2H206Z"/>
</mask>
<path d="M206 2C212.627 2 218 7.37258 218 14C218 14.8874 217.9 15.7514 217.717 16.584L222.246 22.5996L214.802 22.1523C212.61 24.5176 209.479 26 206 26H14C7.37259 26 2 20.6274 2 14C2 7.37258 7.37258 2 14 2H206Z" fill="var(--fill-0, #FAFAFA)"/>
<path d="M217.717 16.584L215.763 16.1551L215.566 17.0528L216.119 17.787L217.717 16.584ZM222.246 22.5996L222.126 24.596L226.448 24.8557L223.844 21.3966L222.246 22.5996ZM214.802 22.1523L214.922 20.1559L213.978 20.0992L213.335 20.7929L214.802 22.1523ZM14 26L14 28H14V26ZM206 2V4C211.523 4 216 8.47715 216 14H218H220C220 6.26801 213.732 0 206 0V2ZM218 14H216C216 14.7359 215.917 15.4561 215.763 16.1551L217.717 16.584L219.67 17.0128C219.882 16.0468 220 15.0389 220 14H218ZM217.717 16.584L216.119 17.787L220.648 23.8026L222.246 22.5996L223.844 21.3966L219.315 15.381L217.717 16.584ZM222.246 22.5996L222.366 20.6032L214.922 20.1559L214.802 22.1523L214.682 24.1487L222.126 24.596L222.246 22.5996ZM214.802 22.1523L213.335 20.7929C211.505 22.7678 208.898 24 206 24V26V28C210.06 28 213.715 26.2674 216.269 23.5117L214.802 22.1523ZM206 26V24H14V26V28H206V26ZM14 26L14 24C8.47715 24 4 19.5228 4 14H2H0C0 21.732 6.26802 28 14 28L14 26ZM2 14H4C4 8.47715 8.47715 4 14 4V2V0C6.26801 0 0 6.26801 0 14H2ZM14 2V4H206V2V0H14V2Z" fill="var(--stroke-0, #0A0A0A)" mask="url(#path-1-outside-1_0_6)"/>
</g>
</svg>
