<svg preserveAspectRatio="none" width="100%" height="100%" overflow="visible" style="display: block;" viewBox="0 0 47.9996 54.8779" fill="none" xmlns="http://www.w3.org/2000/svg">
<g id="Icon Container">
<path id="Vector" d="M46.4441 31.4696L35.4639 19.4575C35.0259 18.9775 34.9699 18.2615 35.3319 17.7215C37.478 14.4974 38.448 10.6314 38.08 6.77335L37.68 2.6093C37.584 1.61929 36.626 0.949283 35.6659 1.20129C33.7939 1.68929 32.0599 2.6073 30.6039 3.88132H30.6019C29.2618 5.05333 28.3058 6.59935 27.8578 8.32136L26.5898 13.1834C26.1638 14.8174 25.1058 16.1955 23.6737 17.0355C23.0397 15.9715 22.2357 15.3334 21.3597 15.3334C19.9077 15.3334 18.6537 17.0795 18.0477 19.6195C17.8177 19.8195 17.6057 20.0375 17.4116 20.2755C16.8776 17.3855 15.5336 15.3334 13.9616 15.3334C11.9176 15.3334 10.2615 18.7915 10.2615 23.0575C10.2615 24.5175 10.4555 25.8836 10.7936 27.0496C10.0775 27.5616 9.33553 28.0416 8.56952 28.4816L1.78741 32.3816C0.985396 32.8416 0.929391 33.9817 1.6834 34.5197L7.6275 38.7697C8.83752 39.6357 10.4035 39.8297 11.7896 39.2897C13.9956 38.4277 16.3436 37.9857 18.7117 37.9857C23.5097 37.9857 27.9538 40.5177 30.4019 44.6478L35.3839 53.0479C35.96 54.0199 37.394 53.9399 37.858 52.9059L46.7181 33.1416C46.9701 32.5816 46.8641 31.9236 46.4501 31.4716L46.4441 31.4696Z" fill="var(--fill-0, #FAFAFA)"/>
<path id="Union" d="M35.376 0.0898437C36.1578 -0.114052 36.9894 0.0333184 37.6533 0.49707C38.3192 0.960998 38.7451 1.69117 38.8232 2.49902L39.2236 6.66309C39.6176 10.769 38.576 14.9234 36.29 18.3574C36.2221 18.4594 36.2335 18.5936 36.3154 18.6836L47.2939 30.6934C48.0179 31.4853 48.2036 32.6294 47.7637 33.6094L38.9033 53.374C38.5133 54.2439 37.6775 54.82 36.7256 54.874C36.6758 54.878 36.626 54.8779 36.5781 54.8779C35.6821 54.8779 34.8536 54.4098 34.3916 53.6318L29.4092 45.2314C27.1791 41.4697 23.0769 39.1338 18.707 39.1338C16.4731 39.1338 14.283 39.5454 12.2031 40.3594C10.4451 41.0434 8.48509 40.7981 6.95508 39.7041L1.0127 35.4561C0.340868 34.9741 -0.036898 34.194 0.00292969 33.3662C0.0449271 32.5383 0.496929 31.7978 1.21484 31.3857L7.99707 27.4854C8.59694 27.1394 9.18304 26.7699 9.75293 26.376C9.53893 25.364 9.42285 24.2476 9.42285 23.0576C9.42285 18.1778 11.3751 14.4954 13.9609 14.4951C15.523 14.4951 16.8531 15.8376 17.6611 17.9756C18.0671 16.8997 18.6053 16.0278 19.2393 15.4238C17.8992 13.5638 16.919 11.4515 16.375 9.18945L15.3477 4.91113C15.1038 3.89525 15.8273 2.89939 16.8691 2.82129C18.8991 2.6673 20.9373 2.98501 22.8213 3.75293H22.8232C24.5273 4.44693 25.9855 5.62937 27.0195 7.15137C27.5935 5.55939 28.5577 4.14162 29.8457 3.01562L30.1836 2.73145C31.6976 1.49343 33.4839 0.583849 35.376 0.0898437ZM36.3398 2.375C36.2738 2.32902 36.1378 2.25976 35.958 2.30762C34.266 2.74962 32.6754 3.5912 31.3613 4.74121L31.2393 4.84961C30.1314 5.85957 29.3477 7.15556 28.9697 8.60742L28.6934 9.66504L27.7012 13.4697C27.2651 15.1396 26.2632 16.5878 24.9053 17.5918C25.5293 19.0538 25.8955 20.9417 25.8955 23.0557C25.8955 27.9357 23.9435 31.6182 21.3574 31.6182C19.7954 31.6182 18.4652 30.2757 17.6572 28.1377C16.8472 30.2757 15.519 31.6182 13.957 31.6182C12.5251 31.618 11.2916 30.4891 10.4717 28.6572C10.0337 28.9412 9.58873 29.2156 9.13672 29.4756L2.35547 33.376C2.33948 33.386 2.29897 33.4097 2.29492 33.4756C2.29093 33.5435 2.33065 33.572 2.34473 33.582L8.28906 37.832C9.18507 38.474 10.3352 38.6178 11.3652 38.2158C12.5821 37.7411 13.8318 37.388 15.1045 37.1572C15.1019 37.1023 15.0996 37.0442 15.0996 36.9834C15.0998 34.6596 17.1783 32.7773 19.7402 32.7773C22.3019 32.7776 24.3796 34.6617 24.3799 36.9834C24.3799 37.4284 24.2957 37.7135 24.1436 37.8848C27.1284 39.0756 29.7059 41.2244 31.3857 44.0576L36.3682 52.458C36.4202 52.5438 36.4938 52.5841 36.5938 52.5781C36.6917 52.5741 36.7637 52.5236 36.8037 52.4336L45.6641 32.6699L45.668 32.6621C45.732 32.5201 45.7056 32.3533 45.5996 32.2373L34.6201 20.2256C33.8221 19.3516 33.7239 18.0572 34.3799 17.0752C36.3718 14.0812 37.2815 10.4589 36.9375 6.875L36.5381 2.71387C36.5201 2.52787 36.4058 2.421 36.3398 2.375ZM13.959 16.1719C13.3291 16.1721 12.6355 16.8402 12.0996 17.958V17.96C11.8257 18.5338 11.6054 19.1934 11.4414 19.9092C11.6453 19.7713 11.8658 19.6934 12.0957 19.6934C13.0675 19.6938 13.8652 21.0382 13.9512 22.752C13.9552 22.8538 13.959 22.9557 13.959 23.0596C13.959 24.9173 13.1255 26.4253 12.0957 26.4258C11.8638 26.4258 11.6453 26.3479 11.4414 26.21C11.5614 26.7298 11.7097 27.22 11.8877 27.6699C11.9556 27.8377 12.0257 28.0014 12.0996 28.1572C12.6355 29.2751 13.3291 29.9431 13.959 29.9434C14.589 29.9434 15.2833 29.2752 15.8193 28.1572C16.4652 26.8093 16.8213 24.9995 16.8213 23.0576C16.8213 23.0257 16.8193 22.9938 16.8193 22.9619C16.8113 21.792 16.6777 20.6718 16.4258 19.6738C16.2678 19.048 16.0633 18.4699 15.8193 17.958C15.2833 16.84 14.589 16.1719 13.959 16.1719ZM21.3574 16.1699C21.0114 16.1699 20.643 16.3731 20.293 16.7451C20.131 16.9171 19.9713 17.1253 19.8213 17.3652H19.8193C19.7054 17.5432 19.5971 17.7412 19.4951 17.9551C19.2411 18.485 19.035 19.0874 18.875 19.7373C19.071 19.6073 19.2839 19.5332 19.5059 19.5332C19.7157 19.5333 19.9157 19.5999 20.1035 19.7158C20.8314 20.1659 21.3555 21.4081 21.3555 22.874C21.3553 24.7176 20.5276 26.2134 19.5059 26.2139C19.2479 26.2139 19.0033 26.1173 18.7793 25.9453C18.9473 26.7631 19.1872 27.5134 19.4951 28.1553C20.0311 29.2733 20.7255 29.9414 21.3555 29.9414C21.9855 29.9414 22.6798 29.2733 23.2158 28.1553C23.8617 26.8073 24.2178 24.9954 24.2178 23.0557C24.2178 21.3396 23.9397 19.7254 23.4277 18.4414C23.3617 18.2734 23.2918 18.1111 23.2178 17.9551C22.6818 16.8372 21.9854 16.1699 21.3574 16.1699Z" fill="var(--fill-0, #0A0A0A)"/>
</g>
</svg>
